<svg xmlns="http://www.w3.org/2000/svg" width="295.7185363769531" height="296.8709716796875" viewBox="-55.840301513671875 -38.67903137207031 295.7185363769531 296.8709716796875"><title>Neo4j Graph Visualization</title><desc>Created using Neo4j (http://www.neo4j.com/)</desc><g class="layer relationships"><g class="relationship" transform="translate(121.50528171048182 229.1919302025443) rotate(254.29730811368466)"><path class="outline" fill="#A5ABB6" stroke="none" d="M 25 0.5 L 35.3559298607337 0.5 L 35.3559298607337 -0.5 L 25 -0.5 Z M 80.91842986073371 0.5 L 91.2743597214674 0.5 L 91.2743597214674 3.5 L 98.2743597214674 0 L 91.2743597214674 -3.5 L 91.2743597214674 -0.5 L 80.91842986073371 -0.5 Z"/><text text-anchor="middle" pointer-events="none" font-size="8px" fill="#000000" x="58.1371798607337" y="3" transform="rotate(180 58.1371798607337 0)" font-family="sans-serif">ACTED_IN</text></g><g class="relationship" transform="translate(191.80100165907993 177.7455175158823) rotate(212.96500900727108)"><path class="outline" fill="#A5ABB6" stroke="none" d="M 25 0.5 L 40.38861991421378 0.5 L 40.38861991421378 -0.5 L 25 -0.5 Z M 76.16205741421378 0.5 L 91.55067732842755 0.5 L 91.55067732842755 3.5 L 98.55067732842755 0 L 91.55067732842755 -3.5 L 91.55067732842755 -0.5 L 76.16205741421378 -0.5 Z"/><text text-anchor="middle" pointer-events="none" font-size="8px" fill="#000000" x="58.27533866421378" y="3" transform="rotate(180 58.27533866421378 0)" font-family="sans-serif">WROTE</text></g><g class="relationship" transform="translate(181.54834697309826 28.824828639358135) rotate(498.827082853103)"><path class="outline" fill="#A5ABB6" stroke="none" d="M 25 0.5 L 40.65890977781515 0.5 L 40.65890977781515 -0.5 L 25 -0.5 Z M 76.43234727781515 0.5 L 92.0912570556303 0.5 L 92.0912570556303 3.5 L 99.0912570556303 0 L 92.0912570556303 -3.5 L 92.0912570556303 -0.5 L 76.43234727781515 -0.5 Z"/><text text-anchor="middle" pointer-events="none" font-size="8px" fill="#000000" x="58.54562852781515" y="3" transform="rotate(180 58.54562852781515 0)" font-family="sans-serif">WROTE</text></g><g class="relationship" transform="translate(210.87824079217756 100.17889245200868) rotate(535.1847432471953)"><path class="outline" fill="#A5ABB6" stroke="none" d="M 25 0.5 L 35.30442975898026 0.5 L 35.30442975898026 -0.5 L 25 -0.5 Z M 80.86692975898026 0.5 L 91.17135951796052 0.5 L 91.17135951796052 3.5 L 98.17135951796052 0 L 91.17135951796052 -3.5 L 91.17135951796052 -0.5 L 80.86692975898026 -0.5 Z"/><text text-anchor="middle" pointer-events="none" font-size="8px" fill="#000000" x="58.08567975898026" y="3" transform="rotate(180 58.08567975898026 0)" font-family="sans-serif">ACTED_IN</text></g><g class="relationship" transform="translate(114.72105636807568 -9.679030849378677) rotate(462.469256233624)"><path class="outline" fill="#A5ABB6" stroke="none" d="M 25 0.5 L 35.26926316143405 0.5 L 35.26926316143405 -0.5 L 25 -0.5 Z M 80.83176316143405 0.5 L 91.1010263228681 0.5 L 91.1010263228681 3.5 L 98.1010263228681 0 L 91.1010263228681 -3.5 L 91.1010263228681 -0.5 L 80.83176316143405 -0.5 Z"/><text text-anchor="middle" pointer-events="none" font-size="8px" fill="#000000" x="58.05051316143405" y="3" transform="rotate(180 58.05051316143405 0)" font-family="sans-serif">ACTED_IN</text></g><g class="relationship" transform="translate(35.325698890448336 -1.1140729329003467) rotate(424.6800616630153)"><path class="outline" fill="#A5ABB6" stroke="none" d="M 25 0.5 L 35.46683623801666 0.5 L 35.46683623801666 -0.5 L 25 -0.5 Z M 81.02933623801667 0.5 L 91.49617247603332 0.5 L 91.49617247603332 3.5 L 98.49617247603332 0 L 91.49617247603332 -3.5 L 91.49617247603332 -0.5 L 81.02933623801667 -0.5 Z"/><text text-anchor="middle" pointer-events="none" font-size="8px" fill="#000000" x="58.24808623801666" y="3" font-family="sans-serif">ACTED_IN</text></g><g class="relationship" transform="translate(-25.000447432828295 61.732038320899406) rotate(383.32544742729954)"><path class="outline" fill="#A5ABB6" stroke="none" d="M 25 0.5 L 34.66074091931046 0.5 L 34.66074091931046 -0.5 L 25 -0.5 Z M 81.55136591931046 0.5 L 91.21210683862093 0.5 L 91.21210683862093 3.5 L 98.21210683862093 0 L 91.21210683862093 -3.5 L 91.21210683862093 -0.5 L 81.55136591931046 -0.5 Z"/><text text-anchor="middle" pointer-events="none" font-size="8px" fill="#000000" x="58.10605341931046" y="3" font-family="sans-serif">DIRECTED</text></g><g class="relationship" transform="translate(-26.84030069339794 151.9278434544018) rotate(340.19403634018363)"><path class="outline" fill="#A5ABB6" stroke="none" d="M 25 0.5 L 34.82437751218337 0.5 L 34.82437751218337 -0.5 L 25 -0.5 Z M 80.38687751218336 0.5 L 90.21125502436674 0.5 L 90.21125502436674 3.5 L 97.21125502436674 0 L 90.21125502436674 -3.5 L 90.21125502436674 -0.5 L 80.38687751218336 -0.5 Z"/><text text-anchor="middle" pointer-events="none" font-size="8px" fill="#000000" x="57.60562751218337" y="3" font-family="sans-serif">ACTED_IN</text></g><g class="relationship" transform="translate(31.877351441985997 219.0307712713937) rotate(297.4069622121342)"><path class="outline" fill="#A5ABB6" stroke="none" d="M 25 0.5 L 34.83467580636711 0.5 L 34.83467580636711 -0.5 L 25 -0.5 Z M 80.3971758063671 0.5 L 90.23185161273422 0.5 L 90.23185161273422 3.5 L 97.23185161273422 0 L 90.23185161273422 -3.5 L 90.23185161273422 -0.5 L 80.3971758063671 -0.5 Z"/><text text-anchor="middle" pointer-events="none" font-size="8px" fill="#000000" x="57.61592580636711" y="3" font-family="sans-serif">ACTED_IN</text></g></g><g class="layer nodes"><g class="node" transform="translate(88.1416093974842,110.5182889230729)"><circle class="outline" cx="0" cy="0" r="25" fill="#57C7E3" stroke="#23b3d7" stroke-width="2px"/><text text-anchor="middle" pointer-events="none" font-family="sans-serif" dy="1.5625" font-size="25" fill="#2A2C34"/><text text-anchor="middle" pointer-events="none" font-family="sans-serif" dy="1.5625" font-size="25" fill="#2A2C34"/><text text-anchor="middle" pointer-events="none" font-family="sans-serif" dy="1.5625" font-size="25" fill="#2A2C34"/><text text-anchor="middle" pointer-events="none" x="0" y="-5" font-size="10px" fill="#2A2C34" font-family="sans-serif"> Captain</text><text text-anchor="middle" pointer-events="none" x="0" y="5" font-size="10px" fill="#2A2C34" font-family="sans-serif"> America:</text><text text-anchor="middle" pointer-events="none" x="0" y="15" font-size="10px" fill="#2A2C34" font-family="sans-serif"> THe F…</text></g><g class="node" transform="translate(121.50528171048182,229.1919302025443)"><circle class="outline" cx="0" cy="0" r="25" fill="#F79767" stroke="#f36924" stroke-width="2px"/><text text-anchor="middle" pointer-events="none" font-family="sans-serif" dy="1.5625" font-size="25" fill="#FFFFFF"/><text text-anchor="middle" pointer-events="none" font-family="sans-serif" dy="1.5625" font-size="25" fill="#FFFFFF"/><text text-anchor="middle" pointer-events="none" x="0" y="0" font-size="10px" fill="#FFFFFF" font-family="sans-serif"> Sebastan</text><text text-anchor="middle" pointer-events="none" x="0" y="10" font-size="10px" fill="#FFFFFF" font-family="sans-serif"> Stan</text></g><g class="node" transform="translate(191.80100165907993,177.7455175158823)"><circle class="outline" cx="0" cy="0" r="25" fill="#F79767" stroke="#f36924" stroke-width="2px"/><text text-anchor="middle" pointer-events="none" font-family="sans-serif" dy="1.5625" font-size="25" fill="#FFFFFF"/><text text-anchor="middle" pointer-events="none" font-family="sans-serif" dy="1.5625" font-size="25" fill="#FFFFFF"/><text text-anchor="middle" pointer-events="none" x="0" y="0" font-size="10px" fill="#FFFFFF" font-family="sans-serif"> Stephen</text><text text-anchor="middle" pointer-events="none" x="0" y="10" font-size="10px" fill="#FFFFFF" font-family="sans-serif"> McFeely</text></g><g class="node" transform="translate(181.54834697309826,28.824828639358135)"><circle class="outline" cx="0" cy="0" r="25" fill="#F79767" stroke="#f36924" stroke-width="2px"/><text text-anchor="middle" pointer-events="none" font-family="sans-serif" dy="1.5625" font-size="25" fill="#FFFFFF"/><text text-anchor="middle" pointer-events="none" x="0" y="5" font-size="10px" fill="#FFFFFF" font-family="sans-serif"> Christop…</text></g><g class="node" transform="translate(210.87824079217756,100.17889245200868)"><circle class="outline" cx="0" cy="0" r="25" fill="#F79767" stroke="#f36924" stroke-width="2px"/><text text-anchor="middle" pointer-events="none" font-family="sans-serif" dy="1.5625" font-size="25" fill="#FFFFFF"/><text text-anchor="middle" pointer-events="none" font-family="sans-serif" dy="1.5625" font-size="25" fill="#FFFFFF"/><text text-anchor="middle" pointer-events="none" x="0" y="0" font-size="10px" fill="#FFFFFF" font-family="sans-serif"> Dominic</text><text text-anchor="middle" pointer-events="none" x="0" y="10" font-size="10px" fill="#FFFFFF" font-family="sans-serif"> Cooper</text></g><g class="node" transform="translate(114.72105636807568,-9.679030849378677)"><circle class="outline" cx="0" cy="0" r="25" fill="#F79767" stroke="#f36924" stroke-width="2px"/><text text-anchor="middle" pointer-events="none" font-family="sans-serif" dy="1.5625" font-size="25" fill="#FFFFFF"/><text text-anchor="middle" pointer-events="none" font-family="sans-serif" dy="1.5625" font-size="25" fill="#FFFFFF"/><text text-anchor="middle" pointer-events="none" x="0" y="0" font-size="10px" fill="#FFFFFF" font-family="sans-serif"> Chris</text><text text-anchor="middle" pointer-events="none" x="0" y="10" font-size="10px" fill="#FFFFFF" font-family="sans-serif"> Evans</text></g><g class="node" transform="translate(35.325698890448336,-1.1140729329003467)"><circle class="outline" cx="0" cy="0" r="25" fill="#F79767" stroke="#f36924" stroke-width="2px"/><text text-anchor="middle" pointer-events="none" font-family="sans-serif" dy="1.5625" font-size="25" fill="#FFFFFF"/><text text-anchor="middle" pointer-events="none" font-family="sans-serif" dy="1.5625" font-size="25" fill="#FFFFFF"/><text text-anchor="middle" pointer-events="none" x="0" y="0" font-size="10px" fill="#FFFFFF" font-family="sans-serif"> Hugo</text><text text-anchor="middle" pointer-events="none" x="0" y="10" font-size="10px" fill="#FFFFFF" font-family="sans-serif"> Weaving</text></g><g class="node" transform="translate(-25.000447432828295,61.732038320899406)"><circle class="outline" cx="0" cy="0" r="25" fill="#F79767" stroke="#f36924" stroke-width="2px"/><text text-anchor="middle" pointer-events="none" font-family="sans-serif" dy="1.5625" font-size="25" fill="#FFFFFF"/><text text-anchor="middle" pointer-events="none" font-family="sans-serif" dy="1.5625" font-size="25" fill="#FFFFFF"/><text text-anchor="middle" pointer-events="none" x="0" y="0" font-size="10px" fill="#FFFFFF" font-family="sans-serif"> Joe</text><text text-anchor="middle" pointer-events="none" x="0" y="10" font-size="10px" fill="#FFFFFF" font-family="sans-serif"> Johnston</text></g><g class="node" transform="translate(-26.84030069339794,151.9278434544018)"><circle class="outline" cx="0" cy="0" r="25" fill="#F79767" stroke="#f36924" stroke-width="2px"/><text text-anchor="middle" pointer-events="none" font-family="sans-serif" dy="1.5625" font-size="25" fill="#FFFFFF"/><text text-anchor="middle" pointer-events="none" font-family="sans-serif" dy="1.5625" font-size="25" fill="#FFFFFF"/><text text-anchor="middle" pointer-events="none" x="0" y="0" font-size="10px" fill="#FFFFFF" font-family="sans-serif"> Tommy</text><text text-anchor="middle" pointer-events="none" x="0" y="10" font-size="10px" fill="#FFFFFF" font-family="sans-serif"> Lee Jon…</text></g><g class="node" transform="translate(31.877351441985997,219.0307712713937)"><circle class="outline" cx="0" cy="0" r="25" fill="#F79767" stroke="#f36924" stroke-width="2px"/><text text-anchor="middle" pointer-events="none" font-family="sans-serif" dy="1.5625" font-size="25" fill="#FFFFFF"/><text text-anchor="middle" pointer-events="none" font-family="sans-serif" dy="1.5625" font-size="25" fill="#FFFFFF"/><text text-anchor="middle" pointer-events="none" x="0" y="0" font-size="10px" fill="#FFFFFF" font-family="sans-serif"> Hayley</text><text text-anchor="middle" pointer-events="none" x="0" y="10" font-size="10px" fill="#FFFFFF" font-family="sans-serif"> Atwell</text></g></g></svg>