<svg xmlns="http://www.w3.org/2000/svg" width="1025.3526611328125" height="1024.8809814453125" viewBox="-418.3977966308594 -391.7020568847656 1025.3526611328125 1024.8809814453125"><title>Neo4j Graph Visualization</title><desc>Created using Neo4j (http://www.neo4j.com/)</desc><g class="layer relationships"><g class="relationship" transform="translate(216.7780085166521 413.4894466702337) rotate(339.15641918967526)"><path class="outline" fill="#A5ABB6" stroke="none" d="M 25 0.5 L 52.591765064273076 0.5 L 52.591765064273076 -0.5 L 25 -0.5 Z M 98.15426506427308 0.5 L 125.74603012854615 0.5 L 125.74603012854615 3.5 L 132.74603012854615 0 L 125.74603012854615 -3.5 L 125.74603012854615 -0.5 L 98.15426506427308 -0.5 Z"/><text text-anchor="middle" pointer-events="none" font-size="8px" fill="#000000" x="75.37301506427308" y="3" font-family="sans-serif">ACTED_IN</text></g><g class="relationship" transform="translate(216.7780085166521 413.4894466702337) rotate(417.26573869016056)"><path class="outline" fill="#A5ABB6" stroke="none" d="M 25 0.5 L 48.32954812628208 0.5 L 48.32954812628208 -0.5 L 25 -0.5 Z M 93.89204812628208 0.5 L 117.22159625256415 0.5 L 117.22159625256415 3.5 L 124.22159625256415 0 L 117.22159625256415 -3.5 L 117.22159625256415 -0.5 L 93.89204812628208 -0.5 Z"/><text text-anchor="middle" pointer-events="none" font-size="8px" fill="#000000" x="71.11079812628208" y="3" font-family="sans-serif">ACTED_IN</text></g><g class="relationship" transform="translate(216.7780085166521 413.4894466702337) rotate(407.95947424637524)"><path class="outline" fill="#A5ABB6" stroke="none" d="M 25 0.5 L 25.121444852419017 0.5 L 25.121444852419017 -0.5 L 25 -0.5 Z M 60.45738235241902 0.5 L 60.578827204838035 0.5 L 60.578827204838035 3.5 L 67.57882720483803 0 L 60.578827204838035 -3.5 L 60.578827204838035 -0.5 L 60.45738235241902 -0.5 Z"/><text text-anchor="middle" pointer-events="none" font-size="8px" fill="#000000" x="42.78941360241902" y="3" font-family="sans-serif">ACTE…</text></g><g class="relationship" transform="translate(216.7780085166521 413.4894466702337) rotate(371.0543350062271)"><path class="outline" fill="#A5ABB6" stroke="none" d="M 25 0.5 L 27.12650148363499 0.5 L 27.12650148363499 -0.5 L 25 -0.5 Z M 62.46243898363499 0.5 L 64.58894046726998 0.5 L 64.58894046726998 3.5 L 71.58894046726998 0 L 64.58894046726998 -3.5 L 64.58894046726998 -0.5 L 62.46243898363499 -0.5 Z"/><text text-anchor="middle" pointer-events="none" font-size="8px" fill="#000000" x="44.79447023363499" y="3" font-family="sans-serif">ACTE…</text></g><g class="relationship" transform="translate(216.7780085166521 413.4894466702337) rotate(335.3419759427776)"><path class="outline" fill="#A5ABB6" stroke="none" d="M 25 0.5 L 25.19579933107355 0.5 L 25.19579933107355 -0.5 L 25 -0.5 Z M 66.30908058107354 0.5 L 66.5048799121471 0.5 L 66.5048799121471 3.5 L 73.5048799121471 0 L 66.5048799121471 -3.5 L 66.5048799121471 -0.5 L 66.30908058107354 -0.5 Z"/><text text-anchor="middle" pointer-events="none" font-size="8px" fill="#000000" x="45.75243995607355" y="3" font-family="sans-serif">ACTED…</text></g><g class="relationship" transform="translate(359.51233274028743 242.78379368723003) rotate(447.6569725238621)"><path class="outline" fill="#A5ABB6" stroke="none" d="M 25 0.5 L 30.39101681147173 0.5 L 30.39101681147173 -0.5 L 25 -0.5 Z M 77.28164181147173 0.5 L 82.67265862294346 0.5 L 82.67265862294346 3.5 L 89.67265862294346 0 L 82.67265862294346 -3.5 L 82.67265862294346 -0.5 L 77.28164181147173 -0.5 Z"/><text text-anchor="middle" pointer-events="none" font-size="8px" fill="#000000" x="53.83632931147173" y="3" font-family="sans-serif">DIRECTED</text></g><g class="relationship" transform="translate(385.17507353307604 491.73817386424804) rotate(511.6749071870419)"><path class="outline" fill="#A5ABB6" stroke="none" d="M 24.018736134675446,6.953439040707552 L 24.277555179777966,5.987513214418485 A 90.94427524002303 90.94427524002303 0 0 0 28.62368106234444,7.038258363838423 L 28.412650906329176,8.015737915160173 A 91.94427524002303 91.94427524002303 0 0 1 24.018736134675446,6.953439040707552 Z M 64.14758449097354,8.624231866988112 L 63.96995604381468,7.640134242379702 A 90.94427524002303 90.94427524002303 0 0 0 68.34933609334568,6.737966886556153 L 67.67198712165249,3.8154340175286423 L 75.28147094969208,5.644574764109953 L 69.25246805560327,10.634677378592833 L 68.57511908391008,7.712144509565324 A 91.94427524002303 91.94427524002303 0 0 1 64.14758449097354,8.624231866988112"/><text text-anchor="middle" pointer-events="none" font-size="8px" fill="#000000" x="46.25877950361003" y="12.573109889814646" transform="rotate(180 46.25877950361003 9.573109889814646)" font-family="sans-serif">WROTE</text></g><g class="relationship" transform="translate(385.17507353307604 491.73817386424804) rotate(261.1284238848468)"><path class="outline" fill="#A5ABB6" stroke="none" d="M 25 0.5 L 41.057029237753596 0.5 L 41.057029237753596 -0.5 L 25 -0.5 Z M 87.9476542377536 0.5 L 104.00468347550719 0.5 L 104.00468347550719 3.5 L 111.00468347550719 0 L 104.00468347550719 -3.5 L 104.00468347550719 -0.5 L 87.9476542377536 -0.5 Z"/><text text-anchor="middle" pointer-events="none" font-size="8px" fill="#000000" x="64.5023417377536" y="3" transform="rotate(180 64.5023417377536 0)" font-family="sans-serif">DIRECTED</text></g><g class="relationship" transform="translate(385.17507353307604 491.73817386424804) rotate(511.6749071870419)"><path class="outline" fill="#A5ABB6" stroke="none" d="M 24.018736134675446,-6.953439040707552 L 24.277555179777966,-5.987513214418485 A 90.94427524002303 90.94427524002303 0 0 1 25.179651505604866,-6.224278252915738 L 24.93075168107391,-7.192807487037484 A 91.94427524002303 91.94427524002303 0 0 0 24.018736134675446,-6.953439040707552 Z M 67.65548270407236,-7.920323612382717 L 67.43970181942959,-6.943881801611198 A 90.94427524002303 90.94427524002303 0 0 1 68.34933609334568,-6.737966886556153 L 67.67198712165249,-3.8154340175286423 L 75.28147094969208,-5.644574764109953 L 69.25246805560327,-10.634677378592833 L 68.57511908391008,-7.712144509565324 A 91.94427524002303 91.94427524002303 0 0 0 67.65548270407236,-7.920323612382717"/><text text-anchor="middle" pointer-events="none" font-size="8px" fill="#000000" x="46.258779503610036" y="-6.573109889814646" transform="rotate(180 46.258779503610036 -9.573109889814646)" font-family="sans-serif">PRODU…</text></g><g class="relationship" transform="translate(385.17507353307604 491.73817386424804) rotate(185.09841835838802)"><path class="outline" fill="#A5ABB6" stroke="none" d="M 25 0.5 L 26.466556208654765 0.5 L 26.466556208654765 -0.5 L 25 -0.5 Z M 73.35718120865477 0.5 L 74.82373741730953 0.5 L 74.82373741730953 3.5 L 81.82373741730953 0 L 74.82373741730953 -3.5 L 74.82373741730953 -0.5 L 73.35718120865477 -0.5 Z"/><text text-anchor="middle" pointer-events="none" font-size="8px" fill="#000000" x="49.911868708654765" y="3" transform="rotate(180 49.911868708654765 0)" font-family="sans-serif">DIRECTED</text></g><g class="relationship" transform="translate(385.17507353307604 491.73817386424804) rotate(219.06035035052184)"><path class="outline" fill="#A5ABB6" stroke="none" d="M 25 0.5 L 27.33672664586434 0.5 L 27.33672664586434 -0.5 L 25 -0.5 Z M 60.45000789586434 0.5 L 62.78673454172868 0.5 L 62.78673454172868 3.5 L 69.78673454172868 0 L 62.78673454172868 -3.5 L 62.78673454172868 -0.5 L 60.45000789586434 -0.5 Z"/><text text-anchor="middle" pointer-events="none" font-size="8px" fill="#000000" x="43.89336727086434" y="3" transform="rotate(180 43.89336727086434 0)" font-family="sans-serif">DIRE…</text></g><g class="relationship" transform="translate(385.17507353307604 491.73817386424804) rotate(236.539528421015)"><path class="outline" fill="#A5ABB6" stroke="none" d="M 25 0.5 L 44.58165864696139 0.5 L 44.58165864696139 -0.5 L 25 -0.5 Z M 91.47228364696139 0.5 L 111.05394229392277 0.5 L 111.05394229392277 3.5 L 118.05394229392277 0 L 111.05394229392277 -3.5 L 111.05394229392277 -0.5 L 91.47228364696139 -0.5 Z"/><text text-anchor="middle" pointer-events="none" font-size="8px" fill="#000000" x="68.02697114696139" y="3" transform="rotate(180 68.02697114696139 0)" font-family="sans-serif">DIRECTED</text></g><g class="relationship" transform="translate(407.1183607681818 436.10983194133405) rotate(496.81805555424955)"><path class="outline" fill="#A5ABB6" stroke="none" d="M 24.018736134675446,6.953439040707552 L 24.277555179777966,5.987513214418485 A 191.57141064436368 191.57141064436368 0 0 0 53.84762154943025,11.467005597052832 L 53.74315782420658,12.46153429453338 A 192.57141064436368 192.57141064436368 0 0 1 24.018736134675446,6.953439040707552 Z M 89.55552172340222,12.874444197761648 L 89.47401618257875,11.877771309189342 A 191.57141064436368 191.57141064436368 0 0 0 119.16255997169928,7.081519693765271 L 118.45312203833086,4.1666101207771264 L 126.08225529756636,5.911982778070287 L 120.10847721619052,10.968065791082797 L 119.3990392828221,8.053156218094653 A 192.57141064436368 192.57141064436368 0 0 1 89.55552172340222,12.874444197761648"/><text text-anchor="middle" pointer-events="none" font-size="8px" fill="#000000" x="71.64548424884727" y="16.00238534977092" transform="rotate(180 71.64548424884727 13.002385349770918)" font-family="sans-serif">WROTE</text></g><g class="relationship" transform="translate(407.1183607681818 436.10983194133405) rotate(496.81805555424955)"><path class="outline" fill="#A5ABB6" stroke="none" d="M 24.018736134675446,-6.953439040707552 L 24.277555179777966,-5.987513214418485 A 191.57141064436368 191.57141064436368 0 0 1 45.92789974555486,-10.46790633682889 L 45.78209518676297,-11.457219750583874 A 192.57141064436368 192.57141064436368 0 0 0 24.018736134675446,-6.953439040707552 Z M 97.53762405069992,-12.053951384242254 L 97.41466841974838,-11.06153921542463 A 191.57141064436368 191.57141064436368 0 0 1 119.16255997169928,-7.081519693765271 L 118.45312203833086,-4.1666101207771264 L 126.08225529756636,-5.911982778070287 L 120.10847721619052,-10.968065791082797 L 119.3990392828221,-8.053156218094653 A 192.57141064436368 192.57141064436368 0 0 0 97.53762405069992,-12.053951384242254"/><text text-anchor="middle" pointer-events="none" font-size="8px" fill="#000000" x="71.64548424884725" y="-10.002385349770918" transform="rotate(180 71.64548424884725 -13.002385349770918)" font-family="sans-serif">PRODUCED</text></g><g class="relationship" transform="translate(407.1183607681818 436.10983194133405) rotate(241.40982746200012)"><path class="outline" fill="#A5ABB6" stroke="none" d="M 25 0.5 L 27.45381850731784 0.5 L 27.45381850731784 -0.5 L 25 -0.5 Z M 55.23116225731784 0.5 L 57.68498076463568 0.5 L 57.68498076463568 3.5 L 64.68498076463568 0 L 57.68498076463568 -3.5 L 57.68498076463568 -0.5 L 55.23116225731784 -0.5 Z"/><text text-anchor="middle" pointer-events="none" font-size="8px" fill="#000000" x="41.34249038231784" y="3" transform="rotate(180 41.34249038231784 0)" font-family="sans-serif">DIR…</text></g><g class="relationship" transform="translate(407.1183607681818 436.10983194133405) rotate(520.2282859718979)"><path class="outline" fill="#A5ABB6" stroke="none" d="M 25 0.5 L 41.24695529077019 0.5 L 41.24695529077019 -0.5 L 25 -0.5 Z M 88.13758029077019 0.5 L 104.38453558154038 0.5 L 104.38453558154038 3.5 L 111.38453558154038 0 L 104.38453558154038 -3.5 L 104.38453558154038 -0.5 L 88.13758029077019 -0.5 Z"/><text text-anchor="middle" pointer-events="none" font-size="8px" fill="#000000" x="64.69226779077019" y="3" transform="rotate(180 64.69226779077019 0)" font-family="sans-serif">DIRECTED</text></g><g class="relationship" transform="translate(407.1183607681818 436.10983194133405) rotate(182.45745366320784)"><path class="outline" fill="#A5ABB6" stroke="none" d="M 25 0.5 L 27.759105240647514 0.5 L 27.759105240647514 -0.5 L 25 -0.5 Z M 60.872386490647514 0.5 L 63.63149173129503 0.5 L 63.63149173129503 3.5 L 70.63149173129503 0 L 63.63149173129503 -3.5 L 63.63149173129503 -0.5 L 60.872386490647514 -0.5 Z"/><text text-anchor="middle" pointer-events="none" font-size="8px" fill="#000000" x="44.315745865647514" y="3" transform="rotate(180 44.315745865647514 0)" font-family="sans-serif">DIRE…</text></g><g class="relationship" transform="translate(407.1183607681818 436.10983194133405) rotate(212.29286623400276)"><path class="outline" fill="#A5ABB6" stroke="none" d="M 25 0.5 L 32.686977386043836 0.5 L 32.686977386043836 -0.5 L 25 -0.5 Z M 79.57760238604384 0.5 L 87.26457977208767 0.5 L 87.26457977208767 3.5 L 94.26457977208767 0 L 87.26457977208767 -3.5 L 87.26457977208767 -0.5 L 79.57760238604384 -0.5 Z"/><text text-anchor="middle" pointer-events="none" font-size="8px" fill="#000000" x="56.132289886043836" y="3" transform="rotate(180 56.132289886043836 0)" font-family="sans-serif">DIRECTED</text></g><g class="relationship" transform="translate(193.49688050565138 604.1789492553924) rotate(327.9218310161525)"><path class="outline" fill="#A5ABB6" stroke="none" d="M 25 0.5 L 34.407655100980186 0.5 L 34.407655100980186 -0.5 L 25 -0.5 Z M 81.29828010098018 0.5 L 90.70593520196037 0.5 L 90.70593520196037 3.5 L 97.70593520196037 0 L 90.70593520196037 -3.5 L 90.70593520196037 -0.5 L 81.29828010098018 -0.5 Z"/><text text-anchor="middle" pointer-events="none" font-size="8px" fill="#000000" x="57.852967600980186" y="3" font-family="sans-serif">DIRECTED</text></g><g class="relationship" transform="translate(474.5107363475631 -144.8165740978175) rotate(524.7567575439065)"><path class="outline" fill="#A5ABB6" stroke="none" d="M 25 0.5 L 51.39419614406681 0.5 L 51.39419614406681 -0.5 L 25 -0.5 Z M 96.95669614406681 0.5 L 123.35089228813362 0.5 L 123.35089228813362 3.5 L 130.35089228813362 0 L 123.35089228813362 -3.5 L 123.35089228813362 -0.5 L 96.95669614406681 -0.5 Z"/><text text-anchor="middle" pointer-events="none" font-size="8px" fill="#000000" x="74.17544614406681" y="3" transform="rotate(180 74.17544614406681 0)" font-family="sans-serif">ACTED_IN</text></g><g class="relationship" transform="translate(474.5107363475631 -144.8165740978175) rotate(537.7596889362164)"><path class="outline" fill="#A5ABB6" stroke="none" d="M 25 0.5 L 25.136043634117506 0.5 L 25.136043634117506 -0.5 L 25 -0.5 Z M 70.6985436341175 0.5 L 70.83458726823501 0.5 L 70.83458726823501 3.5 L 77.83458726823501 0 L 70.83458726823501 -3.5 L 70.83458726823501 -0.5 L 70.6985436341175 -0.5 Z"/><text text-anchor="middle" pointer-events="none" font-size="8px" fill="#000000" x="47.917293634117506" y="3" transform="rotate(180 47.917293634117506 0)" font-family="sans-serif">ACTED_IN</text></g><g class="relationship" transform="translate(474.5107363475631 -144.8165740978175) rotate(502.5005260077855)"><path class="outline" fill="#A5ABB6" stroke="none" d="M 25 0.5 L 25.114474136082336 0.5 L 25.114474136082336 -0.5 L 25 -0.5 Z M 60.450411636082336 0.5 L 60.56488577216467 0.5 L 60.56488577216467 3.5 L 67.56488577216467 0 L 60.56488577216467 -3.5 L 60.56488577216467 -0.5 L 60.450411636082336 -0.5 Z"/><text text-anchor="middle" pointer-events="none" font-size="8px" fill="#000000" x="42.782442886082336" y="3" transform="rotate(180 42.782442886082336 0)" font-family="sans-serif">ACTE…</text></g><g class="relationship" transform="translate(474.5107363475631 -144.8165740978175) rotate(447.9165824494973)"><path class="outline" fill="#A5ABB6" stroke="none" d="M 25 0.5 L 46.47351314514846 0.5 L 46.47351314514846 -0.5 L 25 -0.5 Z M 92.03601314514846 0.5 L 113.50952629029692 0.5 L 113.50952629029692 3.5 L 120.50952629029692 0 L 113.50952629029692 -3.5 L 113.50952629029692 -0.5 L 92.03601314514846 -0.5 Z"/><text text-anchor="middle" pointer-events="none" font-size="8px" fill="#000000" x="69.25476314514846" y="3" font-family="sans-serif">ACTED_IN</text></g><g class="relationship" transform="translate(474.5107363475631 -144.8165740978175) rotate(461.6736906314127)"><path class="outline" fill="#A5ABB6" stroke="none" d="M 25 0.5 L 25.06592881008801 0.5 L 25.06592881008801 -0.5 L 25 -0.5 Z M 60.40186631008801 0.5 L 60.46779512017602 0.5 L 60.46779512017602 3.5 L 67.46779512017602 0 L 60.46779512017602 -3.5 L 60.46779512017602 -0.5 L 60.40186631008801 -0.5 Z"/><text text-anchor="middle" pointer-events="none" font-size="8px" fill="#000000" x="42.73389756008801" y="3" transform="rotate(180 42.73389756008801 0)" font-family="sans-serif">ACTE…</text></g><g class="relationship" transform="translate(331.69973239020106 -19.81965882647295) rotate(367.8490266085761)"><path class="outline" fill="#A5ABB6" stroke="none" d="M 24.018736134675446,-6.953439040707552 L 24.277555179777966,-5.987513214418485 A 189.8576986365978 189.8576986365978 0 0 1 53.41266746509241,-11.40000867008959 L 53.307306049016994,-12.3944426658895 A 190.8576986365978 190.8576986365978 0 0 0 24.018736134675446,-6.953439040707552 Z M 89.11954367568184,-12.809654257728681 L 89.03726666856295,-11.8130447584264 A 189.8576986365978 189.8576986365978 0 0 1 118.2900365429902,-7.077505759606651 L 117.58097349073097,-4.162504972656356 L 125.20988222125075,-5.90885876882685 L 119.23545394600248,-10.964173475540377 L 118.52639089374325,-8.049172688590083 A 190.8576986365978 190.8576986365978 0 0 0 89.11954367568184,-12.809654257728681"/><text text-anchor="middle" pointer-events="none" font-size="8px" fill="#000000" x="71.20946064580424" y="-9.943964409507629" font-family="sans-serif">WROTE</text></g><g class="relationship" transform="translate(331.69973239020106 -19.81965882647295) rotate(315.3014456615158)"><path class="outline" fill="#A5ABB6" stroke="none" d="M 25 0.5 L 25.85332604425885 0.5 L 25.85332604425885 -0.5 L 25 -0.5 Z M 64.74395104425885 0.5 L 65.5972770885177 0.5 L 65.5972770885177 3.5 L 72.5972770885177 0 L 65.5972770885177 -3.5 L 65.5972770885177 -0.5 L 64.74395104425885 -0.5 Z"/><text text-anchor="middle" pointer-events="none" font-size="8px" fill="#000000" x="45.29863854425885" y="3" font-family="sans-serif">DIREC…</text></g><g class="relationship" transform="translate(331.69973239020106 -19.81965882647295) rotate(344.4891083533181)"><path class="outline" fill="#A5ABB6" stroke="none" d="M 25 0.5 L 37.45065695146373 0.5 L 37.45065695146373 -0.5 L 25 -0.5 Z M 84.34128195146373 0.5 L 96.79193890292746 0.5 L 96.79193890292746 3.5 L 103.79193890292746 0 L 96.79193890292746 -3.5 L 96.79193890292746 -0.5 L 84.34128195146373 -0.5 Z"/><text text-anchor="middle" pointer-events="none" font-size="8px" fill="#000000" x="60.89596945146373" y="3" font-family="sans-serif">DIRECTED</text></g><g class="relationship" transform="translate(331.69973239020106 -19.81965882647295) rotate(265.1946544997226)"><path class="outline" fill="#A5ABB6" stroke="none" d="M 25 0.5 L 27.724647011522926 0.5 L 27.724647011522926 -0.5 L 25 -0.5 Z M 49.724647011522926 0.5 L 52.44929402304585 0.5 L 52.44929402304585 3.5 L 59.44929402304585 0 L 52.44929402304585 -3.5 L 52.44929402304585 -0.5 L 49.724647011522926 -0.5 Z"/><text text-anchor="middle" pointer-events="none" font-size="8px" fill="#000000" x="38.724647011522926" y="3" transform="rotate(180 38.724647011522926 0)" font-family="sans-serif">DI…</text></g><g class="relationship" transform="translate(331.69973239020106 -19.81965882647295) rotate(367.8490266085761)"><path class="outline" fill="#A5ABB6" stroke="none" d="M 24.018736134675446,6.953439040707552 L 24.277555179777966,5.987513214418485 A 189.8576986365978 189.8576986365978 0 0 0 45.494236058004034,10.39230054113267 L 45.34716745036381,11.381426834710368 A 190.8576986365978 190.8576986365978 0 0 1 24.018736134675446,6.953439040707552 Z M 97.101029407498,11.981467626103097 L 96.97693336038843,10.989197415378328 A 189.8576986365978 189.8576986365978 0 0 0 118.2900365429902,7.077505759606651 L 117.58097349073097,4.162504972656356 L 125.20988222125075,5.90885876882685 L 119.23545394600248,10.964173475540377 L 118.52639089374325,8.049172688590083 A 190.8576986365978 190.8576986365978 0 0 1 97.101029407498,11.981467626103097"/><text text-anchor="middle" pointer-events="none" font-size="8px" fill="#000000" x="71.20946064580427" y="15.943964409507629" font-family="sans-serif">PRODUCED</text></g><g class="relationship" transform="translate(331.69973239020106 -19.81965882647295) rotate(288.31950421383254)"><path class="outline" fill="#A5ABB6" stroke="none" d="M 25 0.5 L 36.77251252878644 0.5 L 36.77251252878644 -0.5 L 25 -0.5 Z M 83.66313752878645 0.5 L 95.43565005757289 0.5 L 95.43565005757289 3.5 L 102.43565005757289 0 L 95.43565005757289 -3.5 L 95.43565005757289 -0.5 L 83.66313752878645 -0.5 Z"/><text text-anchor="middle" pointer-events="none" font-size="8px" fill="#000000" x="60.21782502878644" y="3" font-family="sans-serif">DIRECTED</text></g><g class="relationship" transform="translate(384.00085819843423 9.171055683934192) rotate(279.918265144409)"><path class="outline" fill="#A5ABB6" stroke="none" d="M 25 0.5 L 26.614572293986363 0.5 L 26.614572293986363 -0.5 L 25 -0.5 Z M 65.50519729398636 0.5 L 67.11976958797273 0.5 L 67.11976958797273 3.5 L 74.11976958797273 0 L 67.11976958797273 -3.5 L 67.11976958797273 -0.5 L 65.50519729398636 -0.5 Z"/><text text-anchor="middle" pointer-events="none" font-size="8px" fill="#000000" x="46.05988479398636" y="3" font-family="sans-serif">DIREC…</text></g><g class="relationship" transform="translate(384.00085819843423 9.171055683934192) rotate(354.8855302647356)"><path class="outline" fill="#A5ABB6" stroke="none" d="M 24.018736134675446,-6.953439040707552 L 24.277555179777966,-5.987513214418485 A 83.99552229246173 83.99552229246173 0 0 1 26.278604191628634,-6.497413778719832 L 26.043608428496825,-7.469410173419988 A 84.99552229246173 84.99552229246173 0 0 0 24.018736134675446,-6.953439040707552 Z M 63.07139154706867,-8.121068559976408 L 62.87074338308674,-7.14140519213484 A 83.99552229246173 83.99552229246173 0 0 1 64.88849530524247,-6.702232203507135 L 64.21448440307314,-3.77892768571278 L 71.82187433045752,-5.6167575180777565 L 65.78717650813492,-10.599971560566274 L 65.11316560596559,-7.6766670427719195 A 84.99552229246173 84.99552229246173 0 0 0 63.07139154706867,-8.121068559976408"/><text text-anchor="middle" pointer-events="none" font-size="8px" fill="#000000" x="44.53037491873485" y="-6.336508833189043" font-family="sans-serif">PROD…</text></g><g class="relationship" transform="translate(384.00085819843423 9.171055683934192) rotate(354.8855302647356)"><path class="outline" fill="#A5ABB6" stroke="none" d="M 24.018736134675446,6.953439040707552 L 24.277555179777966,5.987513214418485 A 83.99552229246173 83.99552229246173 0 0 0 26.926526215511977,6.6513432850477585 L 26.699244220997826,7.62517227155908 A 84.99552229246173 84.99552229246173 0 0 1 24.018736134675446,6.953439040707552 Z M 62.41068089931487,8.253664048473794 L 62.21780621127535,7.2724406515281 A 83.99552229246173 83.99552229246173 0 0 0 64.88849530524247,6.702232203507135 L 64.21448440307314,3.77892768571278 L 71.82187433045752,5.6167575180777565 L 65.78717650813492,10.599971560566274 L 65.11316560596559,7.6766670427719195 A 84.99552229246173 84.99552229246173 0 0 1 62.41068089931487,8.253664048473794"/><text text-anchor="middle" pointer-events="none" font-size="8px" fill="#000000" x="44.53037491873484" y="12.336508833189043" font-family="sans-serif">WROTE</text></g><g class="relationship" transform="translate(384.00085819843423 9.171055683934192) rotate(265.3316826610364)"><path class="outline" fill="#A5ABB6" stroke="none" d="M 25 0.5 L 48.288140795568566 0.5 L 48.288140795568566 -0.5 L 25 -0.5 Z M 95.17876579556857 0.5 L 118.46690659113713 0.5 L 118.46690659113713 3.5 L 125.46690659113713 0 L 118.46690659113713 -3.5 L 118.46690659113713 -0.5 L 95.17876579556857 -0.5 Z"/><text text-anchor="middle" pointer-events="none" font-size="8px" fill="#000000" x="71.73345329556857" y="3" transform="rotate(180 71.73345329556857 0)" font-family="sans-serif">DIRECTED</text></g><g class="relationship" transform="translate(384.00085819843423 9.171055683934192) rotate(318.54074292680656)"><path class="outline" fill="#A5ABB6" stroke="none" d="M 25 0.5 L 27.84675128186651 0.5 L 27.84675128186651 -0.5 L 25 -0.5 Z M 60.96003253186651 0.5 L 63.80678381373302 0.5 L 63.80678381373302 3.5 L 70.80678381373302 0 L 63.80678381373302 -3.5 L 63.80678381373302 -0.5 L 60.96003253186651 -0.5 Z"/><text text-anchor="middle" pointer-events="none" font-size="8px" fill="#000000" x="44.40339190686651" y="3" font-family="sans-serif">DIRE…</text></g><g class="relationship" transform="translate(384.00085819843423 9.171055683934192) rotate(242.3103153628457)"><path class="outline" fill="#A5ABB6" stroke="none" d="M 25 0.5 L 36.942927943086794 0.5 L 36.942927943086794 -0.5 L 25 -0.5 Z M 83.8335529430868 0.5 L 95.77648088617359 0.5 L 95.77648088617359 3.5 L 102.77648088617359 0 L 95.77648088617359 -3.5 L 95.77648088617359 -0.5 L 83.8335529430868 -0.5 Z"/><text text-anchor="middle" pointer-events="none" font-size="8px" fill="#000000" x="60.388240443086794" y="3" transform="rotate(180 60.388240443086794 0)" font-family="sans-serif">DIRECTED</text></g><g class="relationship" transform="translate(326.8064923013574 -255.90726104616158) rotate(428.6704013694177)"><path class="outline" fill="#A5ABB6" stroke="none" d="M 25 0.5 L 34.84220826571954 0.5 L 34.84220826571954 -0.5 L 25 -0.5 Z M 81.73283326571953 0.5 L 91.57504153143908 0.5 L 91.57504153143908 3.5 L 98.57504153143908 0 L 91.57504153143908 -3.5 L 91.57504153143908 -0.5 L 81.73283326571953 -0.5 Z"/><text text-anchor="middle" pointer-events="none" font-size="8px" fill="#000000" x="58.28752076571954" y="3" font-family="sans-serif">DIRECTED</text></g><g class="relationship" transform="translate(577.9549213822029 66.89818446573838) rotate(214.03831143698164)"><path class="outline" fill="#A5ABB6" stroke="none" d="M 25 0.5 L 32.27912790192296 0.5 L 32.27912790192296 -0.5 L 25 -0.5 Z M 79.16975290192296 0.5 L 86.44888080384592 0.5 L 86.44888080384592 3.5 L 93.44888080384592 0 L 86.44888080384592 -3.5 L 86.44888080384592 -0.5 L 79.16975290192296 -0.5 Z"/><text text-anchor="middle" pointer-events="none" font-size="8px" fill="#000000" x="55.72444040192296" y="3" transform="rotate(180 55.72444040192296 0)" font-family="sans-serif">DIRECTED</text></g><g class="relationship" transform="translate(-209.67446012196638 -170.21485238901528) rotate(314.783571773366)"><path class="outline" fill="#A5ABB6" stroke="none" d="M 25 0.5 L 50.95116147310215 0.5 L 50.95116147310215 -0.5 L 25 -0.5 Z M 96.51366147310215 0.5 L 122.4648229462043 0.5 L 122.4648229462043 3.5 L 129.4648229462043 0 L 122.4648229462043 -3.5 L 122.4648229462043 -0.5 L 96.51366147310215 -0.5 Z"/><text text-anchor="middle" pointer-events="none" font-size="8px" fill="#000000" x="73.73241147310215" y="3" font-family="sans-serif">ACTED_IN</text></g><g class="relationship" transform="translate(-209.67446012196638 -170.21485238901528) rotate(327.1499411124311)"><path class="outline" fill="#A5ABB6" stroke="none" d="M 25 0.5 L 26.368113588124857 0.5 L 26.368113588124857 -0.5 L 25 -0.5 Z M 67.48139483812486 0.5 L 68.84950842624971 0.5 L 68.84950842624971 3.5 L 75.84950842624971 0 L 68.84950842624971 -3.5 L 68.84950842624971 -0.5 L 67.48139483812486 -0.5 Z"/><text text-anchor="middle" pointer-events="none" font-size="8px" fill="#000000" x="46.92475421312486" y="3" font-family="sans-serif">ACTED…</text></g><g class="relationship" transform="translate(-209.67446012196638 -170.21485238901528) rotate(292.7271403658301)"><path class="outline" fill="#A5ABB6" stroke="none" d="M 25 0.5 L 38.000162086665114 0.5 L 38.000162086665114 -0.5 L 25 -0.5 Z M 83.56266208666511 0.5 L 96.56282417333023 0.5 L 96.56282417333023 3.5 L 103.56282417333023 0 L 96.56282417333023 -3.5 L 96.56282417333023 -0.5 L 83.56266208666511 -0.5 Z"/><text text-anchor="middle" pointer-events="none" font-size="8px" fill="#000000" x="60.781412086665114" y="3" font-family="sans-serif">ACTED_IN</text></g><g class="relationship" transform="translate(-209.67446012196638 -170.21485238901528) rotate(362.62768268983507)"><path class="outline" fill="#A5ABB6" stroke="none" d="M 25 0.5 L 26.50342175992978 0.5 L 26.50342175992978 -0.5 L 25 -0.5 Z M 61.83935925992978 0.5 L 63.34278101985956 0.5 L 63.34278101985956 3.5 L 70.34278101985956 0 L 63.34278101985956 -3.5 L 63.34278101985956 -0.5 L 61.83935925992978 -0.5 Z"/><text text-anchor="middle" pointer-events="none" font-size="8px" fill="#000000" x="44.17139050992978" y="3" font-family="sans-serif">ACTE…</text></g><g class="relationship" transform="translate(-209.67446012196638 -170.21485238901528) rotate(399.0699155117811)"><path class="outline" fill="#A5ABB6" stroke="none" d="M 25 0.5 L 26.90535183915739 0.5 L 26.90535183915739 -0.5 L 25 -0.5 Z M 62.24128933915739 0.5 L 64.14664117831478 0.5 L 64.14664117831478 3.5 L 71.14664117831478 0 L 64.14664117831478 -3.5 L 64.14664117831478 -0.5 L 62.24128933915739 -0.5 Z"/><text text-anchor="middle" pointer-events="none" font-size="8px" fill="#000000" x="44.57332058915739" y="3" font-family="sans-serif">ACTE…</text></g><g class="relationship" transform="translate(-3.8730893528879435 -362.7020438037058) rotate(499.4953497697472)"><path class="outline" fill="#A5ABB6" stroke="none" d="M 25 0.5 L 36.83530704773086 0.5 L 36.83530704773086 -0.5 L 25 -0.5 Z M 83.72593204773085 0.5 L 95.56123909546172 0.5 L 95.56123909546172 3.5 L 102.56123909546172 0 L 95.56123909546172 -3.5 L 95.56123909546172 -0.5 L 83.72593204773085 -0.5 Z"/><text text-anchor="middle" pointer-events="none" font-size="8px" fill="#000000" x="60.28061954773086" y="3" transform="rotate(180 60.28061954773086 0)" font-family="sans-serif">DIRECTED</text></g><g class="relationship" transform="translate(-29.132674636244378 -206.42519044203792) rotate(190.92474180688464)"><path class="outline" fill="#A5ABB6" stroke="none" d="M 25 0.5 L 25.848387322486715 0.5 L 25.848387322486715 -0.5 L 25 -0.5 Z M 64.73901232248672 0.5 L 65.58739964497343 0.5 L 65.58739964497343 3.5 L 72.58739964497343 0 L 65.58739964497343 -3.5 L 65.58739964497343 -0.5 L 64.73901232248672 -0.5 Z"/><text text-anchor="middle" pointer-events="none" font-size="8px" fill="#000000" x="45.293699822486715" y="3" transform="rotate(180 45.293699822486715 0)" font-family="sans-serif">DIREC…</text></g><g class="relationship" transform="translate(-29.132674636244378 -206.42519044203792) rotate(514.5570837249508)"><path class="outline" fill="#A5ABB6" stroke="none" d="M 25 0.5 L 27.173677625618396 0.5 L 27.173677625618396 -0.5 L 25 -0.5 Z M 60.286958875618396 0.5 L 62.46063650123679 0.5 L 62.46063650123679 3.5 L 69.46063650123679 0 L 62.46063650123679 -3.5 L 62.46063650123679 -0.5 L 60.286958875618396 -0.5 Z"/><text text-anchor="middle" pointer-events="none" font-size="8px" fill="#000000" x="43.730318250618396" y="3" transform="rotate(180 43.730318250618396 0)" font-family="sans-serif">DIRE…</text></g><g class="relationship" transform="translate(-29.132674636244378 -206.42519044203792) rotate(225.66805412435434)"><path class="outline" fill="#A5ABB6" stroke="none" d="M 24.018736134675446,-6.953439040707552 L 24.277555179777966,-5.987513214418485 A 96.99058463111393 96.99058463111393 0 0 1 26.652620594500117,-6.5918552126614 L 26.418289136762443,-7.56401197363904 A 97.99058463111393 97.99058463111393 0 0 0 24.018736134675446,-6.953439040707552 Z M 69.17619166853268,-8.27204731344466 L 68.97417607626824,-7.292665007865253 A 96.99058463111393 96.99058463111393 0 0 1 71.36794864933466,-6.767291004431083 L 70.68786048237429,-3.8453943455534163 L 78.29905554787595,-5.66740139133648 L 72.2747328719485,-10.663153216267974 L 71.59464470498813,-7.741256557390306 A 97.99058463111393 97.99058463111393 0 0 0 69.17619166853268,-8.27204731344466"/><text text-anchor="middle" pointer-events="none" font-size="8px" fill="#000000" x="47.76642388671417" y="-6.7790237360269" transform="rotate(180 47.76642388671417 -9.7790237360269)" font-family="sans-serif">PRODU…</text></g><g class="relationship" transform="translate(-29.132674636244378 -206.42519044203792) rotate(212.18604047737188)"><path class="outline" fill="#A5ABB6" stroke="none" d="M 25 0.5 L 50.37294747626683 0.5 L 50.37294747626683 -0.5 L 25 -0.5 Z M 97.26357247626683 0.5 L 122.63651995253366 0.5 L 122.63651995253366 3.5 L 129.63651995253366 0 L 122.63651995253366 -3.5 L 122.63651995253366 -0.5 L 97.26357247626683 -0.5 Z"/><text text-anchor="middle" pointer-events="none" font-size="8px" fill="#000000" x="73.81825997626683" y="3" transform="rotate(180 73.81825997626683 0)" font-family="sans-serif">DIRECTED</text></g><g class="relationship" transform="translate(-29.132674636244378 -206.42519044203792) rotate(497.5668396156312)"><path class="outline" fill="#A5ABB6" stroke="none" d="M 25 0.5 L 44.79342808059039 0.5 L 44.79342808059039 -0.5 L 25 -0.5 Z M 91.68405308059039 0.5 L 111.47748116118078 0.5 L 111.47748116118078 3.5 L 118.47748116118078 0 L 111.47748116118078 -3.5 L 111.47748116118078 -0.5 L 91.68405308059039 -0.5 Z"/><text text-anchor="middle" pointer-events="none" font-size="8px" fill="#000000" x="68.23874058059039" y="3" transform="rotate(180 68.23874058059039 0)" font-family="sans-serif">DIRECTED</text></g><g class="relationship" transform="translate(-29.132674636244378 -206.42519044203792) rotate(225.66805412435434)"><path class="outline" fill="#A5ABB6" stroke="none" d="M 24.018736134675446,6.953439040707552 L 24.277555179777966,5.987513214418485 A 96.99058463111393 96.99058463111393 0 0 0 30.108764093395536,7.358476080188581 L 29.91006643982597,8.338536916293137 A 97.99058463111393 97.99058463111393 0 0 1 24.018736134675446,6.953439040707552 Z M 65.66068482635625,8.930537452773109 L 65.49454519967982,7.944435214438869 A 96.99058463111393 96.99058463111393 0 0 0 71.36794864933466,6.767291004431083 L 70.68786048237429,3.8453943455534163 L 78.29905554787595,5.66740139133648 L 72.2747328719485,10.663153216267974 L 71.59464470498813,7.741256557390306 A 97.99058463111393 97.99058463111393 0 0 1 65.66068482635625,8.930537452773109"/><text text-anchor="middle" pointer-events="none" font-size="8px" fill="#000000" x="47.76642388671422" y="12.7790237360269" transform="rotate(180 47.76642388671422 9.7790237360269)" font-family="sans-serif">WROTE</text></g><g class="relationship" transform="translate(-221.97778816946132 -228.76531716822336) rotate(337.13040342321665)"><path class="outline" fill="#A5ABB6" stroke="none" d="M 24.018736134675446,-6.953439040707552 L 24.277555179777966,-5.987513214418485 A 154.26847489191277 154.26847489191277 0 0 1 36.526723199886746,-8.740775351013951 L 36.34730578255484,-9.724548389045566 A 155.26847489191277 155.26847489191277 0 0 0 24.018736134675446,-6.953439040707552 Z M 88.04944496631425,-10.402301932745189 L 87.89587695811305,-9.414163851879408 A 154.26847489191277 154.26847489191277 0 0 1 100.21300746614865,-6.982936666755768 L 99.5127769177365,-4.065801568912267 L 107.13636111918551,-5.835254570101322 L 101.14664819736485,-10.872450130547103 L 100.4464176489527,-7.955315032703601 A 155.26847489191277 155.26847489191277 0 0 0 88.04944496631425,-10.402301932745189"/><text text-anchor="middle" pointer-events="none" font-size="8px" fill="#000000" x="62.176518231486845" y="-8.73078796164532" font-family="sans-serif">PRODUCED</text></g><g class="relationship" transform="translate(-221.97778816946132 -228.76531716822336) rotate(413.87968388524985)"><path class="outline" fill="#A5ABB6" stroke="none" d="M 25 0.5 L 46.805278129910846 0.5 L 46.805278129910846 -0.5 L 25 -0.5 Z M 93.69590312991085 0.5 L 115.50118125982169 0.5 L 115.50118125982169 3.5 L 122.50118125982169 0 L 115.50118125982169 -3.5 L 115.50118125982169 -0.5 L 93.69590312991085 -0.5 Z"/><text text-anchor="middle" pointer-events="none" font-size="8px" fill="#000000" x="70.25059062991085" y="3" font-family="sans-serif">DIRECTED</text></g><g class="relationship" transform="translate(-221.97778816946132 -228.76531716822336) rotate(337.13040342321665)"><path class="outline" fill="#A5ABB6" stroke="none" d="M 24.018736134675446,6.953439040707552 L 24.277555179777966,5.987513214418485 A 154.26847489191277 154.26847489191277 0 0 0 44.408818723155676,9.968637216489583 L 44.28049467100283,10.960369507805666 A 155.26847489191277 155.26847489191277 0 0 1 24.018736134675446,6.953439040707552 Z M 80.08658737933776,11.429744790960967 L 79.98430381630497,10.434989508123351 A 154.26847489191277 154.26847489191277 0 0 0 100.21300746614865,6.982936666755768 L 99.5127769177365,4.065801568912267 L 107.13636111918551,5.835254570101322 L 101.14664819736485,10.872450130547103 L 100.4464176489527,7.955315032703601 A 155.26847489191277 155.26847489191277 0 0 1 80.08658737933776,11.429744790960967"/><text text-anchor="middle" pointer-events="none" font-size="8px" fill="#000000" x="62.17651823148686" y="14.73078796164532" font-family="sans-serif">WROTE</text></g><g class="relationship" transform="translate(-221.97778816946132 -228.76531716822336) rotate(390.3304869860854)"><path class="outline" fill="#A5ABB6" stroke="none" d="M 25 0.5 L 35.35482599547148 0.5 L 35.35482599547148 -0.5 L 25 -0.5 Z M 82.24545099547149 0.5 L 92.60027699094296 0.5 L 92.60027699094296 3.5 L 99.60027699094296 0 L 92.60027699094296 -3.5 L 92.60027699094296 -0.5 L 82.24545099547149 -0.5 Z"/><text text-anchor="middle" pointer-events="none" font-size="8px" fill="#000000" x="58.80013849547148" y="3" font-family="sans-serif">DIRECTED</text></g><g class="relationship" transform="translate(-221.97778816946132 -228.76531716822336) rotate(362.2695994311591)"><path class="outline" fill="#A5ABB6" stroke="none" d="M 25 0.5 L 25.605920494907686 0.5 L 25.605920494907686 -0.5 L 25 -0.5 Z M 64.49654549490768 0.5 L 65.10246598981537 0.5 L 65.10246598981537 3.5 L 72.10246598981537 0 L 65.10246598981537 -3.5 L 65.10246598981537 -0.5 L 64.49654549490768 -0.5 Z"/><text text-anchor="middle" pointer-events="none" font-size="8px" fill="#000000" x="45.051232994907686" y="3" font-family="sans-serif">DIREC…</text></g><g class="relationship" transform="translate(-221.97778816946132 -228.76531716822336) rotate(315.91219718347907)"><path class="outline" fill="#A5ABB6" stroke="none" d="M 25 0.5 L 25.75129813431409 0.5 L 25.75129813431409 -0.5 L 25 -0.5 Z M 53.52864188431409 0.5 L 54.27994001862818 0.5 L 54.27994001862818 3.5 L 61.27994001862818 0 L 54.27994001862818 -3.5 L 54.27994001862818 -0.5 L 53.52864188431409 -0.5 Z"/><text text-anchor="middle" pointer-events="none" font-size="8px" fill="#000000" x="39.63997000931409" y="3" font-family="sans-serif">DIR…</text></g><g class="relationship" transform="translate(-41.4445202533507 -33.65540128696001) rotate(219.0659655862761)"><path class="outline" fill="#A5ABB6" stroke="none" d="M 25 0.5 L 33.32087541140035 0.5 L 33.32087541140035 -0.5 L 25 -0.5 Z M 80.21150041140035 0.5 L 88.5323758228007 0.5 L 88.5323758228007 3.5 L 95.5323758228007 0 L 88.5323758228007 -3.5 L 88.5323758228007 -0.5 L 80.21150041140035 -0.5 Z"/><text text-anchor="middle" pointer-events="none" font-size="8px" fill="#000000" x="56.76618791140035" y="3" transform="rotate(180 56.76618791140035 0)" font-family="sans-serif">DIRECTED</text></g><g class="relationship" transform="translate(-175.13705658144463 252.8492892473375) rotate(523.8422201684543)"><path class="outline" fill="#A5ABB6" stroke="none" d="M 25 0.5 L 26.30517226780512 0.5 L 26.30517226780512 -0.5 L 25 -0.5 Z M 71.86767226780512 0.5 L 73.17284453561024 0.5 L 73.17284453561024 3.5 L 80.17284453561024 0 L 73.17284453561024 -3.5 L 73.17284453561024 -0.5 L 71.86767226780512 -0.5 Z"/><text text-anchor="middle" pointer-events="none" font-size="8px" fill="#000000" x="49.08642226780512" y="3" transform="rotate(180 49.08642226780512 0)" font-family="sans-serif">ACTED_IN</text></g><g class="relationship" transform="translate(-175.13705658144463 252.8492892473375) rotate(445.99849601298854)"><path class="outline" fill="#A5ABB6" stroke="none" d="M 25 0.5 L 26.64708995303463 0.5 L 26.64708995303463 -0.5 L 25 -0.5 Z M 67.76037120303462 0.5 L 69.40746115606926 0.5 L 69.40746115606926 3.5 L 76.40746115606926 0 L 69.40746115606926 -3.5 L 69.40746115606926 -0.5 L 67.76037120303462 -0.5 Z"/><text text-anchor="middle" pointer-events="none" font-size="8px" fill="#000000" x="47.20373057803463" y="3" font-family="sans-serif">ACTED…</text></g><g class="relationship" transform="translate(-175.13705658144463 252.8492892473375) rotate(482.42988620437404)"><path class="outline" fill="#A5ABB6" stroke="none" d="M 25 0.5 L 25.381778938836845 0.5 L 25.381778938836845 -0.5 L 25 -0.5 Z M 70.94427893883685 0.5 L 71.32605787767369 0.5 L 71.32605787767369 3.5 L 78.32605787767369 0 L 71.32605787767369 -3.5 L 71.32605787767369 -0.5 L 70.94427893883685 -0.5 Z"/><text text-anchor="middle" pointer-events="none" font-size="8px" fill="#000000" x="48.163028938836845" y="3" transform="rotate(180 48.163028938836845 0)" font-family="sans-serif">ACTED_IN</text></g><g class="relationship" transform="translate(-175.13705658144463 252.8492892473375) rotate(289.42518069988)"><path class="outline" fill="#A5ABB6" stroke="none" d="M 25 0.5 L 27.15787526769536 0.5 L 27.15787526769536 -0.5 L 25 -0.5 Z M 68.27115651769536 0.5 L 70.42903178539072 0.5 L 70.42903178539072 3.5 L 77.42903178539072 0 L 70.42903178539072 -3.5 L 70.42903178539072 -0.5 L 68.27115651769536 -0.5 Z"/><text text-anchor="middle" pointer-events="none" font-size="8px" fill="#000000" x="47.71451589269536" y="3" font-family="sans-serif">ACTED…</text></g><g class="relationship" transform="translate(-175.13705658144463 252.8492892473375) rotate(325.8115437347235)"><path class="outline" fill="#A5ABB6" stroke="none" d="M 25 0.5 L 26.362522125301062 0.5 L 26.362522125301062 -0.5 L 25 -0.5 Z M 71.92502212530107 0.5 L 73.28754425060212 0.5 L 73.28754425060212 3.5 L 80.28754425060212 0 L 73.28754425060212 -3.5 L 73.28754425060212 -0.5 L 71.92502212530107 -0.5 Z"/><text text-anchor="middle" pointer-events="none" font-size="8px" fill="#000000" x="49.14377212530106" y="3" font-family="sans-serif">ACTED_IN</text></g><g class="relationship" transform="translate(-389.3977844341489 243.44680842928057) rotate(378.8541696295452)"><path class="outline" fill="#A5ABB6" stroke="none" d="M 25 0.5 L 32.886152842148114 0.5 L 32.886152842148114 -0.5 L 25 -0.5 Z M 79.7767778421481 0.5 L 87.66293068429623 0.5 L 87.66293068429623 3.5 L 94.66293068429623 0 L 87.66293068429623 -3.5 L 87.66293068429623 -0.5 L 79.7767778421481 -0.5 Z"/><text text-anchor="middle" pointer-events="none" font-size="8px" fill="#000000" x="56.331465342148114" y="3" font-family="sans-serif">DIRECTED</text></g><g class="relationship" transform="translate(-220.8348390334802 214.01613888446693) rotate(454.4062931820672)"><path class="outline" fill="#A5ABB6" stroke="none" d="M 24.018736134675446,-6.953439040707552 L 24.277555179777966,-5.987513214418485 A 144.3242090421958 144.3242090421958 0 0 1 41.90517761472344,-9.550795246782712 L 41.768497624128344,-10.541410500133338 A 145.3242090421958 145.3242090421958 0 0 0 24.018736134675446,-6.953439040707552 Z M 77.57093750348443,-11.0284524281073 L 77.46125496360148,-10.034485758422221 A 144.3242090421958 144.3242090421958 0 0 1 95.179283307733,-6.9520316796540325 L 94.48193929910582,-4.034205205438718 L 102.10376908233992,-5.811200071893165 L 96.1090753192359,-10.842466978607785 L 95.41173131060872,-7.924640504392471 A 145.3242090421958 145.3242090421958 0 0 0 77.57093750348443,-11.0284524281073"/><text text-anchor="middle" pointer-events="none" font-size="8px" fill="#000000" x="59.661461386951764" y="-8.391842817112945" transform="rotate(180 59.661461386951764 -11.391842817112945)" font-family="sans-serif">WROTE</text></g><g class="relationship" transform="translate(-220.8348390334802 214.01613888446693) rotate(429.3447209430642)"><path class="outline" fill="#A5ABB6" stroke="none" d="M 25 0.5 L 47.85989406146372 0.5 L 47.85989406146372 -0.5 L 25 -0.5 Z M 94.75051906146372 0.5 L 117.61041312292744 0.5 L 117.61041312292744 3.5 L 124.61041312292744 0 L 117.61041312292744 -3.5 L 117.61041312292744 -0.5 L 94.75051906146372 -0.5 Z"/><text text-anchor="middle" pointer-events="none" font-size="8px" fill="#000000" x="71.30520656146372" y="3" font-family="sans-serif">DIRECTED</text></g><g class="relationship" transform="translate(-220.8348390334802 214.01613888446693) rotate(324.0875790958126)"><path class="outline" fill="#A5ABB6" stroke="none" d="M 25 0.5 L 26.29641741077029 0.5 L 26.29641741077029 -0.5 L 25 -0.5 Z M 65.18704241077029 0.5 L 66.48345982154058 0.5 L 66.48345982154058 3.5 L 73.48345982154058 0 L 66.48345982154058 -3.5 L 66.48345982154058 -0.5 L 65.18704241077029 -0.5 Z"/><text text-anchor="middle" pointer-events="none" font-size="8px" fill="#000000" x="45.74172991077029" y="3" font-family="sans-serif">DIREC…</text></g><g class="relationship" transform="translate(-220.8348390334802 214.01613888446693) rotate(351.2958659131002)"><path class="outline" fill="#A5ABB6" stroke="none" d="M 25 0.5 L 40.2237691536606 0.5 L 40.2237691536606 -0.5 L 25 -0.5 Z M 87.1143941536606 0.5 L 102.3381633073212 0.5 L 102.3381633073212 3.5 L 109.3381633073212 0 L 102.3381633073212 -3.5 L 102.3381633073212 -0.5 L 87.1143941536606 -0.5 Z"/><text text-anchor="middle" pointer-events="none" font-size="8px" fill="#000000" x="63.6690816536606" y="3" font-family="sans-serif">DIRECTED</text></g><g class="relationship" transform="translate(-220.8348390334802 214.01613888446693) rotate(489.08806155530783)"><path class="outline" fill="#A5ABB6" stroke="none" d="M 25 0.5 L 26.480791989059462 0.5 L 26.480791989059462 -0.5 L 25 -0.5 Z M 54.25813573905946 0.5 L 55.738927728118924 0.5 L 55.738927728118924 3.5 L 62.738927728118924 0 L 55.738927728118924 -3.5 L 55.738927728118924 -0.5 L 54.25813573905946 -0.5 Z"/><text text-anchor="middle" pointer-events="none" font-size="8px" fill="#000000" x="40.36946386405946" y="3" transform="rotate(180 40.36946386405946 0)" font-family="sans-serif">DIR…</text></g><g class="relationship" transform="translate(-220.8348390334802 214.01613888446693) rotate(454.4062931820672)"><path class="outline" fill="#A5ABB6" stroke="none" d="M 24.018736134675446,6.953439040707552 L 24.277555179777966,5.987513214418485 A 144.3242090421958 144.3242090421958 0 0 0 34.03789947781388,8.24286749747256 L 33.84670834048103,9.224420322849454 A 145.3242090421958 145.3242090421958 0 0 1 24.018736134675446,6.953439040707552 Z M 85.52562032636686,9.927439363284037 L 85.36120029384377,8.941048947218917 A 144.3242090421958 144.3242090421958 0 0 0 95.179283307733,6.9520316796540325 L 94.48193929910582,4.034205205438718 L 102.10376908233992,5.811200071893165 L 96.1090753192359,10.842466978607785 L 95.41173131060872,7.924640504392471 A 145.3242090421958 145.3242090421958 0 0 1 85.52562032636686,9.927439363284037"/><text text-anchor="middle" pointer-events="none" font-size="8px" fill="#000000" x="59.661461386951785" y="14.391842817112945" transform="rotate(180 59.661461386951785 11.391842817112945)" font-family="sans-serif">PRODUCED</text></g><g class="relationship" transform="translate(-124.46986656305617 284.9666844870201) rotate(262.65055534302894)"><path class="outline" fill="#A5ABB6" stroke="none" d="M 25 0.5 L 37.94571336583357 0.5 L 37.94571336583357 -0.5 L 25 -0.5 Z M 84.83633836583357 0.5 L 97.78205173166714 0.5 L 97.78205173166714 3.5 L 104.78205173166714 0 L 97.78205173166714 -3.5 L 97.78205173166714 -0.5 L 84.83633836583357 -0.5 Z"/><text text-anchor="middle" pointer-events="none" font-size="8px" fill="#000000" x="61.39102586583357" y="3" transform="rotate(180 61.39102586583357 0)" font-family="sans-serif">DIRECTED</text></g><g class="relationship" transform="translate(-124.46986656305617 284.9666844870201) rotate(291.75481702740933)"><path class="outline" fill="#A5ABB6" stroke="none" d="M 25 0.5 L 26.19462667899871 0.5 L 26.19462667899871 -0.5 L 25 -0.5 Z M 65.0852516789987 0.5 L 66.27987835799742 0.5 L 66.27987835799742 3.5 L 73.27987835799742 0 L 66.27987835799742 -3.5 L 66.27987835799742 -0.5 L 65.0852516789987 -0.5 Z"/><text text-anchor="middle" pointer-events="none" font-size="8px" fill="#000000" x="45.63993917899871" y="3" font-family="sans-serif">DIREC…</text></g><g class="relationship" transform="translate(-124.46986656305617 284.9666844870201) rotate(482.2665628673813)"><path class="outline" fill="#A5ABB6" stroke="none" d="M 25 0.5 L 26.326051309522732 0.5 L 26.326051309522732 -0.5 L 25 -0.5 Z M 48.32605130952273 0.5 L 49.652102619045465 0.5 L 49.652102619045465 3.5 L 56.652102619045465 0 L 49.652102619045465 -3.5 L 49.652102619045465 -0.5 L 48.32605130952273 -0.5 Z"/><text text-anchor="middle" pointer-events="none" font-size="8px" fill="#000000" x="37.32605130952273" y="3" transform="rotate(180 37.32605130952273 0)" font-family="sans-serif">DI…</text></g><g class="relationship" transform="translate(-124.46986656305617 284.9666844870201) rotate(512.5534410993859)"><path class="outline" fill="#A5ABB6" stroke="none" d="M 24.018736134675446,-6.953439040707552 L 24.277555179777966,-5.987513214418485 A 130.66814394369231 130.66814394369231 0 0 1 30.63691242214735,-7.521962887154146 L 30.426761377143688,-8.499631817970652 A 131.66814394369231 131.66814394369231 0 0 0 24.018736134675446,-6.953439040707552 Z M 82.0632184981477,-9.240378960334624 L 81.88119831954025,-8.257084164975822 A 130.66814394369231 130.66814394369231 0 0 1 88.28195431953881,-6.905683793983993 L 87.5889393124853,-3.986826106463304 L 95.20812475826267,-5.775125058779249 L 89.2059743289435,-10.797494044011577 L 88.51295932188998,-7.878636356490889 A 131.66814394369231 131.66814394369231 0 0 0 82.0632184981477,-9.240378960334624"/><text text-anchor="middle" pointer-events="none" font-size="8px" fill="#000000" x="56.215489676900816" y="-7.926427698323209" transform="rotate(180 56.215489676900816 -10.92642769832321)" font-family="sans-serif">PRODUCED</text></g><g class="relationship" transform="translate(-124.46986656305617 284.9666844870201) rotate(181.07622129951312)"><path class="outline" fill="#A5ABB6" stroke="none" d="M 25 0.5 L 48.91087048156635 0.5 L 48.91087048156635 -0.5 L 25 -0.5 Z M 95.80149548156635 0.5 L 119.7123659631327 0.5 L 119.7123659631327 3.5 L 126.7123659631327 0 L 119.7123659631327 -3.5 L 119.7123659631327 -0.5 L 95.80149548156635 -0.5 Z"/><text text-anchor="middle" pointer-events="none" font-size="8px" fill="#000000" x="72.35618298156635" y="3" transform="rotate(180 72.35618298156635 0)" font-family="sans-serif">DIRECTED</text></g><g class="relationship" transform="translate(-124.46986656305617 284.9666844870201) rotate(512.5534410993859)"><path class="outline" fill="#A5ABB6" stroke="none" d="M 24.018736134675446,6.953439040707552 L 24.277555179777966,5.987513214418485 A 130.66814394369231 130.66814394369231 0 0 0 38.47852479555574,8.958777901698284 L 38.328385411671164,9.947442741472997 A 131.66814394369231 131.66814394369231 0 0 1 24.018736134675446,6.953439040707552 Z M 74.12331557434482,10.460936379640003 L 74.00159777933591,9.468371631939277 A 130.66814394369231 130.66814394369231 0 0 0 88.28195431953881,6.905683793983993 L 87.5889393124853,3.986826106463304 L 95.20812475826267,5.775125058779249 L 89.2059743289435,10.797494044011577 L 88.51295932188998,7.878636356490889 A 131.66814394369231 131.66814394369231 0 0 1 74.12331557434482,10.460936379640003"/><text text-anchor="middle" pointer-events="none" font-size="8px" fill="#000000" x="56.21548967690081" y="13.92642769832321" transform="rotate(180 56.21548967690081 10.92642769832321)" font-family="sans-serif">WROTE</text></g><g class="relationship" transform="translate(-227.6023536711297 462.3761114122372) rotate(268.6207080794172)"><path class="outline" fill="#A5ABB6" stroke="none" d="M 25 0.5 L 34.22973114691086 0.5 L 34.22973114691086 -0.5 L 25 -0.5 Z M 81.12035614691086 0.5 L 90.35008729382172 0.5 L 90.35008729382172 3.5 L 97.35008729382172 0 L 90.35008729382172 -3.5 L 90.35008729382172 -0.5 L 81.12035614691086 -0.5 Z"/><text text-anchor="middle" pointer-events="none" font-size="8px" fill="#000000" x="57.67504364691086" y="3" transform="rotate(180 57.67504364691086 0)" font-family="sans-serif">DIRECTED</text></g></g><g class="layer nodes"><g class="node" transform="translate(216.7780085166521,413.4894466702337)"><circle class="outline" cx="0" cy="0" r="25" fill="#F79767" stroke="#f36924" stroke-width="2px"/><text text-anchor="middle" pointer-events="none" font-family="sans-serif" dy="1.5625" font-size="25" fill="#FFFFFF"/><text text-anchor="middle" pointer-events="none" font-family="sans-serif" dy="1.5625" font-size="25" fill="#FFFFFF"/><text text-anchor="middle" pointer-events="none" x="0" y="0" font-size="10px" fill="#FFFFFF" font-family="sans-serif"> Hugo</text><text text-anchor="middle" pointer-events="none" x="0" y="10" font-size="10px" fill="#FFFFFF" font-family="sans-serif"> Weaving</text></g><g class="node" transform="translate(364.200397259918,357.3605831636066)"><circle class="outline" cx="0" cy="0" r="25" fill="#57C7E3" stroke="#23b3d7" stroke-width="2px"/><text text-anchor="middle" pointer-events="none" font-family="sans-serif" dy="1.5625" font-size="25" fill="#2A2C34"/><text text-anchor="middle" pointer-events="none" font-family="sans-serif" dy="1.5625" font-size="25" fill="#2A2C34"/><text text-anchor="middle" pointer-events="none" x="0" y="0" font-size="10px" fill="#2A2C34" font-family="sans-serif"> Cloud</text><text text-anchor="middle" pointer-events="none" x="0" y="10" font-size="10px" fill="#2A2C34" font-family="sans-serif"> Atlas</text></g><g class="node" transform="translate(359.51233274028743,242.78379368723003)"><circle class="outline" cx="0" cy="0" r="25" fill="#F79767" stroke="#f36924" stroke-width="2px"/><text text-anchor="middle" pointer-events="none" font-family="sans-serif" dy="1.5625" font-size="25" fill="#FFFFFF"/><text text-anchor="middle" pointer-events="none" font-family="sans-serif" dy="1.5625" font-size="25" fill="#FFFFFF"/><text text-anchor="middle" pointer-events="none" x="0" y="0" font-size="10px" fill="#FFFFFF" font-family="sans-serif"> Tom</text><text text-anchor="middle" pointer-events="none" x="0" y="10" font-size="10px" fill="#FFFFFF" font-family="sans-serif"> Tykwer</text></g><g class="node" transform="translate(385.17507353307604,491.73817386424804)"><circle class="outline" cx="0" cy="0" r="25" fill="#F79767" stroke="#f36924" stroke-width="2px"/><text text-anchor="middle" pointer-events="none" font-family="sans-serif" dy="1.5625" font-size="25" fill="#FFFFFF"/><text text-anchor="middle" pointer-events="none" font-family="sans-serif" dy="1.5625" font-size="25" fill="#FFFFFF"/><text text-anchor="middle" pointer-events="none" x="0" y="0" font-size="10px" fill="#FFFFFF" font-family="sans-serif"> Lana</text><text text-anchor="middle" pointer-events="none" x="0" y="10" font-size="10px" fill="#FFFFFF" font-family="sans-serif"> Wacho…</text></g><g class="node" transform="translate(407.1183607681818,436.10983194133405)"><circle class="outline" cx="0" cy="0" r="25" fill="#F79767" stroke="#f36924" stroke-width="2px"/><text text-anchor="middle" pointer-events="none" font-family="sans-serif" dy="1.5625" font-size="25" fill="#FFFFFF"/><text text-anchor="middle" pointer-events="none" font-family="sans-serif" dy="1.5625" font-size="25" fill="#FFFFFF"/><text text-anchor="middle" pointer-events="none" x="0" y="0" font-size="10px" fill="#FFFFFF" font-family="sans-serif"> Andy</text><text text-anchor="middle" pointer-events="none" x="0" y="10" font-size="10px" fill="#FFFFFF" font-family="sans-serif"> Wacho…</text></g><g class="node" transform="translate(297.46860545429183,539.0128004893961)"><circle class="outline" cx="0" cy="0" r="25" fill="#57C7E3" stroke="#23b3d7" stroke-width="2px"/><text text-anchor="middle" pointer-events="none" font-family="sans-serif" dy="1.5625" font-size="25" fill="#2A2C34"/><text text-anchor="middle" pointer-events="none" font-family="sans-serif" dy="1.5625" font-size="25" fill="#2A2C34"/><text text-anchor="middle" pointer-events="none" x="0" y="0" font-size="10px" fill="#2A2C34" font-family="sans-serif"> V for</text><text text-anchor="middle" pointer-events="none" x="0" y="10" font-size="10px" fill="#2A2C34" font-family="sans-serif"> Vendetta</text></g><g class="node" transform="translate(193.49688050565138,604.1789492553924)"><circle class="outline" cx="0" cy="0" r="25" fill="#F79767" stroke="#f36924" stroke-width="2px"/><text text-anchor="middle" pointer-events="none" font-family="sans-serif" dy="1.5625" font-size="25" fill="#FFFFFF"/><text text-anchor="middle" pointer-events="none" font-family="sans-serif" dy="1.5625" font-size="25" fill="#FFFFFF"/><text text-anchor="middle" pointer-events="none" x="0" y="0" font-size="10px" fill="#FFFFFF" font-family="sans-serif"> James</text><text text-anchor="middle" pointer-events="none" x="0" y="10" font-size="10px" fill="#FFFFFF" font-family="sans-serif"> Marshall</text></g><g class="node" transform="translate(278.7739822090477,482.24509002083477)"><circle class="outline" cx="0" cy="0" r="25" fill="#57C7E3" stroke="#23b3d7" stroke-width="2px"/><text text-anchor="middle" pointer-events="none" font-family="sans-serif" dy="1.5625" font-size="25" fill="#2A2C34"/><text text-anchor="middle" pointer-events="none" font-family="sans-serif" dy="1.5625" font-size="25" fill="#2A2C34"/><text text-anchor="middle" pointer-events="none" font-family="sans-serif" dy="1.5625" font-size="25" fill="#2A2C34"/><text text-anchor="middle" pointer-events="none" x="0" y="-5" font-size="10px" fill="#2A2C34" font-family="sans-serif"> The</text><text text-anchor="middle" pointer-events="none" x="0" y="5" font-size="10px" fill="#2A2C34" font-family="sans-serif"> Matrix</text><text text-anchor="middle" pointer-events="none" x="0" y="15" font-size="10px" fill="#2A2C34" font-family="sans-serif"> Revol…</text></g><g class="node" transform="translate(311.57481780617024,432.0093918406858)"><circle class="outline" cx="0" cy="0" r="25" fill="#57C7E3" stroke="#23b3d7" stroke-width="2px"/><text text-anchor="middle" pointer-events="none" font-family="sans-serif" dy="1.5625" font-size="25" fill="#2A2C34"/><text text-anchor="middle" pointer-events="none" font-family="sans-serif" dy="1.5625" font-size="25" fill="#2A2C34"/><text text-anchor="middle" pointer-events="none" font-family="sans-serif" dy="1.5625" font-size="25" fill="#2A2C34"/><text text-anchor="middle" pointer-events="none" x="0" y="-5" font-size="10px" fill="#2A2C34" font-family="sans-serif"> The</text><text text-anchor="middle" pointer-events="none" x="0" y="5" font-size="10px" fill="#2A2C34" font-family="sans-serif"> Matrix</text><text text-anchor="middle" pointer-events="none" x="0" y="15" font-size="10px" fill="#2A2C34" font-family="sans-serif"> Reloa…</text></g><g class="node" transform="translate(306.3006294230862,372.39307563154694)"><circle class="outline" cx="0" cy="0" r="25" fill="#57C7E3" stroke="#23b3d7" stroke-width="2px"/><text text-anchor="middle" pointer-events="none" font-family="sans-serif" dy="1.5625" font-size="25" fill="#2A2C34"/><text text-anchor="middle" pointer-events="none" font-family="sans-serif" dy="1.5625" font-size="25" fill="#2A2C34"/><text text-anchor="middle" pointer-events="none" x="0" y="0" font-size="10px" fill="#2A2C34" font-family="sans-serif"> The</text><text text-anchor="middle" pointer-events="none" x="0" y="10" font-size="10px" fill="#2A2C34" font-family="sans-serif"> Matrix</text></g><g class="node" transform="translate(474.5107363475631,-144.8165740978175)"><circle class="outline" cx="0" cy="0" r="25" fill="#F79767" stroke="#f36924" stroke-width="2px"/><text text-anchor="middle" pointer-events="none" font-family="sans-serif" dy="1.5625" font-size="25" fill="#FFFFFF"/><text text-anchor="middle" pointer-events="none" font-family="sans-serif" dy="1.5625" font-size="25" fill="#FFFFFF"/><text text-anchor="middle" pointer-events="none" x="0" y="0" font-size="10px" fill="#FFFFFF" font-family="sans-serif"> Hugo</text><text text-anchor="middle" pointer-events="none" x="0" y="10" font-size="10px" fill="#FFFFFF" font-family="sans-serif"> Weaving</text></g><g class="node" transform="translate(324.62534642803234,-103.97211763932712)"><circle class="outline" cx="0" cy="0" r="25" fill="#57C7E3" stroke="#23b3d7" stroke-width="2px"/><text text-anchor="middle" pointer-events="none" font-family="sans-serif" dy="1.5625" font-size="25" fill="#2A2C34"/><text text-anchor="middle" pointer-events="none" font-family="sans-serif" dy="1.5625" font-size="25" fill="#2A2C34"/><text text-anchor="middle" pointer-events="none" font-family="sans-serif" dy="1.5625" font-size="25" fill="#2A2C34"/><text text-anchor="middle" pointer-events="none" x="0" y="-5" font-size="10px" fill="#2A2C34" font-family="sans-serif"> The</text><text text-anchor="middle" pointer-events="none" x="0" y="5" font-size="10px" fill="#2A2C34" font-family="sans-serif"> Matrix</text><text text-anchor="middle" pointer-events="none" x="0" y="15" font-size="10px" fill="#2A2C34" font-family="sans-serif"> Revol…</text></g><g class="node" transform="translate(331.69973239020106,-19.81965882647295)"><circle class="outline" cx="0" cy="0" r="25" fill="#F79767" stroke="#f36924" stroke-width="2px"/><text text-anchor="middle" pointer-events="none" font-family="sans-serif" dy="1.5625" font-size="25" fill="#FFFFFF"/><text text-anchor="middle" pointer-events="none" font-family="sans-serif" dy="1.5625" font-size="25" fill="#FFFFFF"/><text text-anchor="middle" pointer-events="none" x="0" y="0" font-size="10px" fill="#FFFFFF" font-family="sans-serif"> Lana</text><text text-anchor="middle" pointer-events="none" x="0" y="10" font-size="10px" fill="#FFFFFF" font-family="sans-serif"> Wacho…</text></g><g class="node" transform="translate(384.00085819843423,9.171055683934192)"><circle class="outline" cx="0" cy="0" r="25" fill="#F79767" stroke="#f36924" stroke-width="2px"/><text text-anchor="middle" pointer-events="none" font-family="sans-serif" dy="1.5625" font-size="25" fill="#FFFFFF"/><text text-anchor="middle" pointer-events="none" font-family="sans-serif" dy="1.5625" font-size="25" fill="#FFFFFF"/><text text-anchor="middle" pointer-events="none" x="0" y="0" font-size="10px" fill="#FFFFFF" font-family="sans-serif"> Lilly</text><text text-anchor="middle" pointer-events="none" x="0" y="10" font-size="10px" fill="#FFFFFF" font-family="sans-serif"> Wacho…</text></g><g class="node" transform="translate(371.75474957118007,-140.796683522188)"><circle class="outline" cx="0" cy="0" r="25" fill="#57C7E3" stroke="#23b3d7" stroke-width="2px"/><text text-anchor="middle" pointer-events="none" font-family="sans-serif" dy="1.5625" font-size="25" fill="#2A2C34"/><text text-anchor="middle" pointer-events="none" font-family="sans-serif" dy="1.5625" font-size="25" fill="#2A2C34"/><text text-anchor="middle" pointer-events="none" x="0" y="0" font-size="10px" fill="#2A2C34" font-family="sans-serif"> Cloud</text><text text-anchor="middle" pointer-events="none" x="0" y="10" font-size="10px" fill="#2A2C34" font-family="sans-serif"> Atlas</text></g><g class="node" transform="translate(326.8064923013574,-255.90726104616158)"><circle class="outline" cx="0" cy="0" r="25" fill="#F79767" stroke="#f36924" stroke-width="2px"/><text text-anchor="middle" pointer-events="none" font-family="sans-serif" dy="1.5625" font-size="25" fill="#FFFFFF"/><text text-anchor="middle" pointer-events="none" font-family="sans-serif" dy="1.5625" font-size="25" fill="#FFFFFF"/><text text-anchor="middle" pointer-events="none" x="0" y="0" font-size="10px" fill="#FFFFFF" font-family="sans-serif"> Tom</text><text text-anchor="middle" pointer-events="none" x="0" y="10" font-size="10px" fill="#FFFFFF" font-family="sans-serif"> Tykwer</text></g><g class="node" transform="translate(401.0735577052648,-88.4673161517446)"><circle class="outline" cx="0" cy="0" r="25" fill="#57C7E3" stroke="#23b3d7" stroke-width="2px"/><text text-anchor="middle" pointer-events="none" font-family="sans-serif" dy="1.5625" font-size="25" fill="#2A2C34"/><text text-anchor="middle" pointer-events="none" font-family="sans-serif" dy="1.5625" font-size="25" fill="#2A2C34"/><text text-anchor="middle" pointer-events="none" font-family="sans-serif" dy="1.5625" font-size="25" fill="#2A2C34"/><text text-anchor="middle" pointer-events="none" x="0" y="-5" font-size="10px" fill="#2A2C34" font-family="sans-serif"> The</text><text text-anchor="middle" pointer-events="none" x="0" y="5" font-size="10px" fill="#2A2C34" font-family="sans-serif"> Matrix</text><text text-anchor="middle" pointer-events="none" x="0" y="15" font-size="10px" fill="#2A2C34" font-family="sans-serif"> Reloa…</text></g><g class="node" transform="translate(479.80065997787494,0.5967641803888628)"><circle class="outline" cx="0" cy="0" r="25" fill="#57C7E3" stroke="#23b3d7" stroke-width="2px"/><text text-anchor="middle" pointer-events="none" font-family="sans-serif" dy="1.5625" font-size="25" fill="#2A2C34"/><text text-anchor="middle" pointer-events="none" font-family="sans-serif" dy="1.5625" font-size="25" fill="#2A2C34"/><text text-anchor="middle" pointer-events="none" x="0" y="0" font-size="10px" fill="#2A2C34" font-family="sans-serif"> V for</text><text text-anchor="middle" pointer-events="none" x="0" y="10" font-size="10px" fill="#2A2C34" font-family="sans-serif"> Vendetta</text></g><g class="node" transform="translate(577.9549213822029,66.89818446573838)"><circle class="outline" cx="0" cy="0" r="25" fill="#F79767" stroke="#f36924" stroke-width="2px"/><text text-anchor="middle" pointer-events="none" font-family="sans-serif" dy="1.5625" font-size="25" fill="#FFFFFF"/><text text-anchor="middle" pointer-events="none" font-family="sans-serif" dy="1.5625" font-size="25" fill="#FFFFFF"/><text text-anchor="middle" pointer-events="none" x="0" y="0" font-size="10px" fill="#FFFFFF" font-family="sans-serif"> James</text><text text-anchor="middle" pointer-events="none" x="0" y="10" font-size="10px" fill="#FFFFFF" font-family="sans-serif"> Marshall</text></g><g class="node" transform="translate(455.8010218812483,-54.26139909950048)"><circle class="outline" cx="0" cy="0" r="25" fill="#57C7E3" stroke="#23b3d7" stroke-width="2px"/><text text-anchor="middle" pointer-events="none" font-family="sans-serif" dy="1.5625" font-size="25" fill="#2A2C34"/><text text-anchor="middle" pointer-events="none" font-family="sans-serif" dy="1.5625" font-size="25" fill="#2A2C34"/><text text-anchor="middle" pointer-events="none" x="0" y="0" font-size="10px" fill="#2A2C34" font-family="sans-serif"> The</text><text text-anchor="middle" pointer-events="none" x="0" y="10" font-size="10px" fill="#2A2C34" font-family="sans-serif"> Matrix</text></g><g class="node" transform="translate(-209.67446012196638,-170.21485238901528)"><circle class="outline" cx="0" cy="0" r="25" fill="#F79767" stroke="#f36924" stroke-width="2px"/><text text-anchor="middle" pointer-events="none" font-family="sans-serif" dy="1.5625" font-size="25" fill="#FFFFFF"/><text text-anchor="middle" pointer-events="none" font-family="sans-serif" dy="1.5625" font-size="25" fill="#FFFFFF"/><text text-anchor="middle" pointer-events="none" x="0" y="0" font-size="10px" fill="#FFFFFF" font-family="sans-serif"> Hugo</text><text text-anchor="middle" pointer-events="none" x="0" y="10" font-size="10px" fill="#FFFFFF" font-family="sans-serif"> Weaving</text></g><g class="node" transform="translate(-100.86469241810421,-279.8497737418114)"><circle class="outline" cx="0" cy="0" r="25" fill="#57C7E3" stroke="#23b3d7" stroke-width="2px"/><text text-anchor="middle" pointer-events="none" font-family="sans-serif" dy="1.5625" font-size="25" fill="#2A2C34"/><text text-anchor="middle" pointer-events="none" font-family="sans-serif" dy="1.5625" font-size="25" fill="#2A2C34"/><text text-anchor="middle" pointer-events="none" x="0" y="0" font-size="10px" fill="#2A2C34" font-family="sans-serif"> V for</text><text text-anchor="middle" pointer-events="none" x="0" y="10" font-size="10px" fill="#2A2C34" font-family="sans-serif"> Vendetta</text></g><g class="node" transform="translate(-3.8730893528879435,-362.7020438037058)"><circle class="outline" cx="0" cy="0" r="25" fill="#F79767" stroke="#f36924" stroke-width="2px"/><text text-anchor="middle" pointer-events="none" font-family="sans-serif" dy="1.5625" font-size="25" fill="#FFFFFF"/><text text-anchor="middle" pointer-events="none" font-family="sans-serif" dy="1.5625" font-size="25" fill="#FFFFFF"/><text text-anchor="middle" pointer-events="none" x="0" y="0" font-size="10px" fill="#FFFFFF" font-family="sans-serif"> James</text><text text-anchor="middle" pointer-events="none" x="0" y="10" font-size="10px" fill="#FFFFFF" font-family="sans-serif"> Marshall</text></g><g class="node" transform="translate(-124.95149440401543,-224.91990178823545)"><circle class="outline" cx="0" cy="0" r="25" fill="#57C7E3" stroke="#23b3d7" stroke-width="2px"/><text text-anchor="middle" pointer-events="none" font-family="sans-serif" dy="1.5625" font-size="25" fill="#2A2C34"/><text text-anchor="middle" pointer-events="none" font-family="sans-serif" dy="1.5625" font-size="25" fill="#2A2C34"/><text text-anchor="middle" pointer-events="none" font-family="sans-serif" dy="1.5625" font-size="25" fill="#2A2C34"/><text text-anchor="middle" pointer-events="none" x="0" y="-5" font-size="10px" fill="#2A2C34" font-family="sans-serif"> The</text><text text-anchor="middle" pointer-events="none" x="0" y="5" font-size="10px" fill="#2A2C34" font-family="sans-serif"> Matrix</text><text text-anchor="middle" pointer-events="none" x="0" y="15" font-size="10px" fill="#2A2C34" font-family="sans-serif"> Reloa…</text></g><g class="node" transform="translate(-29.132674636244378,-206.42519044203792)"><circle class="outline" cx="0" cy="0" r="25" fill="#F79767" stroke="#f36924" stroke-width="2px"/><text text-anchor="middle" pointer-events="none" font-family="sans-serif" dy="1.5625" font-size="25" fill="#FFFFFF"/><text text-anchor="middle" pointer-events="none" font-family="sans-serif" dy="1.5625" font-size="25" fill="#FFFFFF"/><text text-anchor="middle" pointer-events="none" x="0" y="0" font-size="10px" fill="#FFFFFF" font-family="sans-serif"> Lana</text><text text-anchor="middle" pointer-events="none" x="0" y="10" font-size="10px" fill="#FFFFFF" font-family="sans-serif"> Wacho…</text></g><g class="node" transform="translate(-221.97778816946132,-228.76531716822336)"><circle class="outline" cx="0" cy="0" r="25" fill="#F79767" stroke="#f36924" stroke-width="2px"/><text text-anchor="middle" pointer-events="none" font-family="sans-serif" dy="1.5625" font-size="25" fill="#FFFFFF"/><text text-anchor="middle" pointer-events="none" font-family="sans-serif" dy="1.5625" font-size="25" fill="#FFFFFF"/><text text-anchor="middle" pointer-events="none" x="0" y="0" font-size="10px" fill="#FFFFFF" font-family="sans-serif"> Andy</text><text text-anchor="middle" pointer-events="none" x="0" y="10" font-size="10px" fill="#FFFFFF" font-family="sans-serif"> Wacho…</text></g><g class="node" transform="translate(-160.0051135952367,-288.7954400711071)"><circle class="outline" cx="0" cy="0" r="25" fill="#57C7E3" stroke="#23b3d7" stroke-width="2px"/><text text-anchor="middle" pointer-events="none" font-family="sans-serif" dy="1.5625" font-size="25" fill="#2A2C34"/><text text-anchor="middle" pointer-events="none" font-family="sans-serif" dy="1.5625" font-size="25" fill="#2A2C34"/><text text-anchor="middle" pointer-events="none" x="0" y="0" font-size="10px" fill="#2A2C34" font-family="sans-serif"> The</text><text text-anchor="middle" pointer-events="none" x="0" y="10" font-size="10px" fill="#2A2C34" font-family="sans-serif"> Matrix</text></g><g class="node" transform="translate(-114.43192861546564,-165.84380161899375)"><circle class="outline" cx="0" cy="0" r="25" fill="#57C7E3" stroke="#23b3d7" stroke-width="2px"/><text text-anchor="middle" pointer-events="none" font-family="sans-serif" dy="1.5625" font-size="25" fill="#2A2C34"/><text text-anchor="middle" pointer-events="none" font-family="sans-serif" dy="1.5625" font-size="25" fill="#2A2C34"/><text text-anchor="middle" pointer-events="none" font-family="sans-serif" dy="1.5625" font-size="25" fill="#2A2C34"/><text text-anchor="middle" pointer-events="none" x="0" y="-5" font-size="10px" fill="#2A2C34" font-family="sans-serif"> The</text><text text-anchor="middle" pointer-events="none" x="0" y="5" font-size="10px" fill="#2A2C34" font-family="sans-serif"> Matrix</text><text text-anchor="middle" pointer-events="none" x="0" y="15" font-size="10px" fill="#2A2C34" font-family="sans-serif"> Revol…</text></g><g class="node" transform="translate(-135.02837590768362,-109.61667814798867)"><circle class="outline" cx="0" cy="0" r="25" fill="#57C7E3" stroke="#23b3d7" stroke-width="2px"/><text text-anchor="middle" pointer-events="none" font-family="sans-serif" dy="1.5625" font-size="25" fill="#2A2C34"/><text text-anchor="middle" pointer-events="none" font-family="sans-serif" dy="1.5625" font-size="25" fill="#2A2C34"/><text text-anchor="middle" pointer-events="none" x="0" y="0" font-size="10px" fill="#2A2C34" font-family="sans-serif"> Cloud</text><text text-anchor="middle" pointer-events="none" x="0" y="10" font-size="10px" fill="#2A2C34" font-family="sans-serif"> Atlas</text></g><g class="node" transform="translate(-41.4445202533507,-33.65540128696001)"><circle class="outline" cx="0" cy="0" r="25" fill="#F79767" stroke="#f36924" stroke-width="2px"/><text text-anchor="middle" pointer-events="none" font-family="sans-serif" dy="1.5625" font-size="25" fill="#FFFFFF"/><text text-anchor="middle" pointer-events="none" font-family="sans-serif" dy="1.5625" font-size="25" fill="#FFFFFF"/><text text-anchor="middle" pointer-events="none" x="0" y="0" font-size="10px" fill="#FFFFFF" font-family="sans-serif"> Tom</text><text text-anchor="middle" pointer-events="none" x="0" y="10" font-size="10px" fill="#FFFFFF" font-family="sans-serif"> Tykwer</text></g><g class="node" transform="translate(-175.13705658144463,252.8492892473375)"><circle class="outline" cx="0" cy="0" r="25" fill="#F79767" stroke="#f36924" stroke-width="2px"/><text text-anchor="middle" pointer-events="none" font-family="sans-serif" dy="1.5625" font-size="25" fill="#FFFFFF"/><text text-anchor="middle" pointer-events="none" font-family="sans-serif" dy="1.5625" font-size="25" fill="#FFFFFF"/><text text-anchor="middle" pointer-events="none" x="0" y="0" font-size="10px" fill="#FFFFFF" font-family="sans-serif"> Hugo</text><text text-anchor="middle" pointer-events="none" x="0" y="10" font-size="10px" fill="#FFFFFF" font-family="sans-serif"> Weaving</text></g><g class="node" transform="translate(-276.1554694446371,282.1171468784185)"><circle class="outline" cx="0" cy="0" r="25" fill="#57C7E3" stroke="#23b3d7" stroke-width="2px"/><text text-anchor="middle" pointer-events="none" font-family="sans-serif" dy="1.5625" font-size="25" fill="#2A2C34"/><text text-anchor="middle" pointer-events="none" font-family="sans-serif" dy="1.5625" font-size="25" fill="#2A2C34"/><text text-anchor="middle" pointer-events="none" x="0" y="0" font-size="10px" fill="#2A2C34" font-family="sans-serif"> Cloud</text><text text-anchor="middle" pointer-events="none" x="0" y="10" font-size="10px" fill="#2A2C34" font-family="sans-serif"> Atlas</text></g><g class="node" transform="translate(-389.3977844341489,243.44680842928057)"><circle class="outline" cx="0" cy="0" r="25" fill="#F79767" stroke="#f36924" stroke-width="2px"/><text text-anchor="middle" pointer-events="none" font-family="sans-serif" dy="1.5625" font-size="25" fill="#FFFFFF"/><text text-anchor="middle" pointer-events="none" font-family="sans-serif" dy="1.5625" font-size="25" fill="#FFFFFF"/><text text-anchor="middle" pointer-events="none" x="0" y="0" font-size="10px" fill="#FFFFFF" font-family="sans-serif"> Tom</text><text text-anchor="middle" pointer-events="none" x="0" y="10" font-size="10px" fill="#FFFFFF" font-family="sans-serif"> Tykwer</text></g><g class="node" transform="translate(-220.8348390334802,214.01613888446693)"><circle class="outline" cx="0" cy="0" r="25" fill="#F79767" stroke="#f36924" stroke-width="2px"/><text text-anchor="middle" pointer-events="none" font-family="sans-serif" dy="1.5625" font-size="25" fill="#FFFFFF"/><text text-anchor="middle" pointer-events="none" font-family="sans-serif" dy="1.5625" font-size="25" fill="#FFFFFF"/><text text-anchor="middle" pointer-events="none" x="0" y="0" font-size="10px" fill="#FFFFFF" font-family="sans-serif"> Andy</text><text text-anchor="middle" pointer-events="none" x="0" y="10" font-size="10px" fill="#FFFFFF" font-family="sans-serif"> Wacho…</text></g><g class="node" transform="translate(-124.46986656305617,284.9666844870201)"><circle class="outline" cx="0" cy="0" r="25" fill="#F79767" stroke="#f36924" stroke-width="2px"/><text text-anchor="middle" pointer-events="none" font-family="sans-serif" dy="1.5625" font-size="25" fill="#FFFFFF"/><text text-anchor="middle" pointer-events="none" font-family="sans-serif" dy="1.5625" font-size="25" fill="#FFFFFF"/><text text-anchor="middle" pointer-events="none" x="0" y="0" font-size="10px" fill="#FFFFFF" font-family="sans-serif"> Lana</text><text text-anchor="middle" pointer-events="none" x="0" y="10" font-size="10px" fill="#FFFFFF" font-family="sans-serif"> Wacho…</text></g><g class="node" transform="translate(-168.06057426882643,354.0095412053022)"><circle class="outline" cx="0" cy="0" r="25" fill="#57C7E3" stroke="#23b3d7" stroke-width="2px"/><text text-anchor="middle" pointer-events="none" font-family="sans-serif" dy="1.5625" font-size="25" fill="#2A2C34"/><text text-anchor="middle" pointer-events="none" font-family="sans-serif" dy="1.5625" font-size="25" fill="#2A2C34"/><text text-anchor="middle" pointer-events="none" font-family="sans-serif" dy="1.5625" font-size="25" fill="#2A2C34"/><text text-anchor="middle" pointer-events="none" x="0" y="-5" font-size="10px" fill="#2A2C34" font-family="sans-serif"> The</text><text text-anchor="middle" pointer-events="none" x="0" y="5" font-size="10px" fill="#2A2C34" font-family="sans-serif"> Matrix</text><text text-anchor="middle" pointer-events="none" x="0" y="15" font-size="10px" fill="#2A2C34" font-family="sans-serif"> Reloa…</text></g><g class="node" transform="translate(-230.54742552835614,340.0614744608013)"><circle class="outline" cx="0" cy="0" r="25" fill="#57C7E3" stroke="#23b3d7" stroke-width="2px"/><text text-anchor="middle" pointer-events="none" font-family="sans-serif" dy="1.5625" font-size="25" fill="#2A2C34"/><text text-anchor="middle" pointer-events="none" font-family="sans-serif" dy="1.5625" font-size="25" fill="#2A2C34"/><text text-anchor="middle" pointer-events="none" x="0" y="0" font-size="10px" fill="#2A2C34" font-family="sans-serif"> V for</text><text text-anchor="middle" pointer-events="none" x="0" y="10" font-size="10px" fill="#2A2C34" font-family="sans-serif"> Vendetta</text></g><g class="node" transform="translate(-227.6023536711297,462.3761114122372)"><circle class="outline" cx="0" cy="0" r="25" fill="#F79767" stroke="#f36924" stroke-width="2px"/><text text-anchor="middle" pointer-events="none" font-family="sans-serif" dy="1.5625" font-size="25" fill="#FFFFFF"/><text text-anchor="middle" pointer-events="none" font-family="sans-serif" dy="1.5625" font-size="25" fill="#FFFFFF"/><text text-anchor="middle" pointer-events="none" x="0" y="0" font-size="10px" fill="#FFFFFF" font-family="sans-serif"> James</text><text text-anchor="middle" pointer-events="none" x="0" y="10" font-size="10px" fill="#FFFFFF" font-family="sans-serif"> Marshall</text></g><g class="node" transform="translate(-141.07165649176991,156.2508675768828)"><circle class="outline" cx="0" cy="0" r="25" fill="#57C7E3" stroke="#23b3d7" stroke-width="2px"/><text text-anchor="middle" pointer-events="none" font-family="sans-serif" dy="1.5625" font-size="25" fill="#2A2C34"/><text text-anchor="middle" pointer-events="none" font-family="sans-serif" dy="1.5625" font-size="25" fill="#2A2C34"/><text text-anchor="middle" pointer-events="none" x="0" y="0" font-size="10px" fill="#2A2C34" font-family="sans-serif"> The</text><text text-anchor="middle" pointer-events="none" x="0" y="10" font-size="10px" fill="#2A2C34" font-family="sans-serif"> Matrix</text></g><g class="node" transform="translate(-88.04385234967916,193.68645673429356)"><circle class="outline" cx="0" cy="0" r="25" fill="#57C7E3" stroke="#23b3d7" stroke-width="2px"/><text text-anchor="middle" pointer-events="none" font-family="sans-serif" dy="1.5625" font-size="25" fill="#2A2C34"/><text text-anchor="middle" pointer-events="none" font-family="sans-serif" dy="1.5625" font-size="25" fill="#2A2C34"/><text text-anchor="middle" pointer-events="none" font-family="sans-serif" dy="1.5625" font-size="25" fill="#2A2C34"/><text text-anchor="middle" pointer-events="none" x="0" y="-5" font-size="10px" fill="#2A2C34" font-family="sans-serif"> The</text><text text-anchor="middle" pointer-events="none" x="0" y="5" font-size="10px" fill="#2A2C34" font-family="sans-serif"> Matrix</text><text text-anchor="middle" pointer-events="none" x="0" y="15" font-size="10px" fill="#2A2C34" font-family="sans-serif"> Revol…</text></g></g></svg>