<svg xmlns="http://www.w3.org/2000/svg" width="910.1216430664062" height="946.3267822265625" viewBox="-317.68463134765625 -355.4924621582031 910.1216430664062 946.3267822265625"><title>Neo4j Graph Visualization</title><desc>Created using Neo4j (http://www.neo4j.com/)</desc><g class="layer relationships"><g class="relationship" transform="translate(310.09503244647453 374.9425254268622) rotate(317.595931342303)"><path class="outline" fill="#A5ABB6" stroke="none" d="M 25 0.5 L 27.730440665181987 0.5 L 27.730440665181987 -0.5 L 25 -0.5 Z M 47.06637816518199 0.5 L 49.796818830363975 0.5 L 49.796818830363975 3.5 L 56.796818830363975 0 L 49.796818830363975 -3.5 L 49.796818830363975 -0.5 L 47.06637816518199 -0.5 Z"/><text text-anchor="middle" pointer-events="none" font-size="8px" fill="#000000" x="37.39840941518199" y="3" font-family="sans-serif">A…</text></g><g class="relationship" transform="translate(310.09503244647453 374.9425254268622) rotate(491.3664639503351)"><path class="outline" fill="#A5ABB6" stroke="none" d="M 25 0.5 L 44.72979467710839 0.5 L 44.72979467710839 -0.5 L 25 -0.5 Z M 90.29229467710839 0.5 L 110.02208935421677 0.5 L 110.02208935421677 3.5 L 117.02208935421677 0 L 110.02208935421677 -3.5 L 110.02208935421677 -0.5 L 90.29229467710839 -0.5 Z"/><text text-anchor="middle" pointer-events="none" font-size="8px" fill="#000000" x="67.51104467710839" y="3" transform="rotate(180 67.51104467710839 0)" font-family="sans-serif">ACTED_IN</text></g><g class="relationship" transform="translate(310.09503244647453 374.9425254268622) rotate(384.66417510799084)"><path class="outline" fill="#A5ABB6" stroke="none" d="M 25 0.5 L 29.310661543897204 0.5 L 29.310661543897204 -0.5 L 25 -0.5 Z M 74.8731615438972 0.5 L 79.18382308779441 0.5 L 79.18382308779441 3.5 L 86.18382308779441 0 L 79.18382308779441 -3.5 L 79.18382308779441 -0.5 L 74.8731615438972 -0.5 Z"/><text text-anchor="middle" pointer-events="none" font-size="8px" fill="#000000" x="52.091911543897204" y="3" font-family="sans-serif">ACTED_IN</text></g><g class="relationship" transform="translate(310.09503244647453 374.9425254268622) rotate(208.3923491155793)"><path class="outline" fill="#A5ABB6" stroke="none" d="M 25 0.5 L 25.66604785045596 0.5 L 25.66604785045596 -0.5 L 25 -0.5 Z M 61.00198535045596 0.5 L 61.66803320091192 0.5 L 61.66803320091192 3.5 L 68.66803320091192 0 L 61.66803320091192 -3.5 L 61.66803320091192 -0.5 L 61.00198535045596 -0.5 Z"/><text text-anchor="middle" pointer-events="none" font-size="8px" fill="#000000" x="43.33401660045596" y="3" transform="rotate(180 43.33401660045596 0)" font-family="sans-serif">ACTE…</text></g><g class="relationship" transform="translate(310.09503244647453 374.9425254268622) rotate(446.214683240366)"><path class="outline" fill="#A5ABB6" stroke="none" d="M 25 0.5 L 44.70515645709261 0.5 L 44.70515645709261 -0.5 L 25 -0.5 Z M 90.26765645709261 0.5 L 109.97281291418523 0.5 L 109.97281291418523 3.5 L 116.97281291418523 0 L 109.97281291418523 -3.5 L 109.97281291418523 -0.5 L 90.26765645709261 -0.5 Z"/><text text-anchor="middle" pointer-events="none" font-size="8px" fill="#000000" x="67.48640645709261" y="3" font-family="sans-serif">ACTED_IN</text></g><g class="relationship" transform="translate(472.49482991980653 260.1860788028116) rotate(509.7032929546154)"><path class="outline" fill="#A5ABB6" stroke="none" d="M 25 0.5 L 32.122047293456845 0.5 L 32.122047293456845 -0.5 L 25 -0.5 Z M 79.01267229345684 0.5 L 86.13471958691369 0.5 L 86.13471958691369 3.5 L 93.13471958691369 0 L 86.13471958691369 -3.5 L 86.13471958691369 -0.5 L 79.01267229345684 -0.5 Z"/><text text-anchor="middle" pointer-events="none" font-size="8px" fill="#000000" x="55.567359793456845" y="3" transform="rotate(180 55.567359793456845 0)" font-family="sans-serif">DIRECTED</text></g><g class="relationship" transform="translate(269.02552704866736 418.3626168786507) rotate(489.8856021214952)"><path class="outline" fill="#A5ABB6" stroke="none" d="M 24.018736134675446,6.953439040707552 L 24.277555179777966,5.987513214418485 A 55.86759695352003 55.86759695352003 0 0 0 27.009177191738694,6.646291518781602 L 26.79925271452377,7.624009123136787 A 56.86759695352003 56.86759695352003 0 0 1 24.018736134675446,6.953439040707552 Z M 48.404550656477184,8.063410455058097 L 48.23455231121708,7.077966107259179 A 55.86759695352003 55.86759695352003 0 0 0 50.9907004942278,6.530796239837178 L 50.33270473889067,3.6038453372837513 L 57.92991855940865,5.483297961142774 L 51.86802816801064,10.433397443241747 L 51.210032412673506,7.506446540688319 A 56.86759695352003 56.86759695352003 0 0 1 48.404550656477184,8.063410455058097"/><text text-anchor="middle" pointer-events="none" font-size="8px" fill="#000000" x="37.59100492999648" y="11.379501631682402" transform="rotate(180 37.59100492999648 8.379501631682402)" font-family="sans-serif">W…</text></g><g class="relationship" transform="translate(269.02552704866736 418.3626168786507) rotate(315.8272955643328)"><path class="outline" fill="#A5ABB6" stroke="none" d="M 25 0.5 L 43.79008346447931 0.5 L 43.79008346447931 -0.5 L 25 -0.5 Z M 90.68070846447931 0.5 L 109.47079192895862 0.5 L 109.47079192895862 3.5 L 116.47079192895862 0 L 109.47079192895862 -3.5 L 109.47079192895862 -0.5 L 90.68070846447931 -0.5 Z"/><text text-anchor="middle" pointer-events="none" font-size="8px" fill="#000000" x="67.23539596447931" y="3" font-family="sans-serif">DIRECTED</text></g><g class="relationship" transform="translate(269.02552704866736 418.3626168786507) rotate(489.8856021214952)"><path class="outline" fill="#A5ABB6" stroke="none" d="M 24.018736134675446,-6.953439040707552 L 24.277555179777966,-5.987513214418485 A 55.86759695352003 55.86759695352003 0 0 1 25.289208488737323,-6.248471284651757 L 25.04849749488678,-7.219068120335592 A 56.86759695352003 56.86759695352003 0 0 0 24.018736134675446,-6.953439040707552 Z M 50.17032247756906,-7.729987404454789 L 49.96927355314461,-6.750406203130588 A 55.86759695352003 55.86759695352003 0 0 1 50.9907004942278,-6.530796239837178 L 50.33270473889067,-3.6038453372837513 L 57.92991855940865,-5.483297961142774 L 51.86802816801064,-10.433397443241747 L 51.210032412673506,-7.506446540688319 A 56.86759695352003 56.86759695352003 0 0 0 50.17032247756906,-7.729987404454789"/><text text-anchor="middle" pointer-events="none" font-size="8px" fill="#000000" x="37.59100492999648" y="-5.379501631682402" transform="rotate(180 37.59100492999648 -8.379501631682402)" font-family="sans-serif">PR…</text></g><g class="relationship" transform="translate(269.02552704866736 418.3626168786507) rotate(361.2000082992727)"><path class="outline" fill="#A5ABB6" stroke="none" d="M 25 0.5 L 44.12524859341808 0.5 L 44.12524859341808 -0.5 L 25 -0.5 Z M 91.01587359341808 0.5 L 110.14112218683616 0.5 L 110.14112218683616 3.5 L 117.14112218683616 0 L 110.14112218683616 -3.5 L 110.14112218683616 -0.5 L 91.01587359341808 -0.5 Z"/><text text-anchor="middle" pointer-events="none" font-size="8px" fill="#000000" x="67.57056109341808" y="3" font-family="sans-serif">DIRECTED</text></g><g class="relationship" transform="translate(269.02552704866736 418.3626168786507) rotate(244.83167526568167)"><path class="outline" fill="#A5ABB6" stroke="none" d="M 25 0.5 L 25.64795710517926 0.5 L 25.64795710517926 -0.5 L 25 -0.5 Z M 64.53858210517926 0.5 L 65.18653921035852 0.5 L 65.18653921035852 3.5 L 72.18653921035852 0 L 65.18653921035852 -3.5 L 65.18653921035852 -0.5 L 64.53858210517926 -0.5 Z"/><text text-anchor="middle" pointer-events="none" font-size="8px" fill="#000000" x="45.09326960517926" y="3" transform="rotate(180 45.09326960517926 0)" font-family="sans-serif">DIREC…</text></g><g class="relationship" transform="translate(269.02552704866736 418.3626168786507) rotate(422.8220330634855)"><path class="outline" fill="#A5ABB6" stroke="none" d="M 25 0.5 L 28.272690273113305 0.5 L 28.272690273113305 -0.5 L 25 -0.5 Z M 75.16331527311331 0.5 L 78.43600554622661 0.5 L 78.43600554622661 3.5 L 85.43600554622661 0 L 78.43600554622661 -3.5 L 78.43600554622661 -0.5 L 75.16331527311331 -0.5 Z"/><text text-anchor="middle" pointer-events="none" font-size="8px" fill="#000000" x="51.718002773113305" y="3" font-family="sans-serif">DIRECTED</text></g><g class="relationship" transform="translate(327.236139572988 432.2955724087048) rotate(516.080162874252)"><path class="outline" fill="#A5ABB6" stroke="none" d="M 24.018736134675446,6.953439040707552 L 24.277555179777966,5.987513214418485 A 134.43313204169326 134.43313204169326 0 0 0 39.42178102721694,9.124398449611022 L 39.27561446307232,10.11365844350857 A 135.43313204169326 135.43313204169326 0 0 1 24.018736134675446,6.953439040707552 Z M 75.0729717557825,10.619588499427692 L 74.95482074303101,9.626592860874439 A 134.43313204169326 134.43313204169326 0 0 0 90.1816483314786,6.918946818885414 L 89.48739451590403,4.000383535425527 L 97.10733829548076,5.7854484631214 L 91.10732008557802,10.810364530165263 L 90.41306627000345,7.891801246705376 A 135.43313204169326 135.43313204169326 0 0 1 75.0729717557825,10.619588499427692"/><text text-anchor="middle" pointer-events="none" font-size="8px" fill="#000000" x="57.16456788661022" y="14.054736920877218" transform="rotate(180 57.16456788661022 11.054736920877218)" font-family="sans-serif">WROTE</text></g><g class="relationship" transform="translate(327.236139572988 432.2955724087048) rotate(516.080162874252)"><path class="outline" fill="#A5ABB6" stroke="none" d="M 24.018736134675446,-6.953439040707552 L 24.277555179777966,-5.987513214418485 A 134.43313204169326 134.43313204169326 0 0 1 31.57236153410651,-7.72561566209319 L 31.367805945069758,-8.704470610997163 A 135.43313204169326 135.43313204169326 0 0 0 24.018736134675446,-6.953439040707552 Z M 83.01744641287897,-9.434443644380934 L 82.84063564281898,-8.45019878074649 A 134.43313204169326 134.43313204169326 0 0 1 90.1816483314786,-6.918946818885414 L 89.48739451590403,-4.000383535425527 L 97.10733829548076,-5.7854484631214 L 91.10732008557802,-10.810364530165263 L 90.41306627000345,-7.891801246705376 A 135.43313204169326 135.43313204169326 0 0 0 83.01744641287897,-9.434443644380934"/><text text-anchor="middle" pointer-events="none" font-size="8px" fill="#000000" x="57.164567886610214" y="-8.05473692087719" transform="rotate(180 57.164567886610214 -11.05473692087719)" font-family="sans-serif">PRODUCED</text></g><g class="relationship" transform="translate(327.236139572988 432.2955724087048) rotate(291.0304103713222)"><path class="outline" fill="#A5ABB6" stroke="none" d="M 25 0.5 L 33.32591168712294 0.5 L 33.32591168712294 -0.5 L 25 -0.5 Z M 80.21653668712294 0.5 L 88.54244837424588 0.5 L 88.54244837424588 3.5 L 95.54244837424588 0 L 88.54244837424588 -3.5 L 88.54244837424588 -0.5 L 80.21653668712294 -0.5 Z"/><text text-anchor="middle" pointer-events="none" font-size="8px" fill="#000000" x="56.77122418712294" y="3" font-family="sans-serif">DIRECTED</text></g><g class="relationship" transform="translate(327.236139572988 432.2955724087048) rotate(352.56002112545093)"><path class="outline" fill="#A5ABB6" stroke="none" d="M 25 0.5 L 27.80583831237665 0.5 L 27.80583831237665 -0.5 L 25 -0.5 Z M 49.80583831237665 0.5 L 52.6116766247533 0.5 L 52.6116766247533 3.5 L 59.6116766247533 0 L 52.6116766247533 -3.5 L 52.6116766247533 -0.5 L 49.80583831237665 -0.5 Z"/><text text-anchor="middle" pointer-events="none" font-size="8px" fill="#000000" x="38.80583831237665" y="3" font-family="sans-serif">DI…</text></g><g class="relationship" transform="translate(327.236139572988 432.2955724087048) rotate(225.66863320335585)"><path class="outline" fill="#A5ABB6" stroke="none" d="M 25 0.5 L 44.277506260681236 0.5 L 44.277506260681236 -0.5 L 25 -0.5 Z M 91.16813126068124 0.5 L 110.44563752136247 0.5 L 110.44563752136247 3.5 L 117.44563752136247 0 L 110.44563752136247 -3.5 L 110.44563752136247 -0.5 L 91.16813126068124 -0.5 Z"/><text text-anchor="middle" pointer-events="none" font-size="8px" fill="#000000" x="67.72281876068124" y="3" transform="rotate(180 67.72281876068124 0)" font-family="sans-serif">DIRECTED</text></g><g class="relationship" transform="translate(327.236139572988 432.2955724087048) rotate(455.26436334564926)"><path class="outline" fill="#A5ABB6" stroke="none" d="M 25 0.5 L 27.833585255492295 0.5 L 27.833585255492295 -0.5 L 25 -0.5 Z M 49.833585255492295 0.5 L 52.66717051098459 0.5 L 52.66717051098459 3.5 L 59.66717051098459 0 L 52.66717051098459 -3.5 L 52.66717051098459 -0.5 L 49.833585255492295 -0.5 Z"/><text text-anchor="middle" pointer-events="none" font-size="8px" fill="#000000" x="38.833585255492295" y="3" transform="rotate(180 38.833585255492295 0)" font-family="sans-serif">DI…</text></g><g class="relationship" transform="translate(128.06297349535913 561.8344011437287) rotate(317.6741197288409)"><path class="outline" fill="#A5ABB6" stroke="none" d="M 25 0.5 L 32.685631889512784 0.5 L 32.685631889512784 -0.5 L 25 -0.5 Z M 79.57625688951279 0.5 L 87.26188877902557 0.5 L 87.26188877902557 3.5 L 94.26188877902557 0 L 87.26188877902557 -3.5 L 87.26188877902557 -0.5 L 79.57625688951279 -0.5 Z"/><text text-anchor="middle" pointer-events="none" font-size="8px" fill="#000000" x="56.130944389512784" y="3" font-family="sans-serif">DIRECTED</text></g><g class="relationship" transform="translate(409.7753643110992 -233.19788515927098) rotate(448.0182393084265)"><path class="outline" fill="#A5ABB6" stroke="none" d="M 25 0.5 L 27.462575578423987 0.5 L 27.462575578423987 -0.5 L 25 -0.5 Z M 62.79851307842399 0.5 L 65.26108865684797 0.5 L 65.26108865684797 3.5 L 72.26108865684797 0 L 65.26108865684797 -3.5 L 65.26108865684797 -0.5 L 62.79851307842399 -0.5 Z"/><text text-anchor="middle" pointer-events="none" font-size="8px" fill="#000000" x="45.13054432842399" y="3" font-family="sans-serif">ACTE…</text></g><g class="relationship" transform="translate(409.7753643110992 -233.19788515927098) rotate(499.23247310927013)"><path class="outline" fill="#A5ABB6" stroke="none" d="M 25 0.5 L 48.47687869009589 0.5 L 48.47687869009589 -0.5 L 25 -0.5 Z M 94.03937869009589 0.5 L 117.51625738019177 0.5 L 117.51625738019177 3.5 L 124.51625738019177 0 L 117.51625738019177 -3.5 L 117.51625738019177 -0.5 L 94.03937869009589 -0.5 Z"/><text text-anchor="middle" pointer-events="none" font-size="8px" fill="#000000" x="71.25812869009589" y="3" transform="rotate(180 71.25812869009589 0)" font-family="sans-serif">ACTED_IN</text></g><g class="relationship" transform="translate(409.7753643110992 -233.19788515927098) rotate(476.2573288335739)"><path class="outline" fill="#A5ABB6" stroke="none" d="M 25 0.5 L 35.85633742438092 0.5 L 35.85633742438092 -0.5 L 25 -0.5 Z M 81.41883742438091 0.5 L 92.27517484876184 0.5 L 92.27517484876184 3.5 L 99.27517484876184 0 L 92.27517484876184 -3.5 L 92.27517484876184 -0.5 L 81.41883742438091 -0.5 Z"/><text text-anchor="middle" pointer-events="none" font-size="8px" fill="#000000" x="58.63758742438092" y="3" transform="rotate(180 58.63758742438092 0)" font-family="sans-serif">ACTED_IN</text></g><g class="relationship" transform="translate(409.7753643110992 -233.19788515927098) rotate(422.3306258391659)"><path class="outline" fill="#A5ABB6" stroke="none" d="M 25 0.5 L 38.864697831866124 0.5 L 38.864697831866124 -0.5 L 25 -0.5 Z M 84.42719783186612 0.5 L 98.29189566373225 0.5 L 98.29189566373225 3.5 L 105.29189566373225 0 L 98.29189566373225 -3.5 L 98.29189566373225 -0.5 L 84.42719783186612 -0.5 Z"/><text text-anchor="middle" pointer-events="none" font-size="8px" fill="#000000" x="61.645947831866124" y="3" font-family="sans-serif">ACTED_IN</text></g><g class="relationship" transform="translate(409.7753643110992 -233.19788515927098) rotate(400.6364247336444)"><path class="outline" fill="#A5ABB6" stroke="none" d="M 25 0.5 L 26.72595729937661 0.5 L 26.72595729937661 -0.5 L 25 -0.5 Z M 51.83923854937661 0.5 L 53.56519584875322 0.5 L 53.56519584875322 3.5 L 60.56519584875322 0 L 53.56519584875322 -3.5 L 53.56519584875322 -0.5 L 51.83923854937661 -0.5 Z"/><text text-anchor="middle" pointer-events="none" font-size="8px" fill="#000000" x="39.28259792437661" y="3" font-family="sans-serif">AC…</text></g><g class="relationship" transform="translate(352.154428402738 -217.06227971234225) rotate(400.0393173119684)"><path class="outline" fill="#A5ABB6" stroke="none" d="M 24.018736134675446,-6.953439040707552 L 24.277555179777966,-5.987513214418485 A 199.26700209022596 199.26700209022596 0 0 1 55.80213499741808,-11.766151463531997 L 55.70151866268387,-12.761076763835831 A 200.26700209022596 200.26700209022596 0 0 0 24.018736134675446,-6.953439040707552 Z M 91.51432815629417,-13.163951181826604 L 91.43611917722319,-12.167014195055287 A 199.26700209022596 199.26700209022596 0 0 1 123.08271768076436,-7.099016972429161 L 122.37164559952484,-4.184505607674907 L 130.0017562120642,-5.9256006769959955 L 124.03081378908371,-10.985032125434833 L 123.31974170784419,-8.070520760680578 A 200.26700209022596 200.26700209022596 0 0 0 91.51432815629417,-13.163951181826604"/><text text-anchor="middle" pointer-events="none" font-size="8px" fill="#000000" x="73.6045236162191" y="-10.26473258800226" font-family="sans-serif">WROTE</text></g><g class="relationship" transform="translate(352.154428402738 -217.06227971234225) rotate(448.4127652352752)"><path class="outline" fill="#A5ABB6" stroke="none" d="M 25 0.5 L 27.619842139710833 0.5 L 27.619842139710833 -0.5 L 25 -0.5 Z M 60.73312338971083 0.5 L 63.35296552942167 0.5 L 63.35296552942167 3.5 L 70.35296552942167 0 L 63.35296552942167 -3.5 L 63.35296552942167 -0.5 L 60.73312338971083 -0.5 Z"/><text text-anchor="middle" pointer-events="none" font-size="8px" fill="#000000" x="44.17648276471083" y="3" font-family="sans-serif">DIRE…</text></g><g class="relationship" transform="translate(352.154428402738 -217.06227971234225) rotate(377.9024799671058)"><path class="outline" fill="#A5ABB6" stroke="none" d="M 25 0.5 L 37.448947288978985 0.5 L 37.448947288978985 -0.5 L 25 -0.5 Z M 84.33957228897899 0.5 L 96.78851957795797 0.5 L 96.78851957795797 3.5 L 103.78851957795797 0 L 96.78851957795797 -3.5 L 96.78851957795797 -0.5 L 84.33957228897899 -0.5 Z"/><text text-anchor="middle" pointer-events="none" font-size="8px" fill="#000000" x="60.894259788978985" y="3" font-family="sans-serif">DIRECTED</text></g><g class="relationship" transform="translate(352.154428402738 -217.06227971234225) rotate(413.04702111670775)"><path class="outline" fill="#A5ABB6" stroke="none" d="M 25 0.5 L 25.333612232863757 0.5 L 25.333612232863757 -0.5 L 25 -0.5 Z M 69.11095598286376 0.5 L 69.44456821572751 0.5 L 69.44456821572751 3.5 L 76.44456821572751 0 L 69.44456821572751 -3.5 L 69.44456821572751 -0.5 L 69.11095598286376 -0.5 Z"/><text text-anchor="middle" pointer-events="none" font-size="8px" fill="#000000" x="47.22228410786376" y="3" font-family="sans-serif">DIRECT…</text></g><g class="relationship" transform="translate(352.154428402738 -217.06227971234225) rotate(400.0393173119684)"><path class="outline" fill="#A5ABB6" stroke="none" d="M 24.018736134675446,6.953439040707552 L 24.277555179777966,5.987513214418485 A 199.26700209022596 199.26700209022596 0 0 0 47.87699328713143,10.803949500550829 L 47.73660548182177,11.79404609387916 A 200.26700209022596 200.26700209022596 0 0 1 24.018736134675446,6.953439040707552 Z M 99.49898004440074,12.376344350301622 L 99.38090103279934,11.383340147380409 A 199.26700209022596 199.26700209022596 0 0 0 123.08271768076436,7.099016972429161 L 122.37164559952484,4.184505607674907 L 130.0017562120642,5.9256006769959955 L 124.03081378908371,10.985032125434833 L 123.31974170784419,8.070520760680578 A 200.26700209022596 200.26700209022596 0 0 1 99.49898004440074,12.376344350301622"/><text text-anchor="middle" pointer-events="none" font-size="8px" fill="#000000" x="73.60452361621914" y="16.26473258800226" font-family="sans-serif">PRODUCED</text></g><g class="relationship" transform="translate(352.154428402738 -217.06227971234225) rotate(484.3114367501574)"><path class="outline" fill="#A5ABB6" stroke="none" d="M 25 0.5 L 26.38800219017257 0.5 L 26.38800219017257 -0.5 L 25 -0.5 Z M 65.27862719017257 0.5 L 66.66662938034514 0.5 L 66.66662938034514 3.5 L 73.66662938034514 0 L 66.66662938034514 -3.5 L 66.66662938034514 -0.5 L 65.27862719017257 -0.5 Z"/><text text-anchor="middle" pointer-events="none" font-size="8px" fill="#000000" x="45.83331469017257" y="3" transform="rotate(180 45.83331469017257 0)" font-family="sans-serif">DIREC…</text></g><g class="relationship" transform="translate(402.3844172487079 -40.29398808010052) rotate(239.70411157535284)"><path class="outline" fill="#A5ABB6" stroke="none" d="M 25 0.5 L 27.110904260624636 0.5 L 27.110904260624636 -0.5 L 25 -0.5 Z M 60.224185510624636 0.5 L 62.33508977124927 0.5 L 62.33508977124927 3.5 L 69.33508977124927 0 L 62.33508977124927 -3.5 L 62.33508977124927 -0.5 L 60.224185510624636 -0.5 Z"/><text text-anchor="middle" pointer-events="none" font-size="8px" fill="#000000" x="43.667544885624636" y="3" transform="rotate(180 43.667544885624636 0)" font-family="sans-serif">DIRE…</text></g><g class="relationship" transform="translate(402.3844172487079 -40.29398808010052) rotate(311.2158419413198)"><path class="outline" fill="#A5ABB6" stroke="none" d="M 24.018736134675446,-6.953439040707552 L 24.277555179777966,-5.987513214418485 A 97.7810129176412 97.7810129176412 0 0 1 26.8458370410992,-6.638520059338703 L 26.61328364599035,-7.611103689893596 A 98.7810129176412 98.7810129176412 0 0 0 24.018736134675446,-6.953439040707552 Z M 69.37501572029926,-8.316659813966666 L 69.17467486972993,-7.336933554446603 A 97.7810129176412 97.7810129176412 0 0 1 71.76303573128094,-6.77100981248528 L 71.08260018974032,-3.8491940287972795 L 78.6940118168097,-5.670296179505168 L 72.67028312000177,-10.666764190735947 L 71.98984757846115,-7.744948407047946 A 98.7810129176412 98.7810129176412 0 0 0 69.37501572029926,-8.316659813966666"/><text text-anchor="middle" pointer-events="none" font-size="8px" fill="#000000" x="47.96375617386677" y="-6.805945134560062" font-family="sans-serif">PRODU…</text></g><g class="relationship" transform="translate(402.3844172487079 -40.29398808010052) rotate(311.2158419413198)"><path class="outline" fill="#A5ABB6" stroke="none" d="M 24.018736134675446,6.953439040707552 L 24.277555179777966,5.987513214418485 A 97.7810129176412 97.7810129176412 0 0 0 30.303411377322394,7.399359517686193 L 30.106218367967937,8.37972420343418 A 98.7810129176412 98.7810129176412 0 0 1 24.018736134675446,6.953439040707552 Z M 65.85862519055273,8.96962850245066 L 65.69388217833193,7.983291977767308 A 97.7810129176412 97.7810129176412 0 0 0 71.76303573128094,6.77100981248528 L 71.08260018974032,3.8491940287972795 L 78.6940118168097,5.670296179505168 L 72.67028312000177,10.666764190735947 L 71.98984757846115,7.744948407047946 A 98.7810129176412 98.7810129176412 0 0 1 65.85862519055273,8.96962850245066"/><text text-anchor="middle" pointer-events="none" font-size="8px" fill="#000000" x="47.9637561738668" y="12.805945134560062" font-family="sans-serif">WROTE</text></g><g class="relationship" transform="translate(402.3844172487079 -40.29398808010052) rotate(221.98970404327082)"><path class="outline" fill="#A5ABB6" stroke="none" d="M 25 0.5 L 44.259079940845254 0.5 L 44.259079940845254 -0.5 L 25 -0.5 Z M 91.14970494084525 0.5 L 110.40878488169051 0.5 L 110.40878488169051 3.5 L 117.40878488169051 0 L 110.40878488169051 -3.5 L 110.40878488169051 -0.5 L 91.14970494084525 -0.5 Z"/><text text-anchor="middle" pointer-events="none" font-size="8px" fill="#000000" x="67.70439244084525" y="3" transform="rotate(180 67.70439244084525 0)" font-family="sans-serif">DIRECTED</text></g><g class="relationship" transform="translate(402.3844172487079 -40.29398808010052) rotate(297.79884277123165)"><path class="outline" fill="#A5ABB6" stroke="none" d="M 25 0.5 L 50.5928249712901 0.5 L 50.5928249712901 -0.5 L 25 -0.5 Z M 97.4834499712901 0.5 L 123.0762749425802 0.5 L 123.0762749425802 3.5 L 130.0762749425802 0 L 123.0762749425802 -3.5 L 123.0762749425802 -0.5 L 97.4834499712901 -0.5 Z"/><text text-anchor="middle" pointer-events="none" font-size="8px" fill="#000000" x="74.0381374712901" y="3" font-family="sans-serif">DIRECTED</text></g><g class="relationship" transform="translate(402.3844172487079 -40.29398808010052) rotate(276.41169600789226)"><path class="outline" fill="#A5ABB6" stroke="none" d="M 25 0.5 L 25.206360097782813 0.5 L 25.206360097782813 -0.5 L 25 -0.5 Z M 64.0969850977828 0.5 L 64.30334519556563 0.5 L 64.30334519556563 3.5 L 71.30334519556563 0 L 64.30334519556563 -3.5 L 64.30334519556563 -0.5 L 64.0969850977828 -0.5 Z"/><text text-anchor="middle" pointer-events="none" font-size="8px" fill="#000000" x="44.65167259778281" y="3" font-family="sans-serif">DIREC…</text></g><g class="relationship" transform="translate(220.42321336768137 -41.128066670171364) rotate(308.8679042239224)"><path class="outline" fill="#A5ABB6" stroke="none" d="M 25 0.5 L 33.700468395295424 0.5 L 33.700468395295424 -0.5 L 25 -0.5 Z M 80.59109339529542 0.5 L 89.29156179059085 0.5 L 89.29156179059085 3.5 L 96.29156179059085 0 L 89.29156179059085 -3.5 L 89.29156179059085 -0.5 L 80.59109339529542 -0.5 Z"/><text text-anchor="middle" pointer-events="none" font-size="8px" fill="#000000" x="57.145780895295424" y="3" font-family="sans-serif">DIRECTED</text></g><g class="relationship" transform="translate(563.43709810194 -33.616938049125736) rotate(222.10475184683503)"><path class="outline" fill="#A5ABB6" stroke="none" d="M 25 0.5 L 35.836539763528286 0.5 L 35.836539763528286 -0.5 L 25 -0.5 Z M 82.7271647635283 0.5 L 93.56370452705657 0.5 L 93.56370452705657 3.5 L 100.56370452705657 0 L 93.56370452705657 -3.5 L 93.56370452705657 -0.5 L 82.7271647635283 -0.5 Z"/><text text-anchor="middle" pointer-events="none" font-size="8px" fill="#000000" x="59.281852263528286" y="3" transform="rotate(180 59.281852263528286 0)" font-family="sans-serif">DIRECTED</text></g><g class="relationship" transform="translate(-104.48105460207341 -211.11109014307715) rotate(237.25723476122351)"><path class="outline" fill="#A5ABB6" stroke="none" d="M 25 0.5 L 26.156527076315342 0.5 L 26.156527076315342 -0.5 L 25 -0.5 Z M 67.26980832631534 0.5 L 68.42633540263068 0.5 L 68.42633540263068 3.5 L 75.42633540263068 0 L 68.42633540263068 -3.5 L 68.42633540263068 -0.5 L 67.26980832631534 -0.5 Z"/><text text-anchor="middle" pointer-events="none" font-size="8px" fill="#000000" x="46.71316770131534" y="3" transform="rotate(180 46.71316770131534 0)" font-family="sans-serif">ACTED…</text></g><g class="relationship" transform="translate(-104.48105460207341 -211.11109014307715) rotate(342.4819529325141)"><path class="outline" fill="#A5ABB6" stroke="none" d="M 25 0.5 L 44.89397400009962 0.5 L 44.89397400009962 -0.5 L 25 -0.5 Z M 90.45647400009962 0.5 L 110.35044800019924 0.5 L 110.35044800019924 3.5 L 117.35044800019924 0 L 110.35044800019924 -3.5 L 110.35044800019924 -0.5 L 90.45647400009962 -0.5 Z"/><text text-anchor="middle" pointer-events="none" font-size="8px" fill="#000000" x="67.67522400009962" y="3" font-family="sans-serif">ACTED_IN</text></g><g class="relationship" transform="translate(-104.48105460207341 -211.11109014307715) rotate(304.974802119753)"><path class="outline" fill="#A5ABB6" stroke="none" d="M 25 0.5 L 44.124405086513434 0.5 L 44.124405086513434 -0.5 L 25 -0.5 Z M 89.68690508651343 0.5 L 108.81131017302687 0.5 L 108.81131017302687 3.5 L 115.81131017302687 0 L 108.81131017302687 -3.5 L 108.81131017302687 -0.5 L 89.68690508651343 -0.5 Z"/><text text-anchor="middle" pointer-events="none" font-size="8px" fill="#000000" x="66.90565508651343" y="3" font-family="sans-serif">ACTED_IN</text></g><g class="relationship" transform="translate(-104.48105460207341 -211.11109014307715) rotate(410.5307184412121)"><path class="outline" fill="#A5ABB6" stroke="none" d="M 25 0.5 L 29.1687507414548 0.5 L 29.1687507414548 -0.5 L 25 -0.5 Z M 74.7312507414548 0.5 L 78.9000014829096 0.5 L 78.9000014829096 3.5 L 85.9000014829096 0 L 78.9000014829096 -3.5 L 78.9000014829096 -0.5 L 74.7312507414548 -0.5 Z"/><text text-anchor="middle" pointer-events="none" font-size="8px" fill="#000000" x="51.9500007414548" y="3" font-family="sans-serif">ACTED_IN</text></g><g class="relationship" transform="translate(-104.48105460207341 -211.11109014307715) rotate(483.6730543715352)"><path class="outline" fill="#A5ABB6" stroke="none" d="M 25 0.5 L 27.60905897413199 0.5 L 27.60905897413199 -0.5 L 25 -0.5 Z M 46.94499647413199 0.5 L 49.55405544826398 0.5 L 49.55405544826398 3.5 L 56.55405544826398 0 L 49.55405544826398 -3.5 L 49.55405544826398 -0.5 L 46.94499647413199 -0.5 Z"/><text text-anchor="middle" pointer-events="none" font-size="8px" fill="#000000" x="37.27702772413199" y="3" transform="rotate(180 37.27702772413199 0)" font-family="sans-serif">A…</text></g><g class="relationship" transform="translate(-272.56117103350414 -302.2649784675695) rotate(363.3627663879205)"><path class="outline" fill="#A5ABB6" stroke="none" d="M 25 0.5 L 30.034146297323332 0.5 L 30.034146297323332 -0.5 L 25 -0.5 Z M 76.92477129732333 0.5 L 81.95891759464666 0.5 L 81.95891759464666 3.5 L 88.95891759464666 0 L 81.95891759464666 -3.5 L 81.95891759464666 -0.5 L 76.92477129732333 -0.5 Z"/><text text-anchor="middle" pointer-events="none" font-size="8px" fill="#000000" x="53.47945879732333" y="3" font-family="sans-serif">DIRECTED</text></g><g class="relationship" transform="translate(-73.18822711943716 -262.05354911582816) rotate(364.43089692744485)"><path class="outline" fill="#A5ABB6" stroke="none" d="M 25 0.5 L 25.439111187579982 0.5 L 25.439111187579982 -0.5 L 25 -0.5 Z M 72.32973618757998 0.5 L 72.76884737515996 0.5 L 72.76884737515996 3.5 L 79.76884737515996 0 L 72.76884737515996 -3.5 L 72.76884737515996 -0.5 L 72.32973618757998 -0.5 Z"/><text text-anchor="middle" pointer-events="none" font-size="8px" fill="#000000" x="48.88442368757998" y="3" font-family="sans-serif">DIRECTED</text></g><g class="relationship" transform="translate(-73.18822711943716 -262.05354911582816) rotate(433.98205394837845)"><path class="outline" fill="#A5ABB6" stroke="none" d="M 25 0.5 L 44.089300973044516 0.5 L 44.089300973044516 -0.5 L 25 -0.5 Z M 90.97992597304452 0.5 L 110.06922694608903 0.5 L 110.06922694608903 3.5 L 117.06922694608903 0 L 110.06922694608903 -3.5 L 110.06922694608903 -0.5 L 90.97992597304452 -0.5 Z"/><text text-anchor="middle" pointer-events="none" font-size="8px" fill="#000000" x="67.53461347304452" y="3" font-family="sans-serif">DIRECTED</text></g><g class="relationship" transform="translate(-73.18822711943716 -262.05354911582816) rotate(201.38641020506645)"><path class="outline" fill="#A5ABB6" stroke="none" d="M 24.018736134675446,-6.953439040707552 L 24.277555179777966,-5.987513214418485 A 75.43156141376107 75.43156141376107 0 0 1 26.993719800006932,-6.6615621130628 L 26.770909085758525,-7.636423839471277 A 76.43156141376107 76.43156141376107 0 0 0 24.018736134675446,-6.953439040707552 Z M 58.0845589941888,-8.211200965495578 L 57.89767442903667,-7.228819084907428 A 75.43156141376107 75.43156141376107 0 0 1 60.63674603522667,-6.6549036746675 L 59.96715631001615,-3.7305833091992255 L 67.5717585088544,-5.579914376754331 L 61.52953233550737,-10.553997495291865 L 60.85994261029685,-7.629677129823591 A 76.43156141376107 76.43156141376107 0 0 0 58.0845589941888,-8.211200965495578"/><text text-anchor="middle" pointer-events="none" font-size="8px" fill="#000000" x="42.40715423007704" y="-6.044993001200197" transform="rotate(180 42.40715423007704 -9.044993001200197)" font-family="sans-serif">PRO…</text></g><g class="relationship" transform="translate(-73.18822711943716 -262.05354911582816) rotate(307.4869931838426)"><path class="outline" fill="#A5ABB6" stroke="none" d="M 25 0.5 L 26.10466995987627 0.5 L 26.10466995987627 -0.5 L 25 -0.5 Z M 48.10466995987627 0.5 L 49.20933991975254 0.5 L 49.20933991975254 3.5 L 56.20933991975254 0 L 49.20933991975254 -3.5 L 49.20933991975254 -0.5 L 48.10466995987627 -0.5 Z"/><text text-anchor="middle" pointer-events="none" font-size="8px" fill="#000000" x="37.10466995987627" y="3" font-family="sans-serif">DI…</text></g><g class="relationship" transform="translate(-73.18822711943716 -262.05354911582816) rotate(482.77989143711625)"><path class="outline" fill="#A5ABB6" stroke="none" d="M 25 0.5 L 43.713041367197135 0.5 L 43.713041367197135 -0.5 L 25 -0.5 Z M 90.60366636719714 0.5 L 109.31670773439427 0.5 L 109.31670773439427 3.5 L 116.31670773439427 0 L 109.31670773439427 -3.5 L 109.31670773439427 -0.5 L 90.60366636719714 -0.5 Z"/><text text-anchor="middle" pointer-events="none" font-size="8px" fill="#000000" x="67.15835386719714" y="3" transform="rotate(180 67.15835386719714 0)" font-family="sans-serif">DIRECTED</text></g><g class="relationship" transform="translate(-73.18822711943716 -262.05354911582816) rotate(201.38641020506645)"><path class="outline" fill="#A5ABB6" stroke="none" d="M 24.018736134675446,6.953439040707552 L 24.277555179777966,5.987513214418485 A 75.43156141376107 75.43156141376107 0 0 0 24.852468672066813,6.139134877645276 L 24.60127128402022,7.1070707599425305 A 76.43156141376107 76.43156141376107 0 0 1 24.018736134675446,6.953439040707552 Z M 60.272161799738875,7.7618271359417434 L 60.05665551385926,6.78532468292569 A 75.43156141376107 75.43156141376107 0 0 0 60.63674603522667,6.6549036746675 L 59.96715631001615,3.7305833091992255 L 67.5717585088544,5.579914376754331 L 61.52953233550737,10.553997495291865 L 60.85994261029685,7.629677129823591 A 76.43156141376107 76.43156141376107 0 0 1 60.272161799738875,7.7618271359417434"/><text text-anchor="middle" pointer-events="none" font-size="8px" fill="#000000" x="42.407154230077055" y="12.044993001200197" transform="rotate(180 42.407154230077055 9.044993001200197)" font-family="sans-serif">WROTE</text></g><g class="relationship" transform="translate(-44.65690493676693 -209.41281014201027) rotate(217.04983793399487)"><path class="outline" fill="#A5ABB6" stroke="none" d="M 24.018736134675446,-6.953439040707552 L 24.277555179777966,-5.987513214418485 A 177.09184791750158 177.09184791750158 0 0 1 42.268531987970306,-9.819166592608838 L 42.11130416245105,-10.806728950580464 A 178.09184791750158 178.09184791750158 0 0 0 24.018736134675446,-6.953439040707552 Z M 93.8508094773049,-11.432584783964074 L 93.7175158335943,-10.441508195326065 A 177.09184791750158 177.09184791750158 0 0 1 111.79591251374171,-7.046160260467624 L 111.08977699958862,-4.130448917475703 L 118.7169282330817,-5.884462617942406 L 112.73742653261249,-10.933775384456851 L 112.0312910184594,-8.018064041464932 A 178.09184791750158 178.09184791750158 0 0 0 93.8508094773049,-11.432584783964074"/><text text-anchor="middle" pointer-events="none" font-size="8px" fill="#000000" x="67.9642535849081" y="-9.508780398054597" transform="rotate(180 67.9642535849081 -12.508780398054597)" font-family="sans-serif">PRODUCED</text></g><g class="relationship" transform="translate(-44.65690493676693 -209.41281014201027) rotate(507.79073779146233)"><path class="outline" fill="#A5ABB6" stroke="none" d="M 25 0.5 L 35.12842493060315 0.5 L 35.12842493060315 -0.5 L 25 -0.5 Z M 82.01904993060316 0.5 L 92.1474748612063 0.5 L 92.1474748612063 3.5 L 99.1474748612063 0 L 92.1474748612063 -3.5 L 92.1474748612063 -0.5 L 82.01904993060316 -0.5 Z"/><text text-anchor="middle" pointer-events="none" font-size="8px" fill="#000000" x="58.57373743060315" y="3" transform="rotate(180 58.57373743060315 0)" font-family="sans-serif">DIRECTED</text></g><g class="relationship" transform="translate(-44.65690493676693 -209.41281014201027) rotate(217.04983793399487)"><path class="outline" fill="#A5ABB6" stroke="none" d="M 24.018736134675446,6.953439040707552 L 24.277555179777966,5.987513214418485 A 177.09184791750158 177.09184791750158 0 0 0 50.17623980826942,10.89604592655516 L 50.063665126942226,11.889689193087008 A 178.09184791750158 178.09184791750158 0 0 1 24.018736134675446,6.953439040707552 Z M 85.87457959343926,12.32286824227333 L 85.7860731198161,11.326792640661267 A 177.09184791750158 177.09184791750158 0 0 0 111.79591251374171,7.046160260467624 L 111.08977699958862,4.130448917475703 L 118.7169282330817,5.884462617942406 L 112.73742653261249,10.933775384456851 L 112.0312910184594,8.018064041464932 A 178.09184791750158 178.09184791750158 0 0 1 85.87457959343926,12.32286824227333"/><text text-anchor="middle" pointer-events="none" font-size="8px" fill="#000000" x="67.96425358490818" y="15.508780398054597" transform="rotate(180 67.96425358490818 12.508780398054597)" font-family="sans-serif">WROTE</text></g><g class="relationship" transform="translate(-44.65690493676693 -209.41281014201027) rotate(442.75269199424315)"><path class="outline" fill="#A5ABB6" stroke="none" d="M 25 0.5 L 27.79424129991977 0.5 L 27.79424129991977 -0.5 L 25 -0.5 Z M 49.79424129991977 0.5 L 52.58848259983954 0.5 L 52.58848259983954 3.5 L 59.58848259983954 0 L 52.58848259983954 -3.5 L 52.58848259983954 -0.5 L 49.79424129991977 -0.5 Z"/><text text-anchor="middle" pointer-events="none" font-size="8px" fill="#000000" x="38.79424129991977" y="3" font-family="sans-serif">DI…</text></g><g class="relationship" transform="translate(-44.65690493676693 -209.41281014201027) rotate(329.59883954100735)"><path class="outline" fill="#A5ABB6" stroke="none" d="M 25 0.5 L 26.625296134041584 0.5 L 26.625296134041584 -0.5 L 25 -0.5 Z M 54.402639884041584 0.5 L 56.02793601808317 0.5 L 56.02793601808317 3.5 L 63.02793601808317 0 L 56.02793601808317 -3.5 L 56.02793601808317 -0.5 L 54.402639884041584 -0.5 Z"/><text text-anchor="middle" pointer-events="none" font-size="8px" fill="#000000" x="40.513968009041584" y="3" font-family="sans-serif">DIR…</text></g><g class="relationship" transform="translate(-44.65690493676693 -209.41281014201027) rotate(280.117122416892)"><path class="outline" fill="#A5ABB6" stroke="none" d="M 25 0.5 L 32.519147102955785 0.5 L 32.519147102955785 -0.5 L 25 -0.5 Z M 79.40977210295578 0.5 L 86.92891920591157 0.5 L 86.92891920591157 3.5 L 93.92891920591157 0 L 86.92891920591157 -3.5 L 86.92891920591157 -0.5 L 79.40977210295578 -0.5 Z"/><text text-anchor="middle" pointer-events="none" font-size="8px" fill="#000000" x="55.964459602955785" y="3" font-family="sans-serif">DIRECTED</text></g><g class="relationship" transform="translate(-251.0167108880002 -78.73069024523576) rotate(327.51473904367276)"><path class="outline" fill="#A5ABB6" stroke="none" d="M 25 0.5 L 33.110524686891786 0.5 L 33.110524686891786 -0.5 L 25 -0.5 Z M 80.00114968689178 0.5 L 88.11167437378357 0.5 L 88.11167437378357 3.5 L 95.11167437378357 0 L 88.11167437378357 -3.5 L 88.11167437378357 -0.5 L 80.00114968689178 -0.5 Z"/><text text-anchor="middle" pointer-events="none" font-size="8px" fill="#000000" x="56.555837186891786" y="3" font-family="sans-serif">DIRECTED</text></g><g class="relationship" transform="translate(-100.21446609368763 363.6377585367952) rotate(239.0201018394239)"><path class="outline" fill="#A5ABB6" stroke="none" d="M 25 0.5 L 26.000890568237786 0.5 L 26.000890568237786 -0.5 L 25 -0.5 Z M 71.56339056823779 0.5 L 72.56428113647557 0.5 L 72.56428113647557 3.5 L 79.56428113647557 0 L 72.56428113647557 -3.5 L 72.56428113647557 -0.5 L 71.56339056823779 -0.5 Z"/><text text-anchor="middle" pointer-events="none" font-size="8px" fill="#000000" x="48.782140568237786" y="3" transform="rotate(180 48.782140568237786 0)" font-family="sans-serif">ACTED_IN</text></g><g class="relationship" transform="translate(-100.21446609368763 363.6377585367952) rotate(207.2225886625273)"><path class="outline" fill="#A5ABB6" stroke="none" d="M 25 0.5 L 29.926871252498366 0.5 L 29.926871252498366 -0.5 L 25 -0.5 Z M 75.48937125249836 0.5 L 80.41624250499673 0.5 L 80.41624250499673 3.5 L 87.41624250499673 0 L 80.41624250499673 -3.5 L 80.41624250499673 -0.5 L 75.48937125249836 -0.5 Z"/><text text-anchor="middle" pointer-events="none" font-size="8px" fill="#000000" x="52.708121252498366" y="3" transform="rotate(180 52.708121252498366 0)" font-family="sans-serif">ACTED_IN</text></g><g class="relationship" transform="translate(-100.21446609368763 363.6377585367952) rotate(535.2102301229661)"><path class="outline" fill="#A5ABB6" stroke="none" d="M 25 0.5 L 26.41690627857082 0.5 L 26.41690627857082 -0.5 L 25 -0.5 Z M 56.41690627857082 0.5 L 57.83381255714164 0.5 L 57.83381255714164 3.5 L 64.83381255714164 0 L 57.83381255714164 -3.5 L 57.83381255714164 -0.5 L 56.41690627857082 -0.5 Z"/><text text-anchor="middle" pointer-events="none" font-size="8px" fill="#000000" x="41.41690627857082" y="3" transform="rotate(180 41.41690627857082 0)" font-family="sans-serif">ACT…</text></g><g class="relationship" transform="translate(-100.21446609368763 363.6377585367952) rotate(263.1649511154868)"><path class="outline" fill="#A5ABB6" stroke="none" d="M 25 0.5 L 42.48542229625863 0.5 L 42.48542229625863 -0.5 L 25 -0.5 Z M 88.04792229625863 0.5 L 105.53334459251727 0.5 L 105.53334459251727 3.5 L 112.53334459251727 0 L 105.53334459251727 -3.5 L 105.53334459251727 -0.5 L 88.04792229625863 -0.5 Z"/><text text-anchor="middle" pointer-events="none" font-size="8px" fill="#000000" x="65.26667229625863" y="3" transform="rotate(180 65.26667229625863 0)" font-family="sans-serif">ACTED_IN</text></g><g class="relationship" transform="translate(-100.21446609368763 363.6377585367952) rotate(287.48600769191086)"><path class="outline" fill="#A5ABB6" stroke="none" d="M 25 0.5 L 45.96238546803903 0.5 L 45.96238546803903 -0.5 L 25 -0.5 Z M 91.52488546803903 0.5 L 112.48727093607806 0.5 L 112.48727093607806 3.5 L 119.48727093607806 0 L 112.48727093607806 -3.5 L 112.48727093607806 -0.5 L 91.52488546803903 -0.5 Z"/><text text-anchor="middle" pointer-events="none" font-size="8px" fill="#000000" x="68.74363546803903" y="3" font-family="sans-serif">ACTED_IN</text></g><g class="relationship" transform="translate(-288.6846273972411 234.74784686828113) rotate(376.2483964315318)"><path class="outline" fill="#A5ABB6" stroke="none" d="M 25 0.5 L 43.17913226950249 0.5 L 43.17913226950249 -0.5 L 25 -0.5 Z M 90.06975726950249 0.5 L 108.24888953900498 0.5 L 108.24888953900498 3.5 L 115.24888953900498 0 L 108.24888953900498 -3.5 L 108.24888953900498 -0.5 L 90.06975726950249 -0.5 Z"/><text text-anchor="middle" pointer-events="none" font-size="8px" fill="#000000" x="66.62444476950249" y="3" font-family="sans-serif">DIRECTED</text></g><g class="relationship" transform="translate(-208.03248787257644 210.43935106515116) rotate(443.50403701999835)"><path class="outline" fill="#A5ABB6" stroke="none" d="M 24.018736134675446,-6.953439040707552 L 24.277555179777966,-5.987513214418485 A 213.88658621902854 213.88658621902854 0 0 1 59.52058843221249,-12.32757242441508 L 59.4265437840249,-13.323140405091067 A 214.88658621902854 214.88658621902854 0 0 0 24.018736134675446,-6.953439040707552 Z M 95.23975831507586,-13.708210013874492 L 95.16714195774797,-12.7108500664892 A 213.88658621902854 213.88658621902854 0 0 1 130.53835029540005,-7.130046866869956 L 129.82438023290092,-4.2162440681454125 L 137.4562185028405,-5.9497505208260755 L 131.4903103787322,-11.015117265169348 L 130.77634031623307,-8.101314466444805 A 214.88658621902854 214.88658621902854 0 0 0 95.23975831507586,-13.708210013874492"/><text text-anchor="middle" pointer-events="none" font-size="8px" fill="#000000" x="77.33049036968511" y="-10.763130465986507" font-family="sans-serif">WROTE</text></g><g class="relationship" transform="translate(-208.03248787257644 210.43935106515116) rotate(445.58747665333647)"><path class="outline" fill="#A5ABB6" stroke="none" d="M 25 0.5 L 25.649487974991054 0.5 L 25.649487974991054 -0.5 L 25 -0.5 Z M 69.42683172499105 0.5 L 70.07631969998211 0.5 L 70.07631969998211 3.5 L 77.07631969998211 0 L 70.07631969998211 -3.5 L 70.07631969998211 -0.5 L 69.42683172499105 -0.5 Z"/><text text-anchor="middle" pointer-events="none" font-size="8px" fill="#000000" x="47.538159849991054" y="3" font-family="sans-serif">DIRECT…</text></g><g class="relationship" transform="translate(-208.03248787257644 210.43935106515116) rotate(370.3140986254075)"><path class="outline" fill="#A5ABB6" stroke="none" d="M 25 0.5 L 26.41936017156963 0.5 L 26.41936017156963 -0.5 L 25 -0.5 Z M 59.53264142156963 0.5 L 60.95200159313926 0.5 L 60.95200159313926 3.5 L 67.95200159313926 0 L 60.95200159313926 -3.5 L 60.95200159313926 -0.5 L 59.53264142156963 -0.5 Z"/><text text-anchor="middle" pointer-events="none" font-size="8px" fill="#000000" x="42.97600079656963" y="3" font-family="sans-serif">DIRE…</text></g><g class="relationship" transform="translate(-208.03248787257644 210.43935106515116) rotate(365.8098251318066)"><path class="outline" fill="#A5ABB6" stroke="none" d="M 25 0.5 L 49.06137030196767 0.5 L 49.06137030196767 -0.5 L 25 -0.5 Z M 95.95199530196767 0.5 L 120.01336560393534 0.5 L 120.01336560393534 3.5 L 127.01336560393534 0 L 120.01336560393534 -3.5 L 120.01336560393534 -0.5 L 95.95199530196767 -0.5 Z"/><text text-anchor="middle" pointer-events="none" font-size="8px" fill="#000000" x="72.50668280196767" y="3" font-family="sans-serif">DIRECTED</text></g><g class="relationship" transform="translate(-208.03248787257644 210.43935106515116) rotate(409.6474965907653)"><path class="outline" fill="#A5ABB6" stroke="none" d="M 25 0.5 L 27.195639704483945 0.5 L 27.195639704483945 -0.5 L 25 -0.5 Z M 49.195639704483945 0.5 L 51.39127940896789 0.5 L 51.39127940896789 3.5 L 58.39127940896789 0 L 51.39127940896789 -3.5 L 51.39127940896789 -0.5 L 49.195639704483945 -0.5 Z"/><text text-anchor="middle" pointer-events="none" font-size="8px" fill="#000000" x="38.195639704483945" y="3" font-family="sans-serif">DI…</text></g><g class="relationship" transform="translate(-208.03248787257644 210.43935106515116) rotate(443.50403701999835)"><path class="outline" fill="#A5ABB6" stroke="none" d="M 24.018736134675446,6.953439040707552 L 24.277555179777966,5.987513214418485 A 213.88658621902854 213.88658621902854 0 0 0 51.58660327333496,11.428395310454988 L 51.45546426921263,12.419759300923573 A 214.88658621902854 214.88658621902854 0 0 1 24.018736134675446,6.953439040707552 Z M 103.22841934548367,12.976430680966757 L 103.1186268145706,11.982476154765635 A 213.88658621902854 213.88658621902854 0 0 0 130.53835029540005,7.130046866869956 L 129.82438023290092,4.2162440681454125 L 137.4562185028405,5.9497505208260755 L 131.4903103787322,11.015117265169348 L 130.77634031623307,8.101314466444805 A 214.88658621902854 214.88658621902854 0 0 1 103.22841934548367,12.976430680966757"/><text text-anchor="middle" pointer-events="none" font-size="8px" fill="#000000" x="77.33049036968514" y="16.763130465986507" font-family="sans-serif">PRODUCED</text></g><g class="relationship" transform="translate(-62.7852966019517 316.9982086835727) rotate(239.10779511641357)"><path class="outline" fill="#A5ABB6" stroke="none" d="M 25 0.5 L 25.44525253817382 0.5 L 25.44525253817382 -0.5 L 25 -0.5 Z M 72.33587753817382 0.5 L 72.78113007634764 0.5 L 72.78113007634764 3.5 L 79.78113007634764 0 L 72.78113007634764 -3.5 L 72.78113007634764 -0.5 L 72.33587753817382 -0.5 Z"/><text text-anchor="middle" pointer-events="none" font-size="8px" fill="#000000" x="48.89056503817382" y="3" transform="rotate(180 48.89056503817382 0)" font-family="sans-serif">DIRECTED</text></g><g class="relationship" transform="translate(-62.7852966019517 316.9982086835727) rotate(273.7560529178577)"><path class="outline" fill="#A5ABB6" stroke="none" d="M 25 0.5 L 25.62699547379423 0.5 L 25.62699547379423 -0.5 L 25 -0.5 Z M 58.74027672379423 0.5 L 59.36727219758846 0.5 L 59.36727219758846 3.5 L 66.36727219758846 0 L 59.36727219758846 -3.5 L 59.36727219758846 -0.5 L 58.74027672379423 -0.5 Z"/><text text-anchor="middle" pointer-events="none" font-size="8px" fill="#000000" x="42.18363609879423" y="3" font-family="sans-serif">DIRE…</text></g><g class="relationship" transform="translate(-62.7852966019517 316.9982086835727) rotate(181.9946689662711)"><path class="outline" fill="#A5ABB6" stroke="none" d="M 25 0.5 L 41.79321323296159 0.5 L 41.79321323296159 -0.5 L 25 -0.5 Z M 88.68383823296159 0.5 L 105.47705146592318 0.5 L 105.47705146592318 3.5 L 112.47705146592318 0 L 105.47705146592318 -3.5 L 105.47705146592318 -0.5 L 88.68383823296159 -0.5 Z"/><text text-anchor="middle" pointer-events="none" font-size="8px" fill="#000000" x="65.23852573296159" y="3" transform="rotate(180 65.23852573296159 0)" font-family="sans-serif">DIRECTED</text></g><g class="relationship" transform="translate(-62.7852966019517 316.9982086835727) rotate(516.9029722297507)"><path class="outline" fill="#A5ABB6" stroke="none" d="M 24.018736134675446,-6.953439040707552 L 24.277555179777966,-5.987513214418485 A 167.2324613469999 167.2324613469999 0 0 1 39.783704303227594,-9.362867372190095 L 39.617607382756574,-10.348976804763396 A 168.2324613469999 168.2324613469999 0 0 0 24.018736134675446,-6.953439040707552 Z M 91.34317333454256,-10.996283863961196 L 91.20180542012005,-10.006326737226999 A 167.2324613469999 167.2324613469999 0 0 1 106.78756544716146,-7.0200647412658626 L 106.08386718196613,-4.103764216360875 L 113.70954971613897,-5.864152209960961 L 107.7258298007552,-10.908465441139178 L 107.02213153555988,-7.9921649162341915 A 168.2324613469999 168.2324613469999 0 0 0 91.34317333454256,-10.996283863961196"/><text text-anchor="middle" pointer-events="none" font-size="8px" fill="#000000" x="65.461618241954" y="-9.17268868594985" transform="rotate(180 65.461618241954 -12.17268868594985)" font-family="sans-serif">PRODUCED</text></g><g class="relationship" transform="translate(-62.7852966019517 316.9982086835727) rotate(205.23512336612532)"><path class="outline" fill="#A5ABB6" stroke="none" d="M 25 0.5 L 25.051163027114242 0.5 L 25.051163027114242 -0.5 L 25 -0.5 Z M 68.82850677711424 0.5 L 68.87966980422848 0.5 L 68.87966980422848 3.5 L 75.87966980422848 0 L 68.87966980422848 -3.5 L 68.87966980422848 -0.5 L 68.82850677711424 -0.5 Z"/><text text-anchor="middle" pointer-events="none" font-size="8px" fill="#000000" x="46.93983490211424" y="3" transform="rotate(180 46.93983490211424 0)" font-family="sans-serif">DIRECT…</text></g><g class="relationship" transform="translate(-62.7852966019517 316.9982086835727) rotate(516.9029722297507)"><path class="outline" fill="#A5ABB6" stroke="none" d="M 24.018736134675446,6.953439040707552 L 24.277555179777966,5.987513214418485 A 167.2324613469999 167.2324613469999 0 0 0 47.68153633015794,10.500108904726375 L 47.562666078261415,11.493018700837808 A 168.2324613469999 168.2324613469999 0 0 1 24.018736134675446,6.953439040707552 Z M 83.37197356077823,11.941145600793305 L 83.27798770157825,10.945572068466134 A 167.2324613469999 167.2324613469999 0 0 0 106.78756544716146,7.0200647412658626 L 106.08386718196613,4.103764216360875 L 113.70954971613897,5.864152209960961 L 107.7258298007552,10.908465441139178 L 107.02213153555988,7.9921649162341915 A 168.2324613469999 168.2324613469999 0 0 1 83.37197356077823,11.941145600793305"/><text text-anchor="middle" pointer-events="none" font-size="8px" fill="#000000" x="65.46161824195403" y="15.17268868594985" transform="rotate(180 65.46161824195403 12.17268868594985)" font-family="sans-serif">WROTE</text></g><g class="relationship" transform="translate(-236.34936096142692 479.2260873292913) rotate(293.32910031279425)"><path class="outline" fill="#A5ABB6" stroke="none" d="M 25 0.5 L 31.90998731403692 0.5 L 31.90998731403692 -0.5 L 25 -0.5 Z M 78.80061231403693 0.5 L 85.71059962807384 0.5 L 85.71059962807384 3.5 L 92.71059962807384 0 L 85.71059962807384 -3.5 L 85.71059962807384 -0.5 L 78.80061231403693 -0.5 Z"/><text text-anchor="middle" pointer-events="none" font-size="8px" fill="#000000" x="55.35529981403692" y="3" font-family="sans-serif">DIRECTED</text></g></g><g class="layer nodes"><g class="node" transform="translate(310.09503244647453,374.9425254268622)"><circle class="outline" cx="0" cy="0" r="25" fill="#F79767" stroke="#f36924" stroke-width="2px"/><text text-anchor="middle" pointer-events="none" font-family="sans-serif" dy="1.5625" font-size="25" fill="#FFFFFF"/><text text-anchor="middle" pointer-events="none" font-family="sans-serif" dy="1.5625" font-size="25" fill="#FFFFFF"/><text text-anchor="middle" pointer-events="none" x="0" y="0" font-size="10px" fill="#FFFFFF" font-family="sans-serif"> Hugo</text><text text-anchor="middle" pointer-events="none" x="0" y="10" font-size="10px" fill="#FFFFFF" font-family="sans-serif"> Weaving</text></g><g class="node" transform="translate(370.49441331176604,319.7824460047217)"><circle class="outline" cx="0" cy="0" r="25" fill="#57C7E3" stroke="#23b3d7" stroke-width="2px"/><text text-anchor="middle" pointer-events="none" font-family="sans-serif" dy="1.5625" font-size="25" fill="#2A2C34"/><text text-anchor="middle" pointer-events="none" font-family="sans-serif" dy="1.5625" font-size="25" fill="#2A2C34"/><text text-anchor="middle" pointer-events="none" x="0" y="0" font-size="10px" fill="#2A2C34" font-family="sans-serif"> Cloud</text><text text-anchor="middle" pointer-events="none" x="0" y="10" font-size="10px" fill="#2A2C34" font-family="sans-serif"> Atlas</text></g><g class="node" transform="translate(472.49482991980653,260.1860788028116)"><circle class="outline" cx="0" cy="0" r="25" fill="#F79767" stroke="#f36924" stroke-width="2px"/><text text-anchor="middle" pointer-events="none" font-family="sans-serif" dy="1.5625" font-size="25" fill="#FFFFFF"/><text text-anchor="middle" pointer-events="none" font-family="sans-serif" dy="1.5625" font-size="25" fill="#FFFFFF"/><text text-anchor="middle" pointer-events="none" x="0" y="0" font-size="10px" fill="#FFFFFF" font-family="sans-serif"> Tom</text><text text-anchor="middle" pointer-events="none" x="0" y="10" font-size="10px" fill="#FFFFFF" font-family="sans-serif"> Tykwer</text></g><g class="node" transform="translate(269.02552704866736,418.3626168786507)"><circle class="outline" cx="0" cy="0" r="25" fill="#F79767" stroke="#f36924" stroke-width="2px"/><text text-anchor="middle" pointer-events="none" font-family="sans-serif" dy="1.5625" font-size="25" fill="#FFFFFF"/><text text-anchor="middle" pointer-events="none" font-family="sans-serif" dy="1.5625" font-size="25" fill="#FFFFFF"/><text text-anchor="middle" pointer-events="none" x="0" y="0" font-size="10px" fill="#FFFFFF" font-family="sans-serif"> Lana</text><text text-anchor="middle" pointer-events="none" x="0" y="10" font-size="10px" fill="#FFFFFF" font-family="sans-serif"> Wacho…</text></g><g class="node" transform="translate(327.236139572988,432.2955724087048)"><circle class="outline" cx="0" cy="0" r="25" fill="#F79767" stroke="#f36924" stroke-width="2px"/><text text-anchor="middle" pointer-events="none" font-family="sans-serif" dy="1.5625" font-size="25" fill="#FFFFFF"/><text text-anchor="middle" pointer-events="none" font-family="sans-serif" dy="1.5625" font-size="25" fill="#FFFFFF"/><text text-anchor="middle" pointer-events="none" x="0" y="0" font-size="10px" fill="#FFFFFF" font-family="sans-serif"> Andy</text><text text-anchor="middle" pointer-events="none" x="0" y="10" font-size="10px" fill="#FFFFFF" font-family="sans-serif"> Wacho…</text></g><g class="node" transform="translate(216.23651062572856,481.52982179074263)"><circle class="outline" cx="0" cy="0" r="25" fill="#57C7E3" stroke="#23b3d7" stroke-width="2px"/><text text-anchor="middle" pointer-events="none" font-family="sans-serif" dy="1.5625" font-size="25" fill="#2A2C34"/><text text-anchor="middle" pointer-events="none" font-family="sans-serif" dy="1.5625" font-size="25" fill="#2A2C34"/><text text-anchor="middle" pointer-events="none" x="0" y="0" font-size="10px" fill="#2A2C34" font-family="sans-serif"> V for</text><text text-anchor="middle" pointer-events="none" x="0" y="10" font-size="10px" fill="#2A2C34" font-family="sans-serif"> Vendetta</text></g><g class="node" transform="translate(128.06297349535913,561.8344011437287)"><circle class="outline" cx="0" cy="0" r="25" fill="#F79767" stroke="#f36924" stroke-width="2px"/><text text-anchor="middle" pointer-events="none" font-family="sans-serif" dy="1.5625" font-size="25" fill="#FFFFFF"/><text text-anchor="middle" pointer-events="none" font-family="sans-serif" dy="1.5625" font-size="25" fill="#FFFFFF"/><text text-anchor="middle" pointer-events="none" x="0" y="0" font-size="10px" fill="#FFFFFF" font-family="sans-serif"> James</text><text text-anchor="middle" pointer-events="none" x="0" y="10" font-size="10px" fill="#FFFFFF" font-family="sans-serif"> Marshall</text></g><g class="node" transform="translate(411.1354749073171,421.33941652675304)"><circle class="outline" cx="0" cy="0" r="25" fill="#57C7E3" stroke="#23b3d7" stroke-width="2px"/><text text-anchor="middle" pointer-events="none" font-family="sans-serif" dy="1.5625" font-size="25" fill="#2A2C34"/><text text-anchor="middle" pointer-events="none" font-family="sans-serif" dy="1.5625" font-size="25" fill="#2A2C34"/><text text-anchor="middle" pointer-events="none" font-family="sans-serif" dy="1.5625" font-size="25" fill="#2A2C34"/><text text-anchor="middle" pointer-events="none" x="0" y="-5" font-size="10px" fill="#2A2C34" font-family="sans-serif"> The</text><text text-anchor="middle" pointer-events="none" x="0" y="5" font-size="10px" fill="#2A2C34" font-family="sans-serif"> Matrix</text><text text-anchor="middle" pointer-events="none" x="0" y="15" font-size="10px" fill="#2A2C34" font-family="sans-serif"> Revol…</text></g><g class="node" transform="translate(227.69413244729913,330.40274407296425)"><circle class="outline" cx="0" cy="0" r="25" fill="#57C7E3" stroke="#23b3d7" stroke-width="2px"/><text text-anchor="middle" pointer-events="none" font-family="sans-serif" dy="1.5625" font-size="25" fill="#2A2C34"/><text text-anchor="middle" pointer-events="none" font-family="sans-serif" dy="1.5625" font-size="25" fill="#2A2C34"/><text text-anchor="middle" pointer-events="none" font-family="sans-serif" dy="1.5625" font-size="25" fill="#2A2C34"/><text text-anchor="middle" pointer-events="none" x="0" y="-5" font-size="10px" fill="#2A2C34" font-family="sans-serif"> The</text><text text-anchor="middle" pointer-events="none" x="0" y="5" font-size="10px" fill="#2A2C34" font-family="sans-serif"> Matrix</text><text text-anchor="middle" pointer-events="none" x="0" y="15" font-size="10px" fill="#2A2C34" font-family="sans-serif"> Reloa…</text></g><g class="node" transform="translate(319.4678206917461,516.605613234786)"><circle class="outline" cx="0" cy="0" r="25" fill="#57C7E3" stroke="#23b3d7" stroke-width="2px"/><text text-anchor="middle" pointer-events="none" font-family="sans-serif" dy="1.5625" font-size="25" fill="#2A2C34"/><text text-anchor="middle" pointer-events="none" font-family="sans-serif" dy="1.5625" font-size="25" fill="#2A2C34"/><text text-anchor="middle" pointer-events="none" x="0" y="0" font-size="10px" fill="#2A2C34" font-family="sans-serif"> The</text><text text-anchor="middle" pointer-events="none" x="0" y="10" font-size="10px" fill="#2A2C34" font-family="sans-serif"> Matrix</text></g><g class="node" transform="translate(409.7753643110992,-233.19788515927098)"><circle class="outline" cx="0" cy="0" r="25" fill="#F79767" stroke="#f36924" stroke-width="2px"/><text text-anchor="middle" pointer-events="none" font-family="sans-serif" dy="1.5625" font-size="25" fill="#FFFFFF"/><text text-anchor="middle" pointer-events="none" font-family="sans-serif" dy="1.5625" font-size="25" fill="#FFFFFF"/><text text-anchor="middle" pointer-events="none" x="0" y="0" font-size="10px" fill="#FFFFFF" font-family="sans-serif"> Hugo</text><text text-anchor="middle" pointer-events="none" x="0" y="10" font-size="10px" fill="#FFFFFF" font-family="sans-serif"> Weaving</text></g><g class="node" transform="translate(413.13878433903653,-135.99496970695077)"><circle class="outline" cx="0" cy="0" r="25" fill="#57C7E3" stroke="#23b3d7" stroke-width="2px"/><text text-anchor="middle" pointer-events="none" font-family="sans-serif" dy="1.5625" font-size="25" fill="#2A2C34"/><text text-anchor="middle" pointer-events="none" font-family="sans-serif" dy="1.5625" font-size="25" fill="#2A2C34"/><text text-anchor="middle" pointer-events="none" font-family="sans-serif" dy="1.5625" font-size="25" fill="#2A2C34"/><text text-anchor="middle" pointer-events="none" x="0" y="-5" font-size="10px" fill="#2A2C34" font-family="sans-serif"> The</text><text text-anchor="middle" pointer-events="none" x="0" y="5" font-size="10px" fill="#2A2C34" font-family="sans-serif"> Matrix</text><text text-anchor="middle" pointer-events="none" x="0" y="15" font-size="10px" fill="#2A2C34" font-family="sans-serif"> Revol…</text></g><g class="node" transform="translate(352.154428402738,-217.06227971234225)"><circle class="outline" cx="0" cy="0" r="25" fill="#F79767" stroke="#f36924" stroke-width="2px"/><text text-anchor="middle" pointer-events="none" font-family="sans-serif" dy="1.5625" font-size="25" fill="#FFFFFF"/><text text-anchor="middle" pointer-events="none" font-family="sans-serif" dy="1.5625" font-size="25" fill="#FFFFFF"/><text text-anchor="middle" pointer-events="none" x="0" y="0" font-size="10px" fill="#FFFFFF" font-family="sans-serif"> Lana</text><text text-anchor="middle" pointer-events="none" x="0" y="10" font-size="10px" fill="#FFFFFF" font-family="sans-serif"> Wacho…</text></g><g class="node" transform="translate(402.3844172487079,-40.29398808010052)"><circle class="outline" cx="0" cy="0" r="25" fill="#F79767" stroke="#f36924" stroke-width="2px"/><text text-anchor="middle" pointer-events="none" font-family="sans-serif" dy="1.5625" font-size="25" fill="#FFFFFF"/><text text-anchor="middle" pointer-events="none" font-family="sans-serif" dy="1.5625" font-size="25" fill="#FFFFFF"/><text text-anchor="middle" pointer-events="none" x="0" y="0" font-size="10px" fill="#FFFFFF" font-family="sans-serif"> Lilly</text><text text-anchor="middle" pointer-events="none" x="0" y="10" font-size="10px" fill="#FFFFFF" font-family="sans-serif"> Wacho…</text></g><g class="node" transform="translate(296.5369439011437,-135.56504558140193)"><circle class="outline" cx="0" cy="0" r="25" fill="#57C7E3" stroke="#23b3d7" stroke-width="2px"/><text text-anchor="middle" pointer-events="none" font-family="sans-serif" dy="1.5625" font-size="25" fill="#2A2C34"/><text text-anchor="middle" pointer-events="none" font-family="sans-serif" dy="1.5625" font-size="25" fill="#2A2C34"/><text text-anchor="middle" pointer-events="none" x="0" y="0" font-size="10px" fill="#2A2C34" font-family="sans-serif"> Cloud</text><text text-anchor="middle" pointer-events="none" x="0" y="10" font-size="10px" fill="#2A2C34" font-family="sans-serif"> Atlas</text></g><g class="node" transform="translate(220.42321336768137,-41.128066670171364)"><circle class="outline" cx="0" cy="0" r="25" fill="#F79767" stroke="#f36924" stroke-width="2px"/><text text-anchor="middle" pointer-events="none" font-family="sans-serif" dy="1.5625" font-size="25" fill="#FFFFFF"/><text text-anchor="middle" pointer-events="none" font-family="sans-serif" dy="1.5625" font-size="25" fill="#FFFFFF"/><text text-anchor="middle" pointer-events="none" x="0" y="0" font-size="10px" fill="#FFFFFF" font-family="sans-serif"> Tom</text><text text-anchor="middle" pointer-events="none" x="0" y="10" font-size="10px" fill="#FFFFFF" font-family="sans-serif"> Tykwer</text></g><g class="node" transform="translate(354.7956034736645,-121.74590006277838)"><circle class="outline" cx="0" cy="0" r="25" fill="#57C7E3" stroke="#23b3d7" stroke-width="2px"/><text text-anchor="middle" pointer-events="none" font-family="sans-serif" dy="1.5625" font-size="25" fill="#2A2C34"/><text text-anchor="middle" pointer-events="none" font-family="sans-serif" dy="1.5625" font-size="25" fill="#2A2C34"/><text text-anchor="middle" pointer-events="none" font-family="sans-serif" dy="1.5625" font-size="25" fill="#2A2C34"/><text text-anchor="middle" pointer-events="none" x="0" y="-5" font-size="10px" fill="#2A2C34" font-family="sans-serif"> The</text><text text-anchor="middle" pointer-events="none" x="0" y="5" font-size="10px" fill="#2A2C34" font-family="sans-serif"> Matrix</text><text text-anchor="middle" pointer-events="none" x="0" y="15" font-size="10px" fill="#2A2C34" font-family="sans-serif"> Reloa…</text></g><g class="node" transform="translate(470.27884476320776,-117.80591434314267)"><circle class="outline" cx="0" cy="0" r="25" fill="#57C7E3" stroke="#23b3d7" stroke-width="2px"/><text text-anchor="middle" pointer-events="none" font-family="sans-serif" dy="1.5625" font-size="25" fill="#2A2C34"/><text text-anchor="middle" pointer-events="none" font-family="sans-serif" dy="1.5625" font-size="25" fill="#2A2C34"/><text text-anchor="middle" pointer-events="none" x="0" y="0" font-size="10px" fill="#2A2C34" font-family="sans-serif"> V for</text><text text-anchor="middle" pointer-events="none" x="0" y="10" font-size="10px" fill="#2A2C34" font-family="sans-serif"> Vendetta</text></g><g class="node" transform="translate(563.43709810194,-33.616938049125736)"><circle class="outline" cx="0" cy="0" r="25" fill="#F79767" stroke="#f36924" stroke-width="2px"/><text text-anchor="middle" pointer-events="none" font-family="sans-serif" dy="1.5625" font-size="25" fill="#FFFFFF"/><text text-anchor="middle" pointer-events="none" font-family="sans-serif" dy="1.5625" font-size="25" fill="#FFFFFF"/><text text-anchor="middle" pointer-events="none" x="0" y="0" font-size="10px" fill="#FFFFFF" font-family="sans-serif"> James</text><text text-anchor="middle" pointer-events="none" x="0" y="10" font-size="10px" fill="#FFFFFF" font-family="sans-serif"> Marshall</text></g><g class="node" transform="translate(474.7071494643963,-177.47297136443802)"><circle class="outline" cx="0" cy="0" r="25" fill="#57C7E3" stroke="#23b3d7" stroke-width="2px"/><text text-anchor="middle" pointer-events="none" font-family="sans-serif" dy="1.5625" font-size="25" fill="#2A2C34"/><text text-anchor="middle" pointer-events="none" font-family="sans-serif" dy="1.5625" font-size="25" fill="#2A2C34"/><text text-anchor="middle" pointer-events="none" x="0" y="0" font-size="10px" fill="#2A2C34" font-family="sans-serif"> The</text><text text-anchor="middle" pointer-events="none" x="0" y="10" font-size="10px" fill="#2A2C34" font-family="sans-serif"> Matrix</text></g><g class="node" transform="translate(-104.48105460207341,-211.11109014307715)"><circle class="outline" cx="0" cy="0" r="25" fill="#F79767" stroke="#f36924" stroke-width="2px"/><text text-anchor="middle" pointer-events="none" font-family="sans-serif" dy="1.5625" font-size="25" fill="#FFFFFF"/><text text-anchor="middle" pointer-events="none" font-family="sans-serif" dy="1.5625" font-size="25" fill="#FFFFFF"/><text text-anchor="middle" pointer-events="none" x="0" y="0" font-size="10px" fill="#FFFFFF" font-family="sans-serif"> Hugo</text><text text-anchor="middle" pointer-events="none" x="0" y="10" font-size="10px" fill="#FFFFFF" font-family="sans-serif"> Weaving</text></g><g class="node" transform="translate(-158.798472765155,-295.58041550144975)"><circle class="outline" cx="0" cy="0" r="25" fill="#57C7E3" stroke="#23b3d7" stroke-width="2px"/><text text-anchor="middle" pointer-events="none" font-family="sans-serif" dy="1.5625" font-size="25" fill="#2A2C34"/><text text-anchor="middle" pointer-events="none" font-family="sans-serif" dy="1.5625" font-size="25" fill="#2A2C34"/><text text-anchor="middle" pointer-events="none" x="0" y="0" font-size="10px" fill="#2A2C34" font-family="sans-serif"> V for</text><text text-anchor="middle" pointer-events="none" x="0" y="10" font-size="10px" fill="#2A2C34" font-family="sans-serif"> Vendetta</text></g><g class="node" transform="translate(-272.56117103350414,-302.2649784675695)"><circle class="outline" cx="0" cy="0" r="25" fill="#F79767" stroke="#f36924" stroke-width="2px"/><text text-anchor="middle" pointer-events="none" font-family="sans-serif" dy="1.5625" font-size="25" fill="#FFFFFF"/><text text-anchor="middle" pointer-events="none" font-family="sans-serif" dy="1.5625" font-size="25" fill="#FFFFFF"/><text text-anchor="middle" pointer-events="none" x="0" y="0" font-size="10px" fill="#FFFFFF" font-family="sans-serif"> James</text><text text-anchor="middle" pointer-events="none" x="0" y="10" font-size="10px" fill="#FFFFFF" font-family="sans-serif"> Marshall</text></g><g class="node" transform="translate(31.267490926306454,-253.95945572202078)"><circle class="outline" cx="0" cy="0" r="25" fill="#57C7E3" stroke="#23b3d7" stroke-width="2px"/><text text-anchor="middle" pointer-events="none" font-family="sans-serif" dy="1.5625" font-size="25" fill="#2A2C34"/><text text-anchor="middle" pointer-events="none" font-family="sans-serif" dy="1.5625" font-size="25" fill="#2A2C34"/><text text-anchor="middle" pointer-events="none" font-family="sans-serif" dy="1.5625" font-size="25" fill="#2A2C34"/><text text-anchor="middle" pointer-events="none" x="0" y="-5" font-size="10px" fill="#2A2C34" font-family="sans-serif"> The</text><text text-anchor="middle" pointer-events="none" x="0" y="5" font-size="10px" fill="#2A2C34" font-family="sans-serif"> Matrix</text><text text-anchor="middle" pointer-events="none" x="0" y="15" font-size="10px" fill="#2A2C34" font-family="sans-serif"> Reloa…</text></g><g class="node" transform="translate(-73.18822711943716,-262.05354911582816)"><circle class="outline" cx="0" cy="0" r="25" fill="#F79767" stroke="#f36924" stroke-width="2px"/><text text-anchor="middle" pointer-events="none" font-family="sans-serif" dy="1.5625" font-size="25" fill="#FFFFFF"/><text text-anchor="middle" pointer-events="none" font-family="sans-serif" dy="1.5625" font-size="25" fill="#FFFFFF"/><text text-anchor="middle" pointer-events="none" x="0" y="0" font-size="10px" fill="#FFFFFF" font-family="sans-serif"> Lana</text><text text-anchor="middle" pointer-events="none" x="0" y="10" font-size="10px" fill="#FFFFFF" font-family="sans-serif"> Wacho…</text></g><g class="node" transform="translate(-44.65690493676693,-209.41281014201027)"><circle class="outline" cx="0" cy="0" r="25" fill="#F79767" stroke="#f36924" stroke-width="2px"/><text text-anchor="middle" pointer-events="none" font-family="sans-serif" dy="1.5625" font-size="25" fill="#FFFFFF"/><text text-anchor="middle" pointer-events="none" font-family="sans-serif" dy="1.5625" font-size="25" fill="#FFFFFF"/><text text-anchor="middle" pointer-events="none" x="0" y="0" font-size="10px" fill="#FFFFFF" font-family="sans-serif"> Andy</text><text text-anchor="middle" pointer-events="none" x="0" y="10" font-size="10px" fill="#FFFFFF" font-family="sans-serif"> Wacho…</text></g><g class="node" transform="translate(-23.765740421039883,-326.4924713503648)"><circle class="outline" cx="0" cy="0" r="25" fill="#57C7E3" stroke="#23b3d7" stroke-width="2px"/><text text-anchor="middle" pointer-events="none" font-family="sans-serif" dy="1.5625" font-size="25" fill="#2A2C34"/><text text-anchor="middle" pointer-events="none" font-family="sans-serif" dy="1.5625" font-size="25" fill="#2A2C34"/><text text-anchor="middle" pointer-events="none" x="0" y="0" font-size="10px" fill="#2A2C34" font-family="sans-serif"> The</text><text text-anchor="middle" pointer-events="none" x="0" y="10" font-size="10px" fill="#2A2C34" font-family="sans-serif"> Matrix</text></g><g class="node" transform="translate(-33.98586818785677,-125.50011525472421)"><circle class="outline" cx="0" cy="0" r="25" fill="#57C7E3" stroke="#23b3d7" stroke-width="2px"/><text text-anchor="middle" pointer-events="none" font-family="sans-serif" dy="1.5625" font-size="25" fill="#2A2C34"/><text text-anchor="middle" pointer-events="none" font-family="sans-serif" dy="1.5625" font-size="25" fill="#2A2C34"/><text text-anchor="middle" pointer-events="none" font-family="sans-serif" dy="1.5625" font-size="25" fill="#2A2C34"/><text text-anchor="middle" pointer-events="none" x="0" y="-5" font-size="10px" fill="#2A2C34" font-family="sans-serif"> The</text><text text-anchor="middle" pointer-events="none" x="0" y="5" font-size="10px" fill="#2A2C34" font-family="sans-serif"> Matrix</text><text text-anchor="middle" pointer-events="none" x="0" y="15" font-size="10px" fill="#2A2C34" font-family="sans-serif"> Revol…</text></g><g class="node" transform="translate(-149.69895398925235,-143.24058450867452)"><circle class="outline" cx="0" cy="0" r="25" fill="#57C7E3" stroke="#23b3d7" stroke-width="2px"/><text text-anchor="middle" pointer-events="none" font-family="sans-serif" dy="1.5625" font-size="25" fill="#2A2C34"/><text text-anchor="middle" pointer-events="none" font-family="sans-serif" dy="1.5625" font-size="25" fill="#2A2C34"/><text text-anchor="middle" pointer-events="none" x="0" y="0" font-size="10px" fill="#2A2C34" font-family="sans-serif"> Cloud</text><text text-anchor="middle" pointer-events="none" x="0" y="10" font-size="10px" fill="#2A2C34" font-family="sans-serif"> Atlas</text></g><g class="node" transform="translate(-251.0167108880002,-78.73069024523576)"><circle class="outline" cx="0" cy="0" r="25" fill="#F79767" stroke="#f36924" stroke-width="2px"/><text text-anchor="middle" pointer-events="none" font-family="sans-serif" dy="1.5625" font-size="25" fill="#FFFFFF"/><text text-anchor="middle" pointer-events="none" font-family="sans-serif" dy="1.5625" font-size="25" fill="#FFFFFF"/><text text-anchor="middle" pointer-events="none" x="0" y="0" font-size="10px" fill="#FFFFFF" font-family="sans-serif"> Tom</text><text text-anchor="middle" pointer-events="none" x="0" y="10" font-size="10px" fill="#FFFFFF" font-family="sans-serif"> Tykwer</text></g><g class="node" transform="translate(-100.21446609368763,363.6377585367952)"><circle class="outline" cx="0" cy="0" r="25" fill="#F79767" stroke="#f36924" stroke-width="2px"/><text text-anchor="middle" pointer-events="none" font-family="sans-serif" dy="1.5625" font-size="25" fill="#FFFFFF"/><text text-anchor="middle" pointer-events="none" font-family="sans-serif" dy="1.5625" font-size="25" fill="#FFFFFF"/><text text-anchor="middle" pointer-events="none" x="0" y="0" font-size="10px" fill="#FFFFFF" font-family="sans-serif"> Hugo</text><text text-anchor="middle" pointer-events="none" x="0" y="10" font-size="10px" fill="#FFFFFF" font-family="sans-serif"> Weaving</text></g><g class="node" transform="translate(-154.03760307905486,273.98978692202695)"><circle class="outline" cx="0" cy="0" r="25" fill="#57C7E3" stroke="#23b3d7" stroke-width="2px"/><text text-anchor="middle" pointer-events="none" font-family="sans-serif" dy="1.5625" font-size="25" fill="#2A2C34"/><text text-anchor="middle" pointer-events="none" font-family="sans-serif" dy="1.5625" font-size="25" fill="#2A2C34"/><text text-anchor="middle" pointer-events="none" x="0" y="0" font-size="10px" fill="#2A2C34" font-family="sans-serif"> Cloud</text><text text-anchor="middle" pointer-events="none" x="0" y="10" font-size="10px" fill="#2A2C34" font-family="sans-serif"> Atlas</text></g><g class="node" transform="translate(-288.6846273972411,234.74784686828113)"><circle class="outline" cx="0" cy="0" r="25" fill="#F79767" stroke="#f36924" stroke-width="2px"/><text text-anchor="middle" pointer-events="none" font-family="sans-serif" dy="1.5625" font-size="25" fill="#FFFFFF"/><text text-anchor="middle" pointer-events="none" font-family="sans-serif" dy="1.5625" font-size="25" fill="#FFFFFF"/><text text-anchor="middle" pointer-events="none" x="0" y="0" font-size="10px" fill="#FFFFFF" font-family="sans-serif"> Tom</text><text text-anchor="middle" pointer-events="none" x="0" y="10" font-size="10px" fill="#FFFFFF" font-family="sans-serif"> Tykwer</text></g><g class="node" transform="translate(-208.03248787257644,210.43935106515116)"><circle class="outline" cx="0" cy="0" r="25" fill="#F79767" stroke="#f36924" stroke-width="2px"/><text text-anchor="middle" pointer-events="none" font-family="sans-serif" dy="1.5625" font-size="25" fill="#FFFFFF"/><text text-anchor="middle" pointer-events="none" font-family="sans-serif" dy="1.5625" font-size="25" fill="#FFFFFF"/><text text-anchor="middle" pointer-events="none" x="0" y="0" font-size="10px" fill="#FFFFFF" font-family="sans-serif"> Andy</text><text text-anchor="middle" pointer-events="none" x="0" y="10" font-size="10px" fill="#FFFFFF" font-family="sans-serif"> Wacho…</text></g><g class="node" transform="translate(-62.7852966019517,316.9982086835727)"><circle class="outline" cx="0" cy="0" r="25" fill="#F79767" stroke="#f36924" stroke-width="2px"/><text text-anchor="middle" pointer-events="none" font-family="sans-serif" dy="1.5625" font-size="25" fill="#FFFFFF"/><text text-anchor="middle" pointer-events="none" font-family="sans-serif" dy="1.5625" font-size="25" fill="#FFFFFF"/><text text-anchor="middle" pointer-events="none" x="0" y="0" font-size="10px" fill="#FFFFFF" font-family="sans-serif"> Lana</text><text text-anchor="middle" pointer-events="none" x="0" y="10" font-size="10px" fill="#FFFFFF" font-family="sans-serif"> Wacho…</text></g><g class="node" transform="translate(-200.17904658228088,312.21311243512724)"><circle class="outline" cx="0" cy="0" r="25" fill="#57C7E3" stroke="#23b3d7" stroke-width="2px"/><text text-anchor="middle" pointer-events="none" font-family="sans-serif" dy="1.5625" font-size="25" fill="#2A2C34"/><text text-anchor="middle" pointer-events="none" font-family="sans-serif" dy="1.5625" font-size="25" fill="#2A2C34"/><text text-anchor="middle" pointer-events="none" font-family="sans-serif" dy="1.5625" font-size="25" fill="#2A2C34"/><text text-anchor="middle" pointer-events="none" x="0" y="-5" font-size="10px" fill="#2A2C34" font-family="sans-serif"> The</text><text text-anchor="middle" pointer-events="none" x="0" y="5" font-size="10px" fill="#2A2C34" font-family="sans-serif"> Matrix</text><text text-anchor="middle" pointer-events="none" x="0" y="15" font-size="10px" fill="#2A2C34" font-family="sans-serif"> Reloa…</text></g><g class="node" transform="translate(-189.73455957221137,371.138874596958)"><circle class="outline" cx="0" cy="0" r="25" fill="#57C7E3" stroke="#23b3d7" stroke-width="2px"/><text text-anchor="middle" pointer-events="none" font-family="sans-serif" dy="1.5625" font-size="25" fill="#2A2C34"/><text text-anchor="middle" pointer-events="none" font-family="sans-serif" dy="1.5625" font-size="25" fill="#2A2C34"/><text text-anchor="middle" pointer-events="none" x="0" y="0" font-size="10px" fill="#2A2C34" font-family="sans-serif"> V for</text><text text-anchor="middle" pointer-events="none" x="0" y="10" font-size="10px" fill="#2A2C34" font-family="sans-serif"> Vendetta</text></g><g class="node" transform="translate(-236.34936096142692,479.2260873292913)"><circle class="outline" cx="0" cy="0" r="25" fill="#F79767" stroke="#f36924" stroke-width="2px"/><text text-anchor="middle" pointer-events="none" font-family="sans-serif" dy="1.5625" font-size="25" fill="#FFFFFF"/><text text-anchor="middle" pointer-events="none" font-family="sans-serif" dy="1.5625" font-size="25" fill="#FFFFFF"/><text text-anchor="middle" pointer-events="none" x="0" y="0" font-size="10px" fill="#FFFFFF" font-family="sans-serif"> James</text><text text-anchor="middle" pointer-events="none" x="0" y="10" font-size="10px" fill="#FFFFFF" font-family="sans-serif"> Marshall</text></g><g class="node" transform="translate(-116.58249667440079,227.08187821773706)"><circle class="outline" cx="0" cy="0" r="25" fill="#57C7E3" stroke="#23b3d7" stroke-width="2px"/><text text-anchor="middle" pointer-events="none" font-family="sans-serif" dy="1.5625" font-size="25" fill="#2A2C34"/><text text-anchor="middle" pointer-events="none" font-family="sans-serif" dy="1.5625" font-size="25" fill="#2A2C34"/><text text-anchor="middle" pointer-events="none" x="0" y="0" font-size="10px" fill="#2A2C34" font-family="sans-serif"> The</text><text text-anchor="middle" pointer-events="none" x="0" y="10" font-size="10px" fill="#2A2C34" font-family="sans-serif"> Matrix</text></g><g class="node" transform="translate(-56.799959446434144,225.8271926315236)"><circle class="outline" cx="0" cy="0" r="25" fill="#57C7E3" stroke="#23b3d7" stroke-width="2px"/><text text-anchor="middle" pointer-events="none" font-family="sans-serif" dy="1.5625" font-size="25" fill="#2A2C34"/><text text-anchor="middle" pointer-events="none" font-family="sans-serif" dy="1.5625" font-size="25" fill="#2A2C34"/><text text-anchor="middle" pointer-events="none" font-family="sans-serif" dy="1.5625" font-size="25" fill="#2A2C34"/><text text-anchor="middle" pointer-events="none" x="0" y="-5" font-size="10px" fill="#2A2C34" font-family="sans-serif"> The</text><text text-anchor="middle" pointer-events="none" x="0" y="5" font-size="10px" fill="#2A2C34" font-family="sans-serif"> Matrix</text><text text-anchor="middle" pointer-events="none" x="0" y="15" font-size="10px" fill="#2A2C34" font-family="sans-serif"> Revol…</text></g></g></svg>