<svg xmlns="http://www.w3.org/2000/svg" width="844.289306640625" height="833.7349243164062" viewBox="-322.8136291503906 -312.89300537109375 844.289306640625 833.7349243164062"><title>Neo4j Graph Visualization</title><desc>Created using Neo4j (http://www.neo4j.com/)</desc><g class="layer relationships"><g class="relationship" transform="translate(88.0377680550374 391.689676249703) rotate(181.3673366642015)"><path class="outline" fill="#A5ABB6" stroke="none" d="M 25 0.5 L 30.566920376479942 0.5 L 30.566920376479942 -0.5 L 25 -0.5 Z M 76.12942037647994 0.5 L 81.69634075295988 0.5 L 81.69634075295988 3.5 L 88.69634075295988 0 L 81.69634075295988 -3.5 L 81.69634075295988 -0.5 L 76.12942037647994 -0.5 Z"/><text text-anchor="middle" pointer-events="none" font-size="8px" fill="#000000" x="53.34817037647994" y="3" transform="rotate(180 53.34817037647994 0)" font-family="sans-serif">ACTED_IN</text></g><g class="relationship" transform="translate(88.0377680550374 391.689676249703) rotate(472.4764423739272)"><path class="outline" fill="#A5ABB6" stroke="none" d="M 25 0.5 L 27.911507418212828 0.5 L 27.911507418212828 -0.5 L 25 -0.5 Z M 73.47400741821284 0.5 L 76.38551483642566 0.5 L 76.38551483642566 3.5 L 83.38551483642566 0 L 76.38551483642566 -3.5 L 76.38551483642566 -0.5 L 73.47400741821284 -0.5 Z"/><text text-anchor="middle" pointer-events="none" font-size="8px" fill="#000000" x="50.69275741821283" y="3" transform="rotate(180 50.69275741821283 0)" font-family="sans-serif">ACTED_IN</text></g><g class="relationship" transform="translate(88.0377680550374 391.689676249703) rotate(389.85731337634246)"><path class="outline" fill="#A5ABB6" stroke="none" d="M 25 0.5 L 30.09721087471427 0.5 L 30.09721087471427 -0.5 L 25 -0.5 Z M 75.65971087471428 0.5 L 80.75692174942854 0.5 L 80.75692174942854 3.5 L 87.75692174942854 0 L 80.75692174942854 -3.5 L 80.75692174942854 -0.5 L 75.65971087471428 -0.5 Z"/><text text-anchor="middle" pointer-events="none" font-size="8px" fill="#000000" x="52.87846087471427" y="3" font-family="sans-serif">ACTED_IN</text></g><g class="relationship" transform="translate(88.0377680550374 391.689676249703) rotate(257.3357182162471)"><path class="outline" fill="#A5ABB6" stroke="none" d="M 25 0.5 L 29.431979915254182 0.5 L 29.431979915254182 -0.5 L 25 -0.5 Z M 74.99447991525417 0.5 L 79.42645983050836 0.5 L 79.42645983050836 3.5 L 86.42645983050836 0 L 79.42645983050836 -3.5 L 79.42645983050836 -0.5 L 74.99447991525417 -0.5 Z"/><text text-anchor="middle" pointer-events="none" font-size="8px" fill="#000000" x="52.21322991525418" y="3" transform="rotate(180 52.21322991525418 0)" font-family="sans-serif">ACTED_IN</text></g><g class="relationship" transform="translate(88.0377680550374 391.689676249703) rotate(325.21441554420505)"><path class="outline" fill="#A5ABB6" stroke="none" d="M 25 0.5 L 29.421102278268414 0.5 L 29.421102278268414 -0.5 L 25 -0.5 Z M 74.98360227826842 0.5 L 79.40470455653683 0.5 L 79.40470455653683 3.5 L 86.40470455653683 0 L 79.40470455653683 -3.5 L 79.40470455653683 -0.5 L 74.98360227826842 -0.5 Z"/><text text-anchor="middle" pointer-events="none" font-size="8px" fill="#000000" x="52.202352278268414" y="3" font-family="sans-serif">ACTED_IN</text></g><g class="relationship" transform="translate(412.7674276308119 96.37553744837142) rotate(524.7067497270582)"><path class="outline" fill="#A5ABB6" stroke="none" d="M 25 0.5 L 30.467542481048547 0.5 L 30.467542481048547 -0.5 L 25 -0.5 Z M 76.03004248104855 0.5 L 81.4975849620971 0.5 L 81.4975849620971 3.5 L 88.4975849620971 0 L 81.4975849620971 -3.5 L 81.4975849620971 -0.5 L 76.03004248104855 -0.5 Z"/><text text-anchor="middle" pointer-events="none" font-size="8px" fill="#000000" x="53.24879248104855" y="3" transform="rotate(180 53.24879248104855 0)" font-family="sans-serif">ACTED_IN</text></g><g class="relationship" transform="translate(412.7674276308119 96.37553744837142) rotate(403.2634742651818)"><path class="outline" fill="#A5ABB6" stroke="none" d="M 25 0.5 L 28.44769684769117 0.5 L 28.44769684769117 -0.5 L 25 -0.5 Z M 74.01019684769116 0.5 L 77.45789369538234 0.5 L 77.45789369538234 3.5 L 84.45789369538234 0 L 77.45789369538234 -3.5 L 77.45789369538234 -0.5 L 74.01019684769116 -0.5 Z"/><text text-anchor="middle" pointer-events="none" font-size="8px" fill="#000000" x="51.22894684769117" y="3" font-family="sans-serif">ACTED_IN</text></g><g class="relationship" transform="translate(412.7674276308119 96.37553744837142) rotate(298.407516392502)"><path class="outline" fill="#A5ABB6" stroke="none" d="M 25 0.5 L 29.360541202493195 0.5 L 29.360541202493195 -0.5 L 25 -0.5 Z M 74.9230412024932 0.5 L 79.28358240498639 0.5 L 79.28358240498639 3.5 L 86.28358240498639 0 L 79.28358240498639 -3.5 L 79.28358240498639 -0.5 L 74.9230412024932 -0.5 Z"/><text text-anchor="middle" pointer-events="none" font-size="8px" fill="#000000" x="52.141791202493195" y="3" font-family="sans-serif">ACTED_IN</text></g><g class="relationship" transform="translate(412.7674276308119 96.37553744837142) rotate(462.55134988535553)"><path class="outline" fill="#A5ABB6" stroke="none" d="M 25 0.5 L 31.15632355334548 0.5 L 31.15632355334548 -0.5 L 25 -0.5 Z M 76.71882355334549 0.5 L 82.87514710669096 0.5 L 82.87514710669096 3.5 L 89.87514710669096 0 L 82.87514710669096 -3.5 L 82.87514710669096 -0.5 L 76.71882355334549 -0.5 Z"/><text text-anchor="middle" pointer-events="none" font-size="8px" fill="#000000" x="53.93757355334548" y="3" transform="rotate(180 53.93757355334548 0)" font-family="sans-serif">ACTED_IN</text></g><g class="relationship" transform="translate(412.7674276308119 96.37553744837142) rotate(232.20275818774013)"><path class="outline" fill="#A5ABB6" stroke="none" d="M 25 0.5 L 29.501909326549097 0.5 L 29.501909326549097 -0.5 L 25 -0.5 Z M 75.0644093265491 0.5 L 79.5663186530982 0.5 L 79.5663186530982 3.5 L 86.5663186530982 0 L 79.5663186530982 -3.5 L 79.5663186530982 -0.5 L 75.0644093265491 -0.5 Z"/><text text-anchor="middle" pointer-events="none" font-size="8px" fill="#000000" x="52.2831593265491" y="3" transform="rotate(180 52.2831593265491 0)" font-family="sans-serif">ACTED_IN</text></g><g class="relationship" transform="translate(104.99110988048352 -182.42066788520418) rotate(358.9892201100437)"><path class="outline" fill="#A5ABB6" stroke="none" d="M 25 0.5 L 30.224478619196212 0.5 L 30.224478619196212 -0.5 L 25 -0.5 Z M 75.78697861919622 0.5 L 81.01145723839242 0.5 L 81.01145723839242 3.5 L 88.01145723839242 0 L 81.01145723839242 -3.5 L 81.01145723839242 -0.5 L 75.78697861919622 -0.5 Z"/><text text-anchor="middle" pointer-events="none" font-size="8px" fill="#000000" x="53.00572861919621" y="3" font-family="sans-serif">ACTED_IN</text></g><g class="relationship" transform="translate(104.99110988048352 -182.42066788520418) rotate(292.27731764167345)"><path class="outline" fill="#A5ABB6" stroke="none" d="M 25 0.5 L 28.54732890731114 0.5 L 28.54732890731114 -0.5 L 25 -0.5 Z M 74.10982890731114 0.5 L 77.65715781462228 0.5 L 77.65715781462228 3.5 L 84.65715781462228 0 L 77.65715781462228 -3.5 L 77.65715781462228 -0.5 L 74.10982890731114 -0.5 Z"/><text text-anchor="middle" pointer-events="none" font-size="8px" fill="#000000" x="51.32857890731114" y="3" font-family="sans-serif">ACTED_IN</text></g><g class="relationship" transform="translate(104.99110988048352 -182.42066788520418) rotate(212.5119931464577)"><path class="outline" fill="#A5ABB6" stroke="none" d="M 25 0.5 L 30.401140819466583 0.5 L 30.401140819466583 -0.5 L 25 -0.5 Z M 75.96364081946658 0.5 L 81.36478163893317 0.5 L 81.36478163893317 3.5 L 88.36478163893317 0 L 81.36478163893317 -3.5 L 81.36478163893317 -0.5 L 75.96364081946658 -0.5 Z"/><text text-anchor="middle" pointer-events="none" font-size="8px" fill="#000000" x="53.18239081946658" y="3" transform="rotate(180 53.18239081946658 0)" font-family="sans-serif">ACTED_IN</text></g><g class="relationship" transform="translate(104.99110988048352 -182.42066788520418) rotate(506.95986618820007)"><path class="outline" fill="#A5ABB6" stroke="none" d="M 25 0.5 L 28.919531801777687 0.5 L 28.919531801777687 -0.5 L 25 -0.5 Z M 74.48203180177768 0.5 L 78.40156360355537 0.5 L 78.40156360355537 3.5 L 85.40156360355537 0 L 78.40156360355537 -3.5 L 78.40156360355537 -0.5 L 74.48203180177768 -0.5 Z"/><text text-anchor="middle" pointer-events="none" font-size="8px" fill="#000000" x="51.70078180177769" y="3" transform="rotate(180 51.70078180177769 0)" font-family="sans-serif">ACTED_IN</text></g><g class="relationship" transform="translate(104.99110988048352 -182.42066788520418) rotate(434.2134259077125)"><path class="outline" fill="#A5ABB6" stroke="none" d="M 25 0.5 L 29.662635722568623 0.5 L 29.662635722568623 -0.5 L 25 -0.5 Z M 75.22513572256862 0.5 L 79.88777144513725 0.5 L 79.88777144513725 3.5 L 86.88777144513725 0 L 79.88777144513725 -3.5 L 79.88777144513725 -0.5 L 75.22513572256862 -0.5 Z"/><text text-anchor="middle" pointer-events="none" font-size="8px" fill="#000000" x="52.44388572256862" y="3" font-family="sans-serif">ACTED_IN</text></g><g class="relationship" transform="translate(-185.90111636910652 104.58908791759747) rotate(245.11620977583692)"><path class="outline" fill="#A5ABB6" stroke="none" d="M 25 0.5 L 31.293963080191638 0.5 L 31.293963080191638 -0.5 L 25 -0.5 Z M 76.85646308019165 0.5 L 83.15042616038328 0.5 L 83.15042616038328 3.5 L 90.15042616038328 0 L 83.15042616038328 -3.5 L 83.15042616038328 -0.5 L 76.85646308019165 -0.5 Z"/><text text-anchor="middle" pointer-events="none" font-size="8px" fill="#000000" x="54.07521308019164" y="3" transform="rotate(180 54.07521308019164 0)" font-family="sans-serif">ACTED_IN</text></g><g class="relationship" transform="translate(-185.90111636910652 104.58908791759747) rotate(533.7556527001176)"><path class="outline" fill="#A5ABB6" stroke="none" d="M 25 0.5 L 27.9970279580849 0.5 L 27.9970279580849 -0.5 L 25 -0.5 Z M 73.5595279580849 0.5 L 76.5565559161698 0.5 L 76.5565559161698 3.5 L 83.5565559161698 0 L 76.5565559161698 -3.5 L 76.5565559161698 -0.5 L 73.5595279580849 -0.5 Z"/><text text-anchor="middle" pointer-events="none" font-size="8px" fill="#000000" x="50.7782779580849" y="3" transform="rotate(180 50.7782779580849 0)" font-family="sans-serif">ACTED_IN</text></g><g class="relationship" transform="translate(-185.90111636910652 104.58908791759747) rotate(460.1298421316421)"><path class="outline" fill="#A5ABB6" stroke="none" d="M 25 0.5 L 30.092848027780228 0.5 L 30.092848027780228 -0.5 L 25 -0.5 Z M 75.65534802778024 0.5 L 80.74819605556046 0.5 L 80.74819605556046 3.5 L 87.74819605556046 0 L 80.74819605556046 -3.5 L 80.74819605556046 -0.5 L 75.65534802778024 -0.5 Z"/><text text-anchor="middle" pointer-events="none" font-size="8px" fill="#000000" x="52.87409802778023" y="3" transform="rotate(180 52.87409802778023 0)" font-family="sans-serif">ACTED_IN</text></g><g class="relationship" transform="translate(-185.90111636910652 104.58908791759747) rotate(303.13066971827465)"><path class="outline" fill="#A5ABB6" stroke="none" d="M 25 0.5 L 29.362339503695118 0.5 L 29.362339503695118 -0.5 L 25 -0.5 Z M 74.92483950369513 0.5 L 79.28717900739024 0.5 L 79.28717900739024 3.5 L 86.28717900739024 0 L 79.28717900739024 -3.5 L 79.28717900739024 -0.5 L 74.92483950369513 -0.5 Z"/><text text-anchor="middle" pointer-events="none" font-size="8px" fill="#000000" x="52.14358950369512" y="3" font-family="sans-serif">ACTED_IN</text></g><g class="relationship" transform="translate(-185.90111636910652 104.58908791759747) rotate(376.99687268684534)"><path class="outline" fill="#A5ABB6" stroke="none" d="M 25 0.5 L 28.786788737615616 0.5 L 28.786788737615616 -0.5 L 25 -0.5 Z M 74.34928873761561 0.5 L 78.13607747523123 0.5 L 78.13607747523123 3.5 L 85.13607747523123 0 L 78.13607747523123 -3.5 L 78.13607747523123 -0.5 L 74.34928873761561 -0.5 Z"/><text text-anchor="middle" pointer-events="none" font-size="8px" fill="#000000" x="51.568038737615616" y="3" font-family="sans-serif">ACTED_IN</text></g></g><g class="layer nodes"><g class="node" transform="translate(88.0377680550374,391.689676249703)"><circle class="outline" cx="0" cy="0" r="25" fill="#F79767" stroke="#f36924" stroke-width="2px"/><text text-anchor="middle" pointer-events="none" font-family="sans-serif" dy="1.5625" font-size="25" fill="#FFFFFF"/><text text-anchor="middle" pointer-events="none" font-family="sans-serif" dy="1.5625" font-size="25" fill="#FFFFFF"/><text text-anchor="middle" pointer-events="none" x="0" y="0" font-size="10px" fill="#FFFFFF" font-family="sans-serif"> Hugo</text><text text-anchor="middle" pointer-events="none" x="0" y="10" font-size="10px" fill="#FFFFFF" font-family="sans-serif"> Weaving</text></g><g class="node" transform="translate(-25.62619831241457,388.976624419768)"><circle class="outline" cx="0" cy="0" r="25" fill="#57C7E3" stroke="#23b3d7" stroke-width="2px"/><text text-anchor="middle" pointer-events="none" font-family="sans-serif" dy="1.5625" font-size="25" fill="#2A2C34"/><text text-anchor="middle" pointer-events="none" font-family="sans-serif" dy="1.5625" font-size="25" fill="#2A2C34"/><text text-anchor="middle" pointer-events="none" x="0" y="0" font-size="10px" fill="#2A2C34" font-family="sans-serif"> Cloud</text><text text-anchor="middle" pointer-events="none" x="0" y="10" font-size="10px" fill="#2A2C34" font-family="sans-serif"> Atlas</text></g><g class="node" transform="translate(46.60160210903391,491.8418803095853)"><circle class="outline" cx="0" cy="0" r="25" fill="#57C7E3" stroke="#23b3d7" stroke-width="2px"/><text text-anchor="middle" pointer-events="none" font-family="sans-serif" dy="1.5625" font-size="25" fill="#2A2C34"/><text text-anchor="middle" pointer-events="none" font-family="sans-serif" dy="1.5625" font-size="25" fill="#2A2C34"/><text text-anchor="middle" pointer-events="none" x="0" y="0" font-size="10px" fill="#2A2C34" font-family="sans-serif"> V for</text><text text-anchor="middle" pointer-events="none" x="0" y="10" font-size="10px" fill="#2A2C34" font-family="sans-serif"> Vendetta</text></g><g class="node" transform="translate(185.82822596908827,447.82477884484393)"><circle class="outline" cx="0" cy="0" r="25" fill="#57C7E3" stroke="#23b3d7" stroke-width="2px"/><text text-anchor="middle" pointer-events="none" font-family="sans-serif" dy="1.5625" font-size="25" fill="#2A2C34"/><text text-anchor="middle" pointer-events="none" font-family="sans-serif" dy="1.5625" font-size="25" fill="#2A2C34"/><text text-anchor="middle" pointer-events="none" font-family="sans-serif" dy="1.5625" font-size="25" fill="#2A2C34"/><text text-anchor="middle" pointer-events="none" x="0" y="-5" font-size="10px" fill="#2A2C34" font-family="sans-serif"> The</text><text text-anchor="middle" pointer-events="none" x="0" y="5" font-size="10px" fill="#2A2C34" font-family="sans-serif"> Matrix</text><text text-anchor="middle" pointer-events="none" x="0" y="15" font-size="10px" fill="#2A2C34" font-family="sans-serif"> Revol…</text></g><g class="node" transform="translate(63.608852409122164,282.9740654538074)"><circle class="outline" cx="0" cy="0" r="25" fill="#57C7E3" stroke="#23b3d7" stroke-width="2px"/><text text-anchor="middle" pointer-events="none" font-family="sans-serif" dy="1.5625" font-size="25" fill="#2A2C34"/><text text-anchor="middle" pointer-events="none" font-family="sans-serif" dy="1.5625" font-size="25" fill="#2A2C34"/><text text-anchor="middle" pointer-events="none" font-family="sans-serif" dy="1.5625" font-size="25" fill="#2A2C34"/><text text-anchor="middle" pointer-events="none" x="0" y="-5" font-size="10px" fill="#2A2C34" font-family="sans-serif"> The</text><text text-anchor="middle" pointer-events="none" x="0" y="5" font-size="10px" fill="#2A2C34" font-family="sans-serif"> Matrix</text><text text-anchor="middle" pointer-events="none" x="0" y="15" font-size="10px" fill="#2A2C34" font-family="sans-serif"> Reloa…</text></g><g class="node" transform="translate(179.53364689016956,328.1325180885952)"><circle class="outline" cx="0" cy="0" r="25" fill="#57C7E3" stroke="#23b3d7" stroke-width="2px"/><text text-anchor="middle" pointer-events="none" font-family="sans-serif" dy="1.5625" font-size="25" fill="#2A2C34"/><text text-anchor="middle" pointer-events="none" font-family="sans-serif" dy="1.5625" font-size="25" fill="#2A2C34"/><text text-anchor="middle" pointer-events="none" x="0" y="0" font-size="10px" fill="#2A2C34" font-family="sans-serif"> The</text><text text-anchor="middle" pointer-events="none" x="0" y="10" font-size="10px" fill="#2A2C34" font-family="sans-serif"> Matrix</text></g><g class="node" transform="translate(412.7674276308119,96.37553744837142)"><circle class="outline" cx="0" cy="0" r="25" fill="#F79767" stroke="#f36924" stroke-width="2px"/><text text-anchor="middle" pointer-events="none" font-family="sans-serif" dy="1.5625" font-size="25" fill="#FFFFFF"/><text text-anchor="middle" pointer-events="none" font-family="sans-serif" dy="1.5625" font-size="25" fill="#FFFFFF"/><text text-anchor="middle" pointer-events="none" x="0" y="0" font-size="10px" fill="#FFFFFF" font-family="sans-serif"> Hugo</text><text text-anchor="middle" pointer-events="none" x="0" y="10" font-size="10px" fill="#FFFFFF" font-family="sans-serif"> Weaving</text></g><g class="node" transform="translate(303.28896270289175,126.31159445751358)"><circle class="outline" cx="0" cy="0" r="25" fill="#57C7E3" stroke="#23b3d7" stroke-width="2px"/><text text-anchor="middle" pointer-events="none" font-family="sans-serif" dy="1.5625" font-size="25" fill="#2A2C34"/><text text-anchor="middle" pointer-events="none" font-family="sans-serif" dy="1.5625" font-size="25" fill="#2A2C34"/><text text-anchor="middle" pointer-events="none" font-family="sans-serif" dy="1.5625" font-size="25" fill="#2A2C34"/><text text-anchor="middle" pointer-events="none" x="0" y="-5" font-size="10px" fill="#2A2C34" font-family="sans-serif"> The</text><text text-anchor="middle" pointer-events="none" x="0" y="5" font-size="10px" fill="#2A2C34" font-family="sans-serif"> Matrix</text><text text-anchor="middle" pointer-events="none" x="0" y="15" font-size="10px" fill="#2A2C34" font-family="sans-serif"> Revol…</text></g><g class="node" transform="translate(492.4757401554602,171.39297146675554)"><circle class="outline" cx="0" cy="0" r="25" fill="#57C7E3" stroke="#23b3d7" stroke-width="2px"/><text text-anchor="middle" pointer-events="none" font-family="sans-serif" dy="1.5625" font-size="25" fill="#2A2C34"/><text text-anchor="middle" pointer-events="none" font-family="sans-serif" dy="1.5625" font-size="25" fill="#2A2C34"/><text text-anchor="middle" pointer-events="none" x="0" y="0" font-size="10px" fill="#2A2C34" font-family="sans-serif"> Cloud</text><text text-anchor="middle" pointer-events="none" x="0" y="10" font-size="10px" fill="#2A2C34" font-family="sans-serif"> Atlas</text></g><g class="node" transform="translate(465.709434875182,-1.5079626005359956)"><circle class="outline" cx="0" cy="0" r="25" fill="#57C7E3" stroke="#23b3d7" stroke-width="2px"/><text text-anchor="middle" pointer-events="none" font-family="sans-serif" dy="1.5625" font-size="25" fill="#2A2C34"/><text text-anchor="middle" pointer-events="none" font-family="sans-serif" dy="1.5625" font-size="25" fill="#2A2C34"/><text text-anchor="middle" pointer-events="none" font-family="sans-serif" dy="1.5625" font-size="25" fill="#2A2C34"/><text text-anchor="middle" pointer-events="none" x="0" y="-5" font-size="10px" fill="#2A2C34" font-family="sans-serif"> The</text><text text-anchor="middle" pointer-events="none" x="0" y="5" font-size="10px" fill="#2A2C34" font-family="sans-serif"> Matrix</text><text text-anchor="middle" pointer-events="none" x="0" y="15" font-size="10px" fill="#2A2C34" font-family="sans-serif"> Reloa…</text></g><g class="node" transform="translate(387.8033916287273,208.50535653888147)"><circle class="outline" cx="0" cy="0" r="25" fill="#57C7E3" stroke="#23b3d7" stroke-width="2px"/><text text-anchor="middle" pointer-events="none" font-family="sans-serif" dy="1.5625" font-size="25" fill="#2A2C34"/><text text-anchor="middle" pointer-events="none" font-family="sans-serif" dy="1.5625" font-size="25" fill="#2A2C34"/><text text-anchor="middle" pointer-events="none" x="0" y="0" font-size="10px" fill="#2A2C34" font-family="sans-serif"> V for</text><text text-anchor="middle" pointer-events="none" x="0" y="10" font-size="10px" fill="#2A2C34" font-family="sans-serif"> Vendetta</text></g><g class="node" transform="translate(344.3918877762136,8.217559888783038)"><circle class="outline" cx="0" cy="0" r="25" fill="#57C7E3" stroke="#23b3d7" stroke-width="2px"/><text text-anchor="middle" pointer-events="none" font-family="sans-serif" dy="1.5625" font-size="25" fill="#2A2C34"/><text text-anchor="middle" pointer-events="none" font-family="sans-serif" dy="1.5625" font-size="25" fill="#2A2C34"/><text text-anchor="middle" pointer-events="none" x="0" y="0" font-size="10px" fill="#2A2C34" font-family="sans-serif"> The</text><text text-anchor="middle" pointer-events="none" x="0" y="10" font-size="10px" fill="#2A2C34" font-family="sans-serif"> Matrix</text></g><g class="node" transform="translate(104.99110988048352,-182.42066788520418)"><circle class="outline" cx="0" cy="0" r="25" fill="#F79767" stroke="#f36924" stroke-width="2px"/><text text-anchor="middle" pointer-events="none" font-family="sans-serif" dy="1.5625" font-size="25" fill="#FFFFFF"/><text text-anchor="middle" pointer-events="none" font-family="sans-serif" dy="1.5625" font-size="25" fill="#FFFFFF"/><text text-anchor="middle" pointer-events="none" x="0" y="0" font-size="10px" fill="#FFFFFF" font-family="sans-serif"> Hugo</text><text text-anchor="middle" pointer-events="none" x="0" y="10" font-size="10px" fill="#FFFFFF" font-family="sans-serif"> Weaving</text></g><g class="node" transform="translate(217.9849818449927,-184.41424898792064)"><circle class="outline" cx="0" cy="0" r="25" fill="#57C7E3" stroke="#23b3d7" stroke-width="2px"/><text text-anchor="middle" pointer-events="none" font-family="sans-serif" dy="1.5625" font-size="25" fill="#2A2C34"/><text text-anchor="middle" pointer-events="none" font-family="sans-serif" dy="1.5625" font-size="25" fill="#2A2C34"/><text text-anchor="middle" pointer-events="none" x="0" y="0" font-size="10px" fill="#2A2C34" font-family="sans-serif"> V for</text><text text-anchor="middle" pointer-events="none" x="0" y="10" font-size="10px" fill="#2A2C34" font-family="sans-serif"> Vendetta</text></g><g class="node" transform="translate(146.561026054892,-283.8930007116137)"><circle class="outline" cx="0" cy="0" r="25" fill="#57C7E3" stroke="#23b3d7" stroke-width="2px"/><text text-anchor="middle" pointer-events="none" font-family="sans-serif" dy="1.5625" font-size="25" fill="#2A2C34"/><text text-anchor="middle" pointer-events="none" font-family="sans-serif" dy="1.5625" font-size="25" fill="#2A2C34"/><text text-anchor="middle" pointer-events="none" font-family="sans-serif" dy="1.5625" font-size="25" fill="#2A2C34"/><text text-anchor="middle" pointer-events="none" x="0" y="-5" font-size="10px" fill="#2A2C34" font-family="sans-serif"> The</text><text text-anchor="middle" pointer-events="none" x="0" y="5" font-size="10px" fill="#2A2C34" font-family="sans-serif"> Matrix</text><text text-anchor="middle" pointer-events="none" x="0" y="15" font-size="10px" fill="#2A2C34" font-family="sans-serif"> Reloa…</text></g><g class="node" transform="translate(9.392974737462648,-243.35153258627108)"><circle class="outline" cx="0" cy="0" r="25" fill="#57C7E3" stroke="#23b3d7" stroke-width="2px"/><text text-anchor="middle" pointer-events="none" font-family="sans-serif" dy="1.5625" font-size="25" fill="#2A2C34"/><text text-anchor="middle" pointer-events="none" font-family="sans-serif" dy="1.5625" font-size="25" fill="#2A2C34"/><text text-anchor="middle" pointer-events="none" x="0" y="0" font-size="10px" fill="#2A2C34" font-family="sans-serif"> The</text><text text-anchor="middle" pointer-events="none" x="0" y="10" font-size="10px" fill="#2A2C34" font-family="sans-serif"> Matrix</text></g><g class="node" transform="translate(12.442708932999112,-122.22682494281057)"><circle class="outline" cx="0" cy="0" r="25" fill="#57C7E3" stroke="#23b3d7" stroke-width="2px"/><text text-anchor="middle" pointer-events="none" font-family="sans-serif" dy="1.5625" font-size="25" fill="#2A2C34"/><text text-anchor="middle" pointer-events="none" font-family="sans-serif" dy="1.5625" font-size="25" fill="#2A2C34"/><text text-anchor="middle" pointer-events="none" font-family="sans-serif" dy="1.5625" font-size="25" fill="#2A2C34"/><text text-anchor="middle" pointer-events="none" x="0" y="-5" font-size="10px" fill="#2A2C34" font-family="sans-serif"> The</text><text text-anchor="middle" pointer-events="none" x="0" y="5" font-size="10px" fill="#2A2C34" font-family="sans-serif"> Matrix</text><text text-anchor="middle" pointer-events="none" x="0" y="15" font-size="10px" fill="#2A2C34" font-family="sans-serif"> Revol…</text></g><g class="node" transform="translate(135.43071142529624,-74.75310518987655)"><circle class="outline" cx="0" cy="0" r="25" fill="#57C7E3" stroke="#23b3d7" stroke-width="2px"/><text text-anchor="middle" pointer-events="none" font-family="sans-serif" dy="1.5625" font-size="25" fill="#2A2C34"/><text text-anchor="middle" pointer-events="none" font-family="sans-serif" dy="1.5625" font-size="25" fill="#2A2C34"/><text text-anchor="middle" pointer-events="none" x="0" y="0" font-size="10px" fill="#2A2C34" font-family="sans-serif"> Cloud</text><text text-anchor="middle" pointer-events="none" x="0" y="10" font-size="10px" fill="#2A2C34" font-family="sans-serif"> Atlas</text></g><g class="node" transform="translate(-185.90111636910652,104.58908791759747)"><circle class="outline" cx="0" cy="0" r="25" fill="#F79767" stroke="#f36924" stroke-width="2px"/><text text-anchor="middle" pointer-events="none" font-family="sans-serif" dy="1.5625" font-size="25" fill="#FFFFFF"/><text text-anchor="middle" pointer-events="none" font-family="sans-serif" dy="1.5625" font-size="25" fill="#FFFFFF"/><text text-anchor="middle" pointer-events="none" x="0" y="0" font-size="10px" fill="#FFFFFF" font-family="sans-serif"> Hugo</text><text text-anchor="middle" pointer-events="none" x="0" y="10" font-size="10px" fill="#FFFFFF" font-family="sans-serif"> Weaving</text></g><g class="node" transform="translate(-234.35401839306317,0.12887094302507224)"><circle class="outline" cx="0" cy="0" r="25" fill="#57C7E3" stroke="#23b3d7" stroke-width="2px"/><text text-anchor="middle" pointer-events="none" font-family="sans-serif" dy="1.5625" font-size="25" fill="#2A2C34"/><text text-anchor="middle" pointer-events="none" font-family="sans-serif" dy="1.5625" font-size="25" fill="#2A2C34"/><text text-anchor="middle" pointer-events="none" x="0" y="0" font-size="10px" fill="#2A2C34" font-family="sans-serif"> Cloud</text><text text-anchor="middle" pointer-events="none" x="0" y="10" font-size="10px" fill="#2A2C34" font-family="sans-serif"> Atlas</text></g><g class="node" transform="translate(-293.8136142719438,116.39665450646935)"><circle class="outline" cx="0" cy="0" r="25" fill="#57C7E3" stroke="#23b3d7" stroke-width="2px"/><text text-anchor="middle" pointer-events="none" font-family="sans-serif" dy="1.5625" font-size="25" fill="#2A2C34"/><text text-anchor="middle" pointer-events="none" font-family="sans-serif" dy="1.5625" font-size="25" fill="#2A2C34"/><text text-anchor="middle" pointer-events="none" font-family="sans-serif" dy="1.5625" font-size="25" fill="#2A2C34"/><text text-anchor="middle" pointer-events="none" x="0" y="-5" font-size="10px" fill="#2A2C34" font-family="sans-serif"> The</text><text text-anchor="middle" pointer-events="none" x="0" y="5" font-size="10px" fill="#2A2C34" font-family="sans-serif"> Matrix</text><text text-anchor="middle" pointer-events="none" x="0" y="15" font-size="10px" fill="#2A2C34" font-family="sans-serif"> Reloa…</text></g><g class="node" transform="translate(-205.73120982165685,215.57973215145267)"><circle class="outline" cx="0" cy="0" r="25" fill="#57C7E3" stroke="#23b3d7" stroke-width="2px"/><text text-anchor="middle" pointer-events="none" font-family="sans-serif" dy="1.5625" font-size="25" fill="#2A2C34"/><text text-anchor="middle" pointer-events="none" font-family="sans-serif" dy="1.5625" font-size="25" fill="#2A2C34"/><text text-anchor="middle" pointer-events="none" x="0" y="0" font-size="10px" fill="#2A2C34" font-family="sans-serif"> V for</text><text text-anchor="middle" pointer-events="none" x="0" y="10" font-size="10px" fill="#2A2C34" font-family="sans-serif"> Vendetta</text></g><g class="node" transform="translate(-125.0770749440662,11.394280142980023)"><circle class="outline" cx="0" cy="0" r="25" fill="#57C7E3" stroke="#23b3d7" stroke-width="2px"/><text text-anchor="middle" pointer-events="none" font-family="sans-serif" dy="1.5625" font-size="25" fill="#2A2C34"/><text text-anchor="middle" pointer-events="none" font-family="sans-serif" dy="1.5625" font-size="25" fill="#2A2C34"/><text text-anchor="middle" pointer-events="none" x="0" y="0" font-size="10px" fill="#2A2C34" font-family="sans-serif"> The</text><text text-anchor="middle" pointer-events="none" x="0" y="10" font-size="10px" fill="#2A2C34" font-family="sans-serif"> Matrix</text></g><g class="node" transform="translate(-80.57570425905772,136.78401182616608)"><circle class="outline" cx="0" cy="0" r="25" fill="#57C7E3" stroke="#23b3d7" stroke-width="2px"/><text text-anchor="middle" pointer-events="none" font-family="sans-serif" dy="1.5625" font-size="25" fill="#2A2C34"/><text text-anchor="middle" pointer-events="none" font-family="sans-serif" dy="1.5625" font-size="25" fill="#2A2C34"/><text text-anchor="middle" pointer-events="none" font-family="sans-serif" dy="1.5625" font-size="25" fill="#2A2C34"/><text text-anchor="middle" pointer-events="none" x="0" y="-5" font-size="10px" fill="#2A2C34" font-family="sans-serif"> The</text><text text-anchor="middle" pointer-events="none" x="0" y="5" font-size="10px" fill="#2A2C34" font-family="sans-serif"> Matrix</text><text text-anchor="middle" pointer-events="none" x="0" y="15" font-size="10px" fill="#2A2C34" font-family="sans-serif"> Revol…</text></g></g></svg>