<svg xmlns="http://www.w3.org/2000/svg" width="820.1002197265625" height="817.3471069335938" viewBox="-317.1625671386719 -306.8492736816406 820.1002197265625 817.3471069335938"><title>Neo4j Graph Visualization</title><desc>Created using Neo4j (http://www.neo4j.com/)</desc><g class="layer relationships"><g class="relationship" transform="translate(39.880211133371006 387.8545230004139) rotate(356.19587910679275)"><path class="outline" fill="#A5ABB6" stroke="none" d="M 25 0.5 L 30.231724797627777 0.5 L 30.231724797627777 -0.5 L 25 -0.5 Z M 75.79422479762778 0.5 L 81.02594959525555 0.5 L 81.02594959525555 3.5 L 88.02594959525555 0 L 81.02594959525555 -3.5 L 81.02594959525555 -0.5 L 75.79422479762778 -0.5 Z"/><text text-anchor="middle" pointer-events="none" font-size="8px" fill="#000000" x="53.01297479762778" y="3" font-family="sans-serif">ACTED_IN</text></g><g class="relationship" transform="translate(107.41783104349686 481.49784398841854) rotate(294.0982300861667)"><path class="outline" fill="#A5ABB6" stroke="none" d="M 25 0.5 L 29.118026122843446 0.5 L 29.118026122843446 -0.5 L 25 -0.5 Z M 74.68052612284345 0.5 L 78.79855224568689 0.5 L 78.79855224568689 3.5 L 85.79855224568689 0 L 78.79855224568689 -3.5 L 78.79855224568689 -0.5 L 74.68052612284345 -0.5 Z"/><text text-anchor="middle" pointer-events="none" font-size="8px" fill="#000000" x="51.899276122843446" y="3" font-family="sans-serif">ACTED_IN</text></g><g class="relationship" transform="translate(246.1986957181685 443.7594892043873) rotate(214.1299546942206)"><path class="outline" fill="#A5ABB6" stroke="none" d="M 25 0.5 L 30.221094369954614 0.5 L 30.221094369954614 -0.5 L 25 -0.5 Z M 75.78359436995461 0.5 L 81.00468873990923 0.5 L 81.00468873990923 3.5 L 88.00468873990923 0 L 81.00468873990923 -3.5 L 81.00468873990923 -0.5 L 75.78359436995461 -0.5 Z"/><text text-anchor="middle" pointer-events="none" font-size="8px" fill="#000000" x="53.00234436995461" y="3" transform="rotate(180 53.00234436995461 0)" font-family="sans-serif">ACTED_IN</text></g><g class="relationship" transform="translate(128.3281907485087 272.27645808758507) rotate(437.3140152045795)"><path class="outline" fill="#A5ABB6" stroke="none" d="M 25 0.5 L 29.11060126515362 0.5 L 29.11060126515362 -0.5 L 25 -0.5 Z M 74.67310126515362 0.5 L 78.78370253030724 0.5 L 78.78370253030724 3.5 L 85.78370253030724 0 L 78.78370253030724 -3.5 L 78.78370253030724 -0.5 L 74.67310126515362 -0.5 Z"/><text text-anchor="middle" pointer-events="none" font-size="8px" fill="#000000" x="51.89185126515362" y="3" font-family="sans-serif">ACTED_IN</text></g><g class="relationship" transform="translate(255.5487288214468 334.5738626023278) rotate(516.0132055421262)"><path class="outline" fill="#A5ABB6" stroke="none" d="M 25 0.5 L 30.02741141452814 0.5 L 30.02741141452814 -0.5 L 25 -0.5 Z M 75.58991141452813 0.5 L 80.61732282905628 0.5 L 80.61732282905628 3.5 L 87.61732282905628 0 L 80.61732282905628 -3.5 L 80.61732282905628 -0.5 L 75.58991141452813 -0.5 Z"/><text text-anchor="middle" pointer-events="none" font-size="8px" fill="#000000" x="52.80866141452814" y="3" transform="rotate(180 52.80866141452814 0)" font-family="sans-serif">ACTED_IN</text></g><g class="relationship" transform="translate(382.82252302339424 165.90725190630576) rotate(263.1469059331722)"><path class="outline" fill="#A5ABB6" stroke="none" d="M 25 0.5 L 29.986464177088628 0.5 L 29.986464177088628 -0.5 L 25 -0.5 Z M 75.54896417708864 0.5 L 80.53542835417726 0.5 L 80.53542835417726 3.5 L 87.53542835417726 0 L 80.53542835417726 -3.5 L 80.53542835417726 -0.5 L 75.54896417708864 -0.5 Z"/><text text-anchor="middle" pointer-events="none" font-size="8px" fill="#000000" x="52.76771417708863" y="3" transform="rotate(180 52.76771417708863 0)" font-family="sans-serif">ACTED_IN</text></g><g class="relationship" transform="translate(473.9375881479885 90.85071664681631) rotate(199.3314052894607)"><path class="outline" fill="#A5ABB6" stroke="none" d="M 25 0.5 L 29.113553559016836 0.5 L 29.113553559016836 -0.5 L 25 -0.5 Z M 74.67605355901684 0.5 L 78.78960711803367 0.5 L 78.78960711803367 3.5 L 85.78960711803367 0 L 78.78960711803367 -3.5 L 78.78960711803367 -0.5 L 74.67605355901684 -0.5 Z"/><text text-anchor="middle" pointer-events="none" font-size="8px" fill="#000000" x="51.894803559016836" y="3" transform="rotate(180 51.894803559016836 0)" font-family="sans-serif">ACTED_IN</text></g><g class="relationship" transform="translate(431.17727223768054 -40.68954930650378) rotate(483.07496844947923)"><path class="outline" fill="#A5ABB6" stroke="none" d="M 25 0.5 L 30.323905789718218 0.5 L 30.323905789718218 -0.5 L 25 -0.5 Z M 75.88640578971822 0.5 L 81.21031157943644 0.5 L 81.21031157943644 3.5 L 88.21031157943644 0 L 81.21031157943644 -3.5 L 81.21031157943644 -0.5 L 75.88640578971822 -0.5 Z"/><text text-anchor="middle" pointer-events="none" font-size="8px" fill="#000000" x="53.10515578971822" y="3" transform="rotate(180 53.10515578971822 0)" font-family="sans-serif">ACTED_IN</text></g><g class="relationship" transform="translate(261.30310150489277 77.49872651767768) rotate(347.8239419007922)"><path class="outline" fill="#A5ABB6" stroke="none" d="M 25 0.5 L 29.008152460432 0.5 L 29.008152460432 -0.5 L 25 -0.5 Z M 74.570652460432 0.5 L 78.578804920864 0.5 L 78.578804920864 3.5 L 85.578804920864 0 L 78.578804920864 -3.5 L 78.578804920864 -0.5 L 74.570652460432 -0.5 Z"/><text text-anchor="middle" pointer-events="none" font-size="8px" fill="#000000" x="51.789402460432" y="3" font-family="sans-serif">ACTED_IN</text></g><g class="relationship" transform="translate(318.2015555440323 -45.40032011022678) rotate(422.7919971285461)"><path class="outline" fill="#A5ABB6" stroke="none" d="M 25 0.5 L 29.701145387682182 0.5 L 29.701145387682182 -0.5 L 25 -0.5 Z M 75.26364538768217 0.5 L 79.96479077536436 0.5 L 79.96479077536436 3.5 L 86.96479077536436 0 L 79.96479077536436 -3.5 L 79.96479077536436 -0.5 L 75.26364538768217 -0.5 Z"/><text text-anchor="middle" pointer-events="none" font-size="8px" fill="#000000" x="52.48239538768218" y="3" font-family="sans-serif">ACTED_IN</text></g><g class="relationship" transform="translate(157.21518999711844 -172.22259350464918) rotate(189.4503935680442)"><path class="outline" fill="#A5ABB6" stroke="none" d="M 25 0.5 L 29.9573959142353 0.5 L 29.9573959142353 -0.5 L 25 -0.5 Z M 75.51989591423529 0.5 L 80.4772918284706 0.5 L 80.4772918284706 3.5 L 87.4772918284706 0 L 80.4772918284706 -3.5 L 80.4772918284706 -0.5 L 75.51989591423529 -0.5 Z"/><text text-anchor="middle" pointer-events="none" font-size="8px" fill="#000000" x="52.7386459142353" y="3" transform="rotate(180 52.7386459142353 0)" font-family="sans-serif">ACTED_IN</text></g><g class="relationship" transform="translate(115.85456998585033 -277.8492673103608) rotate(488.60495122535417)"><path class="outline" fill="#A5ABB6" stroke="none" d="M 25 0.5 L 29.48480873935449 0.5 L 29.48480873935449 -0.5 L 25 -0.5 Z M 75.04730873935449 0.5 L 79.53211747870898 0.5 L 79.53211747870898 3.5 L 86.53211747870898 0 L 79.53211747870898 -3.5 L 79.53211747870898 -0.5 L 75.04730873935449 -0.5 Z"/><text text-anchor="middle" pointer-events="none" font-size="8px" fill="#000000" x="52.26605873935449" y="3" transform="rotate(180 52.26605873935449 0)" font-family="sans-serif">ACTED_IN</text></g><g class="relationship" transform="translate(54.318981453097145 -79.91514853423058) rotate(265.84130639731984)"><path class="outline" fill="#A5ABB6" stroke="none" d="M 25 0.5 L 29.252719427109398 0.5 L 29.252719427109398 -0.5 L 25 -0.5 Z M 74.8152194271094 0.5 L 79.0679388542188 0.5 L 79.0679388542188 3.5 L 86.0679388542188 0 L 79.0679388542188 -3.5 L 79.0679388542188 -0.5 L 74.8152194271094 -0.5 Z"/><text text-anchor="middle" pointer-events="none" font-size="8px" fill="#000000" x="52.0339694271094" y="3" transform="rotate(180 52.0339694271094 0)" font-family="sans-serif">ACTED_IN</text></g><g class="relationship" transform="translate(-38.0982205858506 -262.5097939592805) rotate(400.4082336828259)"><path class="outline" fill="#A5ABB6" stroke="none" d="M 25 0.5 L 29.115152955847577 0.5 L 29.115152955847577 -0.5 L 25 -0.5 Z M 74.67765295584758 0.5 L 78.79280591169515 0.5 L 78.79280591169515 3.5 L 85.79280591169515 0 L 78.79280591169515 -3.5 L 78.79280591169515 -0.5 L 74.67765295584758 -0.5 Z"/><text text-anchor="middle" pointer-events="none" font-size="8px" fill="#000000" x="51.89640295584758" y="3" font-family="sans-serif">ACTED_IN</text></g><g class="relationship" transform="translate(-58.99491733555591 -149.34031264451463) rotate(338.55299449338304)"><path class="outline" fill="#A5ABB6" stroke="none" d="M 25 0.5 L 30.263819259146025 0.5 L 30.263819259146025 -0.5 L 25 -0.5 Z M 75.82631925914603 0.5 L 81.09013851829205 0.5 L 81.09013851829205 3.5 L 88.09013851829205 0 L 81.09013851829205 -3.5 L 81.09013851829205 -0.5 L 75.82631925914603 -0.5 Z"/><text text-anchor="middle" pointer-events="none" font-size="8px" fill="#000000" x="53.045069259146025" y="3" font-family="sans-serif">ACTED_IN</text></g><g class="relationship" transform="translate(-251.0903501130301 61.43182908000061) rotate(417.830661314306)"><path class="outline" fill="#A5ABB6" stroke="none" d="M 25 0.5 L 30.392140147987064 0.5 L 30.392140147987064 -0.5 L 25 -0.5 Z M 75.95464014798706 0.5 L 81.34678029597413 0.5 L 81.34678029597413 3.5 L 88.34678029597413 0 L 81.34678029597413 -3.5 L 81.34678029597413 -0.5 L 75.95464014798706 -0.5 Z"/><text text-anchor="middle" pointer-events="none" font-size="8px" fill="#000000" x="53.173390147987064" y="3" font-family="sans-serif">ACTED_IN</text></g><g class="relationship" transform="translate(-82.82839269310712 184.06244054246932) rotate(193.88956563769307)"><path class="outline" fill="#A5ABB6" stroke="none" d="M 25 0.5 L 29.3006956717021 0.5 L 29.3006956717021 -0.5 L 25 -0.5 Z M 74.8631956717021 0.5 L 79.1638913434042 0.5 L 79.1638913434042 3.5 L 86.1638913434042 0 L 79.1638913434042 -3.5 L 79.1638913434042 -0.5 L 74.8631956717021 -0.5 Z"/><text text-anchor="middle" pointer-events="none" font-size="8px" fill="#000000" x="52.0819456717021" y="3" transform="rotate(180 52.0819456717021 0)" font-family="sans-serif">ACTED_IN</text></g><g class="relationship" transform="translate(-288.1625546777122 204.34939527877864) rotate(334.2586702779636)"><path class="outline" fill="#A5ABB6" stroke="none" d="M 25 0.5 L 27.79544605372832 0.5 L 27.79544605372832 -0.5 L 25 -0.5 Z M 73.35794605372831 0.5 L 76.15339210745664 0.5 L 76.15339210745664 3.5 L 83.15339210745664 0 L 76.15339210745664 -3.5 L 76.15339210745664 -0.5 L 73.35794605372831 -0.5 Z"/><text text-anchor="middle" pointer-events="none" font-size="8px" fill="#000000" x="50.57669605372832" y="3" font-family="sans-serif">ACTED_IN</text></g><g class="relationship" transform="translate(-126.97267576196089 66.39596985711036) rotate(485.0267444470154)"><path class="outline" fill="#A5ABB6" stroke="none" d="M 25 0.5 L 29.27082705827935 0.5 L 29.27082705827935 -0.5 L 25 -0.5 Z M 74.83332705827935 0.5 L 79.1041541165587 0.5 L 79.1041541165587 3.5 L 86.1041541165587 0 L 79.1041541165587 -3.5 L 79.1041541165587 -0.5 L 74.83332705827935 -0.5 Z"/><text text-anchor="middle" pointer-events="none" font-size="8px" fill="#000000" x="52.05207705827935" y="3" transform="rotate(180 52.05207705827935 0)" font-family="sans-serif">ACTED_IN</text></g><g class="relationship" transform="translate(-179.7957682064632 271.24423647294503) rotate(264.50898468213916)"><path class="outline" fill="#A5ABB6" stroke="none" d="M 25 0.5 L 30.91462342894785 0.5 L 30.91462342894785 -0.5 L 25 -0.5 Z M 76.47712342894785 0.5 L 82.3917468578957 0.5 L 82.3917468578957 3.5 L 89.3917468578957 0 L 82.3917468578957 -3.5 L 82.3917468578957 -0.5 L 76.47712342894785 -0.5 Z"/><text text-anchor="middle" pointer-events="none" font-size="8px" fill="#000000" x="53.69587342894785" y="3" transform="rotate(180 53.69587342894785 0)" font-family="sans-serif">ACTED_IN</text></g></g><g class="layer nodes"><g class="node" transform="translate(39.880211133371006,387.8545230004139)"><circle class="outline" cx="0" cy="0" r="25" fill="#F79767" stroke="#f36924" stroke-width="2px"/><text text-anchor="middle" pointer-events="none" font-family="sans-serif" dy="1.5625" font-size="25" fill="#FFFFFF"/><text text-anchor="middle" pointer-events="none" font-family="sans-serif" dy="1.5625" font-size="25" fill="#FFFFFF"/><text text-anchor="middle" pointer-events="none" x="0" y="0" font-size="10px" fill="#FFFFFF" font-family="sans-serif"> Emil</text><text text-anchor="middle" pointer-events="none" x="0" y="10" font-size="10px" fill="#FFFFFF" font-family="sans-serif"> Eifrem</text></g><g class="node" transform="translate(152.65713055027095,380.35574118312485)"><circle class="outline" cx="0" cy="0" r="25" fill="#57C7E3" stroke="#23b3d7" stroke-width="2px"/><text text-anchor="middle" pointer-events="none" font-family="sans-serif" dy="1.5625" font-size="25" fill="#2A2C34"/><text text-anchor="middle" pointer-events="none" font-family="sans-serif" dy="1.5625" font-size="25" fill="#2A2C34"/><text text-anchor="middle" pointer-events="none" x="0" y="0" font-size="10px" fill="#2A2C34" font-family="sans-serif"> The</text><text text-anchor="middle" pointer-events="none" x="0" y="10" font-size="10px" fill="#2A2C34" font-family="sans-serif"> Matrix</text></g><g class="node" transform="translate(107.41783104349686,481.49784398841854)"><circle class="outline" cx="0" cy="0" r="25" fill="#F79767" stroke="#f36924" stroke-width="2px"/><text text-anchor="middle" pointer-events="none" font-family="sans-serif" dy="1.5625" font-size="25" fill="#FFFFFF"/><text text-anchor="middle" pointer-events="none" font-family="sans-serif" dy="1.5625" font-size="25" fill="#FFFFFF"/><text text-anchor="middle" pointer-events="none" x="0" y="0" font-size="10px" fill="#FFFFFF" font-family="sans-serif"> Hugo</text><text text-anchor="middle" pointer-events="none" x="0" y="10" font-size="10px" fill="#FFFFFF" font-family="sans-serif"> Weaving</text></g><g class="node" transform="translate(246.1986957181685,443.7594892043873)"><circle class="outline" cx="0" cy="0" r="25" fill="#F79767" stroke="#f36924" stroke-width="2px"/><text text-anchor="middle" pointer-events="none" font-family="sans-serif" dy="1.5625" font-size="25" fill="#FFFFFF"/><text text-anchor="middle" pointer-events="none" font-family="sans-serif" dy="1.5625" font-size="25" fill="#FFFFFF"/><text text-anchor="middle" pointer-events="none" x="0" y="0" font-size="10px" fill="#FFFFFF" font-family="sans-serif"> Laurence</text><text text-anchor="middle" pointer-events="none" x="0" y="10" font-size="10px" fill="#FFFFFF" font-family="sans-serif"> Fishbur…</text></g><g class="node" transform="translate(128.3281907485087,272.27645808758507)"><circle class="outline" cx="0" cy="0" r="25" fill="#F79767" stroke="#f36924" stroke-width="2px"/><text text-anchor="middle" pointer-events="none" font-family="sans-serif" dy="1.5625" font-size="25" fill="#FFFFFF"/><text text-anchor="middle" pointer-events="none" x="0" y="5" font-size="10px" fill="#FFFFFF" font-family="sans-serif"> Carrie-A…</text></g><g class="node" transform="translate(255.5487288214468,334.5738626023278)"><circle class="outline" cx="0" cy="0" r="25" fill="#F79767" stroke="#f36924" stroke-width="2px"/><text text-anchor="middle" pointer-events="none" font-family="sans-serif" dy="1.5625" font-size="25" fill="#FFFFFF"/><text text-anchor="middle" pointer-events="none" font-family="sans-serif" dy="1.5625" font-size="25" fill="#FFFFFF"/><text text-anchor="middle" pointer-events="none" x="0" y="0" font-size="10px" fill="#FFFFFF" font-family="sans-serif"> Keanu</text><text text-anchor="middle" pointer-events="none" x="0" y="10" font-size="10px" fill="#FFFFFF" font-family="sans-serif"> Reeves</text></g><g class="node" transform="translate(382.82252302339424,165.90725190630576)"><circle class="outline" cx="0" cy="0" r="25" fill="#F79767" stroke="#f36924" stroke-width="2px"/><text text-anchor="middle" pointer-events="none" font-family="sans-serif" dy="1.5625" font-size="25" fill="#FFFFFF"/><text text-anchor="middle" pointer-events="none" font-family="sans-serif" dy="1.5625" font-size="25" fill="#FFFFFF"/><text text-anchor="middle" pointer-events="none" x="0" y="0" font-size="10px" fill="#FFFFFF" font-family="sans-serif"> Laurence</text><text text-anchor="middle" pointer-events="none" x="0" y="10" font-size="10px" fill="#FFFFFF" font-family="sans-serif"> Fishbur…</text></g><g class="node" transform="translate(369.39433825673296,54.17584858239432)"><circle class="outline" cx="0" cy="0" r="25" fill="#57C7E3" stroke="#23b3d7" stroke-width="2px"/><text text-anchor="middle" pointer-events="none" font-family="sans-serif" dy="1.5625" font-size="25" fill="#2A2C34"/><text text-anchor="middle" pointer-events="none" font-family="sans-serif" dy="1.5625" font-size="25" fill="#2A2C34"/><text text-anchor="middle" pointer-events="none" x="0" y="0" font-size="10px" fill="#2A2C34" font-family="sans-serif"> The</text><text text-anchor="middle" pointer-events="none" x="0" y="10" font-size="10px" fill="#2A2C34" font-family="sans-serif"> Matrix</text></g><g class="node" transform="translate(473.9375881479885,90.85071664681631)"><circle class="outline" cx="0" cy="0" r="25" fill="#F79767" stroke="#f36924" stroke-width="2px"/><text text-anchor="middle" pointer-events="none" font-family="sans-serif" dy="1.5625" font-size="25" fill="#FFFFFF"/><text text-anchor="middle" pointer-events="none" x="0" y="5" font-size="10px" fill="#FFFFFF" font-family="sans-serif"> Carrie-A…</text></g><g class="node" transform="translate(431.17727223768054,-40.68954930650378)"><circle class="outline" cx="0" cy="0" r="25" fill="#F79767" stroke="#f36924" stroke-width="2px"/><text text-anchor="middle" pointer-events="none" font-family="sans-serif" dy="1.5625" font-size="25" fill="#FFFFFF"/><text text-anchor="middle" pointer-events="none" font-family="sans-serif" dy="1.5625" font-size="25" fill="#FFFFFF"/><text text-anchor="middle" pointer-events="none" x="0" y="0" font-size="10px" fill="#FFFFFF" font-family="sans-serif"> Emil</text><text text-anchor="middle" pointer-events="none" x="0" y="10" font-size="10px" fill="#FFFFFF" font-family="sans-serif"> Eifrem</text></g><g class="node" transform="translate(261.30310150489277,77.49872651767768)"><circle class="outline" cx="0" cy="0" r="25" fill="#F79767" stroke="#f36924" stroke-width="2px"/><text text-anchor="middle" pointer-events="none" font-family="sans-serif" dy="1.5625" font-size="25" fill="#FFFFFF"/><text text-anchor="middle" pointer-events="none" font-family="sans-serif" dy="1.5625" font-size="25" fill="#FFFFFF"/><text text-anchor="middle" pointer-events="none" x="0" y="0" font-size="10px" fill="#FFFFFF" font-family="sans-serif"> Keanu</text><text text-anchor="middle" pointer-events="none" x="0" y="10" font-size="10px" fill="#FFFFFF" font-family="sans-serif"> Reeves</text></g><g class="node" transform="translate(318.2015555440323,-45.40032011022678)"><circle class="outline" cx="0" cy="0" r="25" fill="#F79767" stroke="#f36924" stroke-width="2px"/><text text-anchor="middle" pointer-events="none" font-family="sans-serif" dy="1.5625" font-size="25" fill="#FFFFFF"/><text text-anchor="middle" pointer-events="none" font-family="sans-serif" dy="1.5625" font-size="25" fill="#FFFFFF"/><text text-anchor="middle" pointer-events="none" x="0" y="0" font-size="10px" fill="#FFFFFF" font-family="sans-serif"> Hugo</text><text text-anchor="middle" pointer-events="none" x="0" y="10" font-size="10px" fill="#FFFFFF" font-family="sans-serif"> Weaving</text></g><g class="node" transform="translate(157.21518999711844,-172.22259350464918)"><circle class="outline" cx="0" cy="0" r="25" fill="#F79767" stroke="#f36924" stroke-width="2px"/><text text-anchor="middle" pointer-events="none" font-family="sans-serif" dy="1.5625" font-size="25" fill="#FFFFFF"/><text text-anchor="middle" pointer-events="none" x="0" y="5" font-size="10px" fill="#FFFFFF" font-family="sans-serif"> Carrie-A…</text></g><g class="node" transform="translate(46.26442542505643,-190.69064748826662)"><circle class="outline" cx="0" cy="0" r="25" fill="#57C7E3" stroke="#23b3d7" stroke-width="2px"/><text text-anchor="middle" pointer-events="none" font-family="sans-serif" dy="1.5625" font-size="25" fill="#2A2C34"/><text text-anchor="middle" pointer-events="none" font-family="sans-serif" dy="1.5625" font-size="25" fill="#2A2C34"/><text text-anchor="middle" pointer-events="none" x="0" y="0" font-size="10px" fill="#2A2C34" font-family="sans-serif"> The</text><text text-anchor="middle" pointer-events="none" x="0" y="10" font-size="10px" fill="#2A2C34" font-family="sans-serif"> Matrix</text></g><g class="node" transform="translate(115.85456998585033,-277.8492673103608)"><circle class="outline" cx="0" cy="0" r="25" fill="#F79767" stroke="#f36924" stroke-width="2px"/><text text-anchor="middle" pointer-events="none" font-family="sans-serif" dy="1.5625" font-size="25" fill="#FFFFFF"/><text text-anchor="middle" pointer-events="none" font-family="sans-serif" dy="1.5625" font-size="25" fill="#FFFFFF"/><text text-anchor="middle" pointer-events="none" x="0" y="0" font-size="10px" fill="#FFFFFF" font-family="sans-serif"> Laurence</text><text text-anchor="middle" pointer-events="none" x="0" y="10" font-size="10px" fill="#FFFFFF" font-family="sans-serif"> Fishbur…</text></g><g class="node" transform="translate(54.318981453097145,-79.91514853423058)"><circle class="outline" cx="0" cy="0" r="25" fill="#F79767" stroke="#f36924" stroke-width="2px"/><text text-anchor="middle" pointer-events="none" font-family="sans-serif" dy="1.5625" font-size="25" fill="#FFFFFF"/><text text-anchor="middle" pointer-events="none" font-family="sans-serif" dy="1.5625" font-size="25" fill="#FFFFFF"/><text text-anchor="middle" pointer-events="none" x="0" y="0" font-size="10px" fill="#FFFFFF" font-family="sans-serif"> Keanu</text><text text-anchor="middle" pointer-events="none" x="0" y="10" font-size="10px" fill="#FFFFFF" font-family="sans-serif"> Reeves</text></g><g class="node" transform="translate(-38.0982205858506,-262.5097939592805)"><circle class="outline" cx="0" cy="0" r="25" fill="#F79767" stroke="#f36924" stroke-width="2px"/><text text-anchor="middle" pointer-events="none" font-family="sans-serif" dy="1.5625" font-size="25" fill="#FFFFFF"/><text text-anchor="middle" pointer-events="none" font-family="sans-serif" dy="1.5625" font-size="25" fill="#FFFFFF"/><text text-anchor="middle" pointer-events="none" x="0" y="0" font-size="10px" fill="#FFFFFF" font-family="sans-serif"> Hugo</text><text text-anchor="middle" pointer-events="none" x="0" y="10" font-size="10px" fill="#FFFFFF" font-family="sans-serif"> Weaving</text></g><g class="node" transform="translate(-58.99491733555591,-149.34031264451463)"><circle class="outline" cx="0" cy="0" r="25" fill="#F79767" stroke="#f36924" stroke-width="2px"/><text text-anchor="middle" pointer-events="none" font-family="sans-serif" dy="1.5625" font-size="25" fill="#FFFFFF"/><text text-anchor="middle" pointer-events="none" font-family="sans-serif" dy="1.5625" font-size="25" fill="#FFFFFF"/><text text-anchor="middle" pointer-events="none" x="0" y="0" font-size="10px" fill="#FFFFFF" font-family="sans-serif"> Emil</text><text text-anchor="middle" pointer-events="none" x="0" y="10" font-size="10px" fill="#FFFFFF" font-family="sans-serif"> Eifrem</text></g><g class="node" transform="translate(-251.0903501130301,61.43182908000061)"><circle class="outline" cx="0" cy="0" r="25" fill="#F79767" stroke="#f36924" stroke-width="2px"/><text text-anchor="middle" pointer-events="none" font-family="sans-serif" dy="1.5625" font-size="25" fill="#FFFFFF"/><text text-anchor="middle" pointer-events="none" x="0" y="5" font-size="10px" fill="#FFFFFF" font-family="sans-serif"> Carrie-A…</text></g><g class="node" transform="translate(-190.7418756832941,157.37740864189252)"><circle class="outline" cx="0" cy="0" r="25" fill="#57C7E3" stroke="#23b3d7" stroke-width="2px"/><text text-anchor="middle" pointer-events="none" font-family="sans-serif" dy="1.5625" font-size="25" fill="#2A2C34"/><text text-anchor="middle" pointer-events="none" font-family="sans-serif" dy="1.5625" font-size="25" fill="#2A2C34"/><text text-anchor="middle" pointer-events="none" x="0" y="0" font-size="10px" fill="#2A2C34" font-family="sans-serif"> The</text><text text-anchor="middle" pointer-events="none" x="0" y="10" font-size="10px" fill="#2A2C34" font-family="sans-serif"> Matrix</text></g><g class="node" transform="translate(-82.82839269310712,184.06244054246932)"><circle class="outline" cx="0" cy="0" r="25" fill="#F79767" stroke="#f36924" stroke-width="2px"/><text text-anchor="middle" pointer-events="none" font-family="sans-serif" dy="1.5625" font-size="25" fill="#FFFFFF"/><text text-anchor="middle" pointer-events="none" font-family="sans-serif" dy="1.5625" font-size="25" fill="#FFFFFF"/><text text-anchor="middle" pointer-events="none" x="0" y="0" font-size="10px" fill="#FFFFFF" font-family="sans-serif"> Emil</text><text text-anchor="middle" pointer-events="none" x="0" y="10" font-size="10px" fill="#FFFFFF" font-family="sans-serif"> Eifrem</text></g><g class="node" transform="translate(-288.1625546777122,204.34939527877864)"><circle class="outline" cx="0" cy="0" r="25" fill="#F79767" stroke="#f36924" stroke-width="2px"/><text text-anchor="middle" pointer-events="none" font-family="sans-serif" dy="1.5625" font-size="25" fill="#FFFFFF"/><text text-anchor="middle" pointer-events="none" font-family="sans-serif" dy="1.5625" font-size="25" fill="#FFFFFF"/><text text-anchor="middle" pointer-events="none" x="0" y="0" font-size="10px" fill="#FFFFFF" font-family="sans-serif"> Keanu</text><text text-anchor="middle" pointer-events="none" x="0" y="10" font-size="10px" fill="#FFFFFF" font-family="sans-serif"> Reeves</text></g><g class="node" transform="translate(-126.97267576196089,66.39596985711036)"><circle class="outline" cx="0" cy="0" r="25" fill="#F79767" stroke="#f36924" stroke-width="2px"/><text text-anchor="middle" pointer-events="none" font-family="sans-serif" dy="1.5625" font-size="25" fill="#FFFFFF"/><text text-anchor="middle" pointer-events="none" font-family="sans-serif" dy="1.5625" font-size="25" fill="#FFFFFF"/><text text-anchor="middle" pointer-events="none" x="0" y="0" font-size="10px" fill="#FFFFFF" font-family="sans-serif"> Hugo</text><text text-anchor="middle" pointer-events="none" x="0" y="10" font-size="10px" fill="#FFFFFF" font-family="sans-serif"> Weaving</text></g><g class="node" transform="translate(-179.7957682064632,271.24423647294503)"><circle class="outline" cx="0" cy="0" r="25" fill="#F79767" stroke="#f36924" stroke-width="2px"/><text text-anchor="middle" pointer-events="none" font-family="sans-serif" dy="1.5625" font-size="25" fill="#FFFFFF"/><text text-anchor="middle" pointer-events="none" font-family="sans-serif" dy="1.5625" font-size="25" fill="#FFFFFF"/><text text-anchor="middle" pointer-events="none" x="0" y="0" font-size="10px" fill="#FFFFFF" font-family="sans-serif"> Laurence</text><text text-anchor="middle" pointer-events="none" x="0" y="10" font-size="10px" fill="#FFFFFF" font-family="sans-serif"> Fishbur…</text></g></g></svg>